<?xml version="1.0" standalone="no"?>
<!DOCTYPE svg PUBLIC "-//W3C//DTD SVG 1.1//EN" "http://www.w3.org/Graphics/SVG/1.1/DTD/svg11.dtd" >
<svg>
<metadata>
Created by FontForge 20090622 at Tue Apr  3 20:20:36 2018
 By deploy user
Copyright (c) 2017 by Brittney Murphy. All rights reserved.
</metadata>
<defs>
<font id="honeyquick" horiz-adv-x="174" >
  <font-face 
    font-family="honeyquick"
    font-weight="400"
    font-stretch="normal"
    units-per-em="1000"
    panose-1="0 0 0 0 0 0 0 0 0 0"
    ascent="750"
    descent="-250"
    x-height="200"
    cap-height="306.5"
    bbox="-261.765 -370.722 465.765 574.92"
    underline-thickness="50"
    underline-position="-50"
    unicode-range="U+000D-U+FB02"
  />
<missing-glyph horiz-adv-x="131" 
 />
    <glyph glyph-name=".notdef" horiz-adv-x="131" 
 />
    <glyph glyph-name="NULL" horiz-adv-x="0" 
 />
    <glyph glyph-name="NULL" horiz-adv-x="0" 
 />
    <glyph glyph-name="nonmarkingreturn" unicode="&#xd;" horiz-adv-x="131" 
 />
    <glyph glyph-name="space" unicode=" " horiz-adv-x="131" 
 />
    <glyph glyph-name="j" unicode="j" horiz-adv-x="99" 
d="M6 186q1 6 5 8t9.5 2t10 -2t5.5 -5q8 -57 21.5 -114t28.5 -128q59 12 114 8t98 -13q8 -4 7.5 -8.5t-7.5 -5.5q-23 5 -50 8.5t-54.5 5t-54.5 0t-50 -6.5q6 -31 14 -67t12.5 -71t3 -67t-14.5 -54q-11 -20 -33.5 -30.5t-47.5 -11.5q-21 -1 -41.5 8t-36.5 25.5t-25.5 39
t-9.5 46.5q-2 29 10 58t32.5 53.5t48 44t56.5 29.5l-27.5 124t-23.5 124zM58 -341q17 9 24.5 29t9 45t-2.5 53t-9.5 54.5t-11 49t-8.5 36.5q-60 -23 -94.5 -71.5t-32.5 -102.5q1 -23 12 -45t28.5 -37t39.5 -19.5t45 8.5zM14 241q15 2 14.5 -6t-14.5 -10q-10 -1 -11.5 6.5
t11.5 9.5z" />
    <glyph glyph-name="w" unicode="w" horiz-adv-x="246" 
d="M16 186q0 6 4.5 9t9.5 3t10 -3t6 -9q0 -11 -1 -31t-1 -42.5t0.5 -45t3.5 -37.5l3.5 -14t5.5 -7q5 -1 9 7.5t6 13.5q8 22 12 49t4 41q0 12 -1 26.5t2 19.5q1 3 6 4t10 1t9.5 -2t4.5 -5q1 -11 4.5 -29t9.5 -37t14 -37t16 -30q12 -18 22 -13.5t13 24.5q2 15 0.5 36.5
t-6 45.5t-10.5 49t-12 46q-1 3 2 5.5t7.5 3t8.5 -0.5t6 -4q7 -25 15 -62.5t10.5 -74t-4.5 -65t-29 -35.5q-13 -4 -25.5 2.5t-23 19.5t-18.5 31t-14 36l-6 -23.5t-11 -29.5t-17 -23.5t-25 -6.5q-17 3 -24 27.5t-8.5 56t0.5 62.5t2 48z" />
    <glyph glyph-name="g" unicode="g" horiz-adv-x="191" 
d="M125 201q3 -2 8 -6.5t4 -8.5q-1 -2 -4.5 -3t-7.5 -1q0 -20 -8 -42q6 -32 14 -59.5t12 -38.5q7 -26 18.5 -64t22.5 -82q8 0 16.5 -0.5t16.5 -1.5q11 -2 10.5 -8.5t-8.5 -6.5l-31 2q12 -55 16.5 -108t-11.5 -88q-17 -38 -53.5 -49t-79.5 -4t-86 29t-74.5 51t-44.5 61t5 59
q17 26 50.5 39.5t74.5 19t85.5 5.5h83.5q-11 42 -22 79t-18 63q-5 16 -9.5 32.5l-8.5 32.5q-8 -9 -19.5 -18t-23.5 -14t-23 -4.5t-18 10.5q-11 14 -7.5 32t14.5 35.5t27.5 32.5t32.5 22q0 28 8 38q5 7 15.5 5t15.5 -12q3 -7 4 -14t3 -15zM-120 -175q-13 -23 -1 -50
t38.5 -52.5t63 -45.5t72.5 -27.5t66 1t45 40.5t11 82t-18 110q-36 1 -78.5 0.5t-82 -5.5t-71.5 -17.5t-45 -35.5zM91 121q-4 15 -6.5 30.5t-4.5 31.5q-13 -7 -24.5 -19.5t-18.5 -26t-8.5 -26t4.5 -19.5t14.5 -5t17 8t15.5 13.5t11 12.5zM109 192q0 -5 0.5 -9t1.5 -9
q0 5 0.5 8.5t-0.5 8.5q-1 1 -2 1zM109 211v-6h1q0 5 -1 6z" />
    <glyph glyph-name="h" unicode="h" horiz-adv-x="203" 
d="M-5 212q-7 -1 -10 5.5t10 8.5l18 4q0 22 -0.5 51.5t1 58.5t5.5 52.5t12 34.5q10 13 26 11.5t33.5 -13t34 -30t28.5 -38.5t17 -38.5t-2 -30.5q-8 -14 -21.5 -23.5t-31 -17t-36 -13.5t-36.5 -11q0 -19 0.5 -34.5t0.5 -29.5q5 11 14 18.5t21 8.5q21 1 36.5 -21t29 -52.5
t26 -62t27.5 -50.5q4 -5 9 -9.5t12 -7.5q5 -2 2.5 -5.5t-9.5 -3.5q-16 0 -30.5 15.5t-27.5 38.5t-25 49t-23 47t-21.5 33.5t-19.5 8.5q-14 -14 -19 -47v-15q2 -45 4 -66t2 -28q0 -3 -3.5 -5.5t-8 -3t-9.5 1t-6 6.5q-7 48 -8.5 100.5t-3.5 106.5zM148 293q5 12 -1.5 32.5
t-19.5 41t-30.5 37t-33.5 20.5q-8 -3 -12.5 -26.5t-6 -53.5t-1.5 -60.5v-46.5q13 3 29.5 9t32 13.5t27.5 16t16 17.5z" />
    <glyph glyph-name="o" unicode="o" 
d="M80 13q-23 -1 -39.5 18t-23.5 45.5t-2.5 55.5t22.5 49q7 19 28 19q14 0 25 -7.5t19 -20t13.5 -28t8.5 -30.5q5 2 8 -3.5t-7 -10.5q1 -9 -0.5 -24t-7 -28.5t-16 -24t-28.5 -10.5zM110 96q-47 -8 -66 35q-2 -15 0 -33t7.5 -34t13 -26.5t17.5 -9.5q11 0 17 7t8.5 17.5t3 22
t-0.5 21.5zM109 109q-1 8 -2.5 19t-5 22t-9.5 20.5t-15 13.5q-5 1 -10 -1.5t-8 -12.5q-3 -13 0.5 -24.5t11 -20t18 -13t20.5 -3.5z" />
    <glyph glyph-name="e" unicode="e" horiz-adv-x="188" 
d="M215 134q-3 -33 -16.5 -66.5t-42.5 -53.5q-19 -12 -39 -15.5t-38.5 2.5t-33 20.5t-23.5 37.5t-9 50t7 52q7 23 23.5 37t41.5 6q13 -4 22 -14.5t13.5 -23t4.5 -26.5t-5 -24q-10 -21 -28 -34.5t-41 -20.5q2 -5 4 -9t4 -6q11 -17 26 -25.5t33 -5.5q19 4 34 15.5t25 28
t16.5 36t9.5 40.5q1 8 7 7.5t5 -8.5zM99 116q4 9 4 20t-3.5 22t-10 20t-15.5 13q-13 -7 -20 -21.5t-9 -31.5t-1 -34.5t4 -29.5q15 4 29 14.5t22 27.5z" />
    <glyph glyph-name="n" unicode="n" horiz-adv-x="244" 
d="M10 238q0 6 4.5 8t10 1.5t10 -3t4.5 -6.5q1 -19 2 -42.5t2.5 -49t4 -50.5t7.5 -47q7 16 15 36.5t17 40t20 35t23 20.5q11 5 25.5 2.5t21.5 -13.5q10 -14 15 -35.5t10 -45.5t11.5 -47.5t18.5 -40.5q20 -27 54 -15q5 2 8.5 -3.5t-4.5 -9.5q-18 -8 -31 -8.5t-21 1.5
q-20 6 -32 23.5t-20 40t-12.5 47.5l-8.5 45.5t-9 34t-14 13.5q-13 0 -25 -23.5t-22.5 -52t-19 -55t-14.5 -32.5q-5 -5 -14 -5t-12 7t-6 18t-5 25q-7 45 -10 91.5t-4 94.5z" />
    <glyph glyph-name="m" unicode="m" horiz-adv-x="325" 
d="M12 213q1 6 5.5 8t10 1.5t10 -3.5t4.5 -6q0 -41 2 -68.5t7 -58.5l3 30.5t7.5 41t15.5 36t28 16.5q8 1 15 -3t13 -9q14 -13 21.5 -39t12.5 -54l6.5 34t8 34t11 29t15.5 20q12 9 25 9q29 0 43 -42q8 -28 12 -67t11.5 -76t23 -65.5t48.5 -34.5q8 -2 6 -8.5t-8 -7.5h-2
q-32 4 -51.5 26.5t-31 54.5t-18 68l-11.5 66t-12 50t-19 19q-13 -1 -20 -24.5t-10.5 -55t-5.5 -64.5t-5 -53q-2 -7 -14.5 -8t-14.5 5q-3 12 -8 42t-12 60.5t-15.5 53.5t-20.5 22t-17 -26.5t-7 -57.5t-3 -60.5t-6 -35.5q-3 -5 -14.5 -5.5t-13.5 4.5q-17 48 -21 99.5t-4 102.5
z" />
    <glyph glyph-name="k" unicode="k" horiz-adv-x="226" 
d="M-15 259q-8 -3 -8.5 4t4.5 10l24 12q0 14 -0.5 26t-0.5 26t-0.5 43.5t2 61.5t10 60.5t22.5 41.5q18 15 41.5 10.5t45 -20.5t36.5 -39.5t15 -44.5q1 -26 -12 -49.5t-33.5 -44.5t-46 -39t-50.5 -32q1 -57 6 -116q9 19 22 38t28 31t30.5 14.5t29.5 -11.5q15 -17 2.5 -41
t-42.5 -46q34 -12 55 -41.5t35.5 -66t27 -75.5t28.5 -70t40.5 -50t62.5 -15q7 1 7 -6t-7 -8q-16 -1 -34 1t-29 7q-28 11 -45.5 36.5t-30.5 57t-23.5 66t-24.5 65t-34 54t-51 32.5l-22 -10.5t-22 -7.5l6 -70t7 -71q0 -6 -4.5 -9t-10 -3t-10.5 2.5t-5 7.5q-8 88 -13 155.5
t-7 133.5zM157 450q0 13 -10.5 32.5t-26.5 35t-33 21t-29 -9.5q-11 -14 -16.5 -37.5t-7.5 -50.5t-1.5 -54.5t1.5 -49.5v-37q19 12 41 27.5t40 34.5t30 41.5t12 46.5zM131 226q-10 11 -23 4t-25 -22t-21 -32.5t-12 -26.5q18 7 37 7q12 8 22.5 18t17 19.5t8 18t-3.5 14.5z" />
    <glyph glyph-name="t" unicode="t" horiz-adv-x="123" 
d="M35 243q2 -30 4.5 -60t6.5 -61q1 -7 4 -23.5t7.5 -34.5t11 -32.5t15.5 -16.5q9 -1 20 13t19 35q7 21 10.5 42t4.5 30q2 8 8 7.5t5 -8.5t-3 -20.5t-5 -26.5t-8 -28t-12 -26q-8 -16 -21.5 -27t-26.5 -9q-15 2 -25.5 16.5t-17 33.5t-10 39l-5.5 32q-5 29 -7.5 59.5
t-4.5 60.5l-71 -9q-7 -1 -7.5 5.5t5.5 7.5l72 12q-1 19 -1 37.5v38.5q1 5 5.5 7t9.5 1.5t9.5 -3t4.5 -5.5q0 -18 1 -35.5l2 -35.5l86 15q7 1 8 -8t-5 -11z" />
    <glyph glyph-name="f" unicode="f" horiz-adv-x="177" 
d="M1 118q-8 -2 -9 4.5t9 9.5l13 5q-1 13 -2.5 39.5t-1 57.5t4 62.5t13 56t26.5 37t43 6.5q19 -4 31.5 -19.5t18.5 -36.5t6 -43.5t-5 -41.5q-11 -41 -40.5 -70.5t-64.5 -47.5q2 -41 5 -68.5t8 -58.5q45 14 82.5 42t53.5 85q2 6 8 4.5t4 -7.5q-17 -60 -53 -90t-83 -45
q20 0 43 -5t44.5 -14t39.5 -22.5t27 -31.5q10 -18 10 -49t-9 -60.5t-27.5 -51t-46.5 -21.5q-30 1 -51.5 30t-35 68.5t-21.5 79.5t-11 63l-21.5 -4t-22.5 -4q-6 -2 -9 0t-3.5 5.5t2 7t6.5 4.5q3 1 10 1q8 2 17 3.5t17 3.5l-7 60.5t-4 61.5l-7 -3.5t-7 -2.5zM128 -230
q12 -11 27 -10.5t28 14.5q12 12 19 31.5t9 40.5t0 41t-9 32q-9 17 -25 29.5t-36 21t-41.5 13t-40.5 5.5q3 -20 8.5 -51t13.5 -63.5t20 -60.5t27 -43zM135 284q0 13 -2 30.5t-7.5 33.5t-16 27t-26.5 11q-18 -2 -27 -28t-12.5 -63t-3 -76.5t1.5 -68.5q36 21 63 54.5t30 79.5z
" />
    <glyph glyph-name="p" unicode="p" horiz-adv-x="201" 
d="M46 141q13 27 31 41t43 14t39 -21q10 -17 10 -32.5t-8 -30t-22 -27.5t-30 -24q-27 -19 -50 -29l20 -154l6 -52t0 -53q-1 -5 -10 -7.5t-16 3.5q-5 5 -8 21.5t-5 35.5t-3 35t-1 21q-2 35 -5 69.5t-8 69.5q-10 -2 -9 4t8 10q-8 55 -15.5 112t-10.5 111q0 5 4.5 8t10 3
t10 -2.5t5.5 -7.5zM141 161q-10 18 -29 17.5t-34 -16.5q-10 -10 -16.5 -24.5t-11.5 -31.5l7 -53v-6q16 8 34.5 21t32.5 28t20 31.5t-3 33.5z" />
    <glyph glyph-name="s" unicode="s" horiz-adv-x="141" 
d="M82 -35q-14 3 -28.5 8t-25.5 12t-18 15t-7 17q0 13 19 26t42 25q-2 2 -2 3l-39.5 50.5t-16.5 42.5q0 15 8 25t21 16.5t29 10t33 4.5q7 1 8 -5.5t-7 -7.5q-27 -2 -44.5 -11.5t-17.5 -28.5q0 -9 5 -19.5t12.5 -21.5t17 -22.5l18.5 -22.5q13 6 24 12q7 2 9.5 -1.5t-3.5 -8.5
q-4 -4 -9.5 -7l-12.5 -7l15 -20t16 -25.5t9 -26t-5 -21.5q-7 -10 -20.5 -11.5t-29.5 0.5zM104 -16q4 6 2.5 15t-7 19t-12.5 20l-13 18q-18 -10 -32 -20t-16 -21q-1 -5 9 -13t23.5 -14t26.5 -8t19 4z" />
    <glyph glyph-name="r" unicode="r" horiz-adv-x="161" 
d="M43 203q24 -9 43.5 -19.5t27.5 -25.5q4 -9 4.5 -19t-1 -21t-3.5 -21t-3 -19t-3 -23t0 -26t9.5 -19.5t24.5 -4.5q5 1 5.5 -4.5t-4.5 -7.5q-14 -3 -27 0t-20 10q-6 7 -9.5 17.5t-2.5 27.5q1 16 4 32.5t5 31t2 26.5t-4 19q-7 13 -20.5 19.5t-27.5 11.5q0 -54 -3 -102t-8 -97
q-1 -3 -5.5 -5.5t-10 -3t-10 1.5t-4.5 7q3 37 6 66.5t5 54.5t2.5 47t0.5 45q-7 5 -8 11.5t0.5 13.5t4 14.5t2.5 14.5q1 5 5.5 7t9 1.5t8 -2.5t3.5 -5z" />
    <glyph glyph-name="x" unicode="x" horiz-adv-x="156" 
d="M118 21q-14 -2 -25.5 3t-21.5 14l-19 -52q-4 -5 -10 -2.5t-4 9.5l20 60q-10 13 -19.5 32.5l-18.5 38t-18 33.5t-19 20q-3 1 -3 5.5t3 8t9 5t14 -1.5q9 -4 17 -16t16 -27t15.5 -32t15.5 -30l43 127q2 5 6.5 7t9 0.5t7 -5t0.5 -9.5l-53 -141q11 -17 20 -23t18 -4
q10 1 17.5 11t13.5 24t10.5 30.5t9.5 30.5q2 7 8 5t4 -10l-10 -37t-12.5 -35t-18 -26.5t-25.5 -12.5z" />
    <glyph glyph-name="y" unicode="y" horiz-adv-x="184" 
d="M92 40q-17 -5 -31 8t-24.5 32.5t-17.5 41l-11 33.5q-2 4 0 8t6 5.5t8 0t6 -6.5q1 -4 6 -17t12 -29.5t15 -32t17 -24.5q10 13 15 30t6.5 34.5t1 35t-0.5 32.5q0 4 4.5 6.5t10.5 2.5t10.5 -2.5t4.5 -6.5q0 -36 1.5 -65t4 -57t4.5 -57t2 -63l31 1q8 -1 8.5 -6.5t-7.5 -6.5
l-32 -1q0 -21 -1 -52t-6.5 -62.5t-16 -59t-29.5 -42.5q-19 -14 -47.5 -11t-59 17t-58.5 36.5t-46.5 48t-24 50t9.5 42.5q16 17 46 26t65.5 13t72 4.5t65.5 1.5q-1 30 -2.5 51.5t-4.5 51.5q-6 -9 -13 -11zM37 -277q29 -5 44 20.5t21.5 61.5t7.5 73.5t2 56.5q-42 -2 -78.5 -3
t-65.5 -5t-50 -11.5t-33 -21.5q-15 -18 -4 -45t36.5 -53.5t58 -47t61.5 -25.5z" />
    <glyph glyph-name="z" unicode="z" horiz-adv-x="161" 
d="M-2 176q-7 -2 -9.5 3.5t3.5 9.5l25 12t31 11.5t30.5 4t24.5 -11.5q9 -9 7.5 -24t-8 -32.5t-16 -36.5t-17 -36.5t-11 -32t1.5 -22.5q3 -5 12 -5t20 2.5t23 7l23 8.5q8 1 10.5 -6.5t-4.5 -10.5q-12 -5 -27 -8.5t-29 -5.5q-8 -1 -18.5 -1.5t-20 1.5t-16 8t-7.5 18
q-1 15 7 35t18 41l18.5 40.5t10.5 33.5q2 11 -4 17t-20 4q-16 -4 -32.5 -11.5t-25.5 -12.5z" />
    <glyph glyph-name="v" unicode="v" horiz-adv-x="196" 
d="M-8 235q-3 4 -0.5 7.5t7 5t10 1t9.5 -4.5q9 -11 14.5 -33t9.5 -49.5t7 -56t7.5 -52.5t12 -40t19.5 -16q13 1 22.5 13.5t16 30.5t10 40t5.5 44q2 28 0.5 52t-3.5 37q-1 3 1.5 6t6.5 4t8 -0.5t6 -6.5q3 -13 3 -39t-1 -48q-2 -29 -7.5 -55t-15.5 -46t-24 -32.5t-33 -13.5
q-24 -2 -37 17.5t-20 50t-10.5 65.5t-7.5 65l-7.5 31.5t-8.5 22.5z" />
    <glyph glyph-name="u" unicode="u" horiz-adv-x="254" 
d="M204 -43q17 7 28.5 32.5t19 54.5t11.5 55.5t6 35.5q2 8 8 7.5t5 -8.5q-2 -20 -8 -53t-16.5 -64.5t-26.5 -54t-39 -21.5q-33 1 -44.5 39t-10.5 96q-3 -12 -8 -25.5t-12 -25.5t-16.5 -21t-20.5 -10q-24 -4 -37 19t-20 55t-8 63.5t-1 44.5q1 6 5.5 8t10 1t9.5 -3.5t4 -5.5
q0 -8 1.5 -34t5.5 -54.5t11 -51t18 -23.5t19.5 15t15.5 40.5t12.5 52l10.5 50.5q3 17 5.5 28t3.5 14q2 6 7.5 7.5t10.5 0.5t9 -3.5t4 -5.5l-3.5 -26t-3.5 -24q-1 -8 -2.5 -27t-2 -42.5t1 -48.5t5.5 -45t11.5 -32t20.5 -10z" />
    <glyph glyph-name="a" unicode="a" horiz-adv-x="227" 
d="M227 33q-13 -26 -36 -32t-46 17q-11 11 -21.5 31.5t-21.5 54.5q-5 -14 -11.5 -26.5t-15.5 -21.5t-20 -13t-23 0q-14 5 -19.5 17.5t-6 28t2.5 30.5t8 25q9 20 25.5 36t36.5 25q-2 13 -3 25t-1 24q0 5 11 8t16 -4q3 -4 4.5 -13t2.5 -19.5t1.5 -21t0.5 -16.5q4 -27 11.5 -57
t17.5 -56t21.5 -43.5t24.5 -17.5q12 0 22.5 14t18.5 35q7 21 10.5 42t4.5 30q2 8 8 7.5t5 -8.5q-2 -17 -8.5 -47t-19.5 -54zM41 134q-2 -5 -4 -14t-3 -19t0.5 -18.5t7.5 -13.5q8 -6 16 -3t15 12t12.5 23t9.5 29q-4 14 -7.5 29t-5.5 30q-14 -11 -24.5 -24.5t-16.5 -30.5z" />
    <glyph glyph-name="i" unicode="i" horiz-adv-x="114" 
d="M14 165v3q1 4 6 5.5t10.5 0.5t10 -3.5t4.5 -5.5q0 -16 1 -35.5t2.5 -38t5.5 -35t10 -26.5q10 -17 19 -11q11 6 19 20.5t13.5 32t8.5 35l5 28.5q1 8 7 7.5t5 -8.5q-1 -15 -5.5 -38.5t-13.5 -45t-24 -36.5t-36 -12q-17 2 -26 18.5t-13.5 40.5t-6 51.5t-2.5 52.5zM25 219
q-10 0 -10.5 7.5t14.5 8.5q4 0 7.5 -2.5t4 -5.5t-3 -5.5t-12.5 -2.5z" />
    <glyph glyph-name="l" unicode="l" horiz-adv-x="103" 
d="M9 218q-1 38 -2.5 76t0.5 80q0 6 5 7.5t10 0.5t9.5 -4t4.5 -7q0 -43 1 -85.5t3 -85.5q1 -11 1.5 -33.5t2.5 -48t6 -50t12 -39.5q5 -9 13 -5q7 7 14 20.5t13 29.5t10 32.5t6 28.5q1 8 7.5 7t4.5 -8q-2 -13 -7.5 -35.5t-14 -44t-21 -36.5t-28.5 -13q-14 2 -22.5 21
t-14 48.5t-8 67t-5.5 76.5z" />
    <glyph glyph-name="q" unicode="q" horiz-adv-x="190" 
d="M135 236q1 -29 0.5 -67.5t0 -80t3 -83.5t9.5 -76q12 1 34.5 1.5t45.5 -3t41.5 -14t22.5 -31.5q4 -19 -3 -33t-20 -22.5t-30 -11.5t-33 0q-27 5 -50.5 30t-33.5 67q-50 -8 -93.5 -20t-87 -20.5t-91.5 -7.5t-106 19q-7 3 -5.5 9t8.5 5q54 -18 99 -19t88 6.5t87.5 20
t97.5 20.5q-8 38 -11 77t-4 80q-6 -6 -13.5 -11t-16.5 -8q-24 -8 -43 4.5t-21 37.5q-1 16 7.5 33.5t22 31t30.5 21t34 4.5v20.5t1 20.5v2q0 1 1 1q3 7 15 5.5t14 -8.5zM201 -163q20 -10 37 -6t26.5 15.5t8.5 27t-17 27.5q-20 16 -49 16t-54 -1q5 -20 16.5 -44.5t31.5 -34.5z
M104 106q-1 15 -0.5 31.5t0.5 44.5q-15 0 -30.5 -8t-26 -21t-14.5 -29t3 -31q10 -21 30.5 -15t37.5 28z" />
    <glyph glyph-name="d" unicode="d" horiz-adv-x="222" 
d="M155 188l7 -49t9.5 -58.5t12.5 -61.5t17 -59q17 -43 38 -49.5t43 4.5q7 3 9 -2.5t-3 -9.5q-14 -7 -30 -9t-31.5 3.5t-29.5 19t-24 37.5q-14 34 -22.5 74.5t-15.5 88.5q-13 -22 -31.5 -35t-33.5 -16q-17 -3 -30.5 2t-21.5 15.5t-9 25.5t8 32q14 27 43.5 37t63.5 11
q-5 62 -9.5 124t-6.5 126q0 3 4 6.5t9.5 4.5t10.5 -0.5t6 -7.5q0 -32 3.5 -63l7 -62.5t6 -63.5t0.5 -65zM126 174q-13 1 -27 0t-27 -6q-27 -11 -36 -37q-3 -10 -1.5 -20t7.5 -17t16 -10t23 2q17 6 29.5 21.5t19.5 35.5z" />
    <glyph glyph-name="B" unicode="B" horiz-adv-x="278" 
d="M24 -19q-1 5 -1 11.5t-1 21.5q-5 1 -10 1t-10 1q-10 3 -7.5 9.5t9.5 4.5l17 -2l-2 22q-2 41 -5.5 95t-9.5 139q0 5 4.5 7t9.5 2t10 -2.5t6 -5.5q20 9 47 9t51 -6.5t41 -20.5t17 -34q0 -12 -8 -23.5t-19.5 -21.5t-24.5 -18l-22 -14q19 0 42.5 -2.5t44 -9t35 -17.5
t16.5 -28q2 -21 -19 -36.5t-53 -26t-67.5 -16t-62.5 -6.5q1 -11 1.5 -18.5t0.5 -14.5q0 -3 -5 -5t-10 -2.5t-10 1t-5 6.5zM92 141l-21.5 -10.5t-24.5 -9.5q4 -51 6 -93q22 1 51.5 6t56 13t45.5 20t20 28q1 14 -14.5 23.5t-37.5 15t-45 7t-36 0.5zM164 234q0 16 -14 26
t-34 14.5t-42.5 3t-38.5 -9.5q1 -17 4 -50t5 -72q10 4 20.5 6t19.5 3q33 19 56.5 39t23.5 40z" />
    <glyph glyph-name="C" unicode="C" horiz-adv-x="233" 
d="M165 218q0 7 -0.5 17.5t-3 21t-8.5 19.5t-17 14q-17 5 -31.5 -5t-25.5 -27t-18 -38t-10 -37q-10 -41 -5 -79q4 -30 20 -54.5t46 -26.5q21 0 42.5 11t40.5 28t33 37t21 39q4 5 8.5 3.5t3.5 -8.5q-7 -21 -28 -49.5t-49.5 -50t-61 -29t-63.5 14.5q-16 11 -26 30t-14.5 41.5
t-4 47.5t6.5 49q4 18 13.5 42t24.5 43.5t36 30t48 1.5q24 -8 33.5 -31t6.5 -57q-3 -5 -10.5 -4t-7.5 6z" />
    <glyph glyph-name="D" unicode="D" horiz-adv-x="328" 
d="M75 41q-1 5 -1.5 10t-1.5 10q-11 28 -25 57.5t-25 55.5l-9 22.5t-8 25.5t-2.5 25.5t7.5 22.5q5 9 15.5 11.5t22 2.5t22.5 -2.5t19 -3.5q22 -5 57.5 -16.5t70 -28.5t59.5 -39t26 -49q1 -30 -20 -50.5t-51.5 -33.5t-63.5 -20t-56 -10q1 -8 2 -18t0 -17q-1 -4 -5.5 -5.5
t-9.5 -1.5t-9.5 2t-5.5 5q-2 8 -3 15.5t-3 15.5q-5 -1 -9.5 -1h-9.5t-7 7t6 7q4 0 8.5 0.5t9.5 0.5zM280 145q-2 22 -23 41t-50.5 34.5t-62 26.5t-55.5 17q1 -51 5 -100.5t10 -100.5l5 -19q21 3 51 10t57 19t45.5 29.5t17.5 42.5zM59 269q-12 2 -22.5 0.5t-15.5 -7.5
t-4.5 -17t3 -22.5t6.5 -22.5t6 -17q7 -17 16.5 -35t18.5 -37z" />
    <glyph glyph-name="E" unicode="E" horiz-adv-x="259" 
d="M201 278q6 -3 4 -8.5t-9 -3.5q-12 3 -29.5 2t-34.5 -6t-33 -13t-25 -17q-16 -14 -17 -25.5t6.5 -20t21 -13.5t27.5 -7q9 2 21.5 4.5t25 4t24 1t18.5 -4.5q4 -4 3 -8.5t-6 -6.5q-16 -5 -33.5 -6t-34.5 0q-13 0 -28.5 -8.5t-29 -21.5t-23 -28t-9.5 -28.5t12 -23t41 -10.5
q45 -2 93.5 11t91.5 27q7 1 8.5 -8t-5.5 -11q-22 -8 -49.5 -15.5t-57.5 -12.5t-59.5 -7t-55.5 2q-36 5 -46.5 23t-3.5 39.5t27.5 43t45.5 33.5q-30 7 -42.5 19t-13 25t8 26t19.5 22q12 10 31 18t40 13t41.5 5.5t34.5 -5.5z" />
    <glyph glyph-name="F" unicode="F" horiz-adv-x="264" 
d="M-2 66q-8 -2 -9.5 4.5t6.5 8.5l12.5 4t14.5 4q-2 24 -4.5 60.5t0 74t11.5 70.5t29 51q21 19 47 25t51.5 1.5t49 -19.5t39.5 -39q18 -28 17 -53t-15 -48t-38.5 -43t-52 -36t-55.5 -28.5t-50 -20.5q2 -12 3 -23.5t3 -22.5q25 0 50 -1.5t45.5 -8t33.5 -19t16 -33.5
q2 -16 -6.5 -32t-24.5 -28q-20 -17 -46 -21.5t-46 9.5q-11 8 -19 22.5t-14 31t-9.5 33.5l-6.5 31q-7 -1 -14 -1.5t-14 -1.5q-8 0 -9.5 6.5t8.5 7.5l12.5 2t14.5 1l-5 39q-6 -2 -12.5 -3.5t-12.5 -3.5zM239 256q1 25 -10 45.5t-29.5 33.5t-41 18t-43 0t-36.5 -21.5t-22 -46.5
q-6 -27 -8.5 -59t-2.5 -67q1 -16 1.5 -31.5t2.5 -31.5q26 10 57.5 25t60 35t48.5 45t23 55zM180 -29q-2 18 -14.5 28.5t-31 15.5t-39 6t-36.5 1q2 -10 4 -19t5 -18l7 -23.5t10.5 -25t16.5 -19.5t24 -7q21 3 38.5 20.5t15.5 40.5z" />
    <glyph glyph-name="G" unicode="G" horiz-adv-x="317" 
d="M305 52q7 -33 -7.5 -48.5t-40 -21t-57.5 -3.5t-59 5q-16 2 -31 5t-29 7q-4 -8 -10.5 -11t-12 -2.5t-8.5 4.5t2 12q-5 2 -14 5t-17 7t-14 9.5t-5 12.5q1 6 10 11t22 9.5t26.5 8l24.5 6.5q8 20 14.5 41t9.5 42q-21 -3 -35 7.5t-22 28.5t-10.5 40.5t-0.5 43.5q3 40 22 43
q15 3 28 -8.5t22.5 -32.5t14.5 -47t4 -51q34 15 55.5 44t40.5 61q-1 8 0 17.5t4.5 17t10.5 11.5t19 0q6 -3 7 -9.5t-1.5 -14.5t-6 -16t-5.5 -12q1 -28 7 -55t13.5 -54.5l15.5 -55.5t13 -57zM108 57q-5 -12 -9.5 -24t-11.5 -24q13 -4 29.5 -7.5t34.5 -4.5q25 -2 48 -2.5
t40.5 4.5t27.5 16.5t8 34.5q-2 22 -8 43l-13 44.5t-14 52.5t-11 68q-8 -14 -18.5 -29.5t-23 -29.5t-27 -25t-29.5 -17l-6 -41.5t-11 -43.5l53 14.5l53 14.5q7 1 8.5 -5t-5.5 -8q-32 -8 -57.5 -15.5t-57.5 -15.5zM110 169q1 13 0 33t-6 40.5t-13 36.5t-20 20q-5 -3 -7 -14
t-2 -24t1 -25t2 -18q1 -8 4.5 -17.5t9 -17.5t13.5 -12.5t18 -1.5zM78 52q-4 -1 -13 -3.5t-18 -5.5t-16.5 -6t-8.5 -6q-2 -2 2.5 -5t11 -5.5l12.5 -5t9 -3.5q5 8 10 17t11 23z" />
    <glyph glyph-name="H" unicode="H" horiz-adv-x="354" 
d="M304 291q-8 -41 -9.5 -82t3.5 -83l31 4l31 4q7 0 7 -5.5t-6 -7.5q-15 -3 -30.5 -5l-31.5 -4q5 -31 13 -61.5t22 -59.5q2 -6 -6.5 -9.5t-11.5 2.5q-29 58 -41 126q-35 -4 -65 -4.5t-60 -0.5q-3 -38 -4 -60t0 -40q-1 -6 -13 -8t-16 5v2q-1 26 -0.5 50.5t2.5 50.5
q-27 3 -58.5 10t-47.5 22q-9 10 -10.5 23t11.5 30q8 12 21.5 25t29 25t31.5 21t28 12q15 4 25 -3t11 -27q0 -7 -0.5 -15.5t-1.5 -22.5t-3 -34t-4 -50q27 -2 57 -1.5t64 3.5q-7 42 -7 84.5t8 83.5q1 4 6 6t11 2t10.5 -2t3.5 -6zM28 175q-7 -16 7 -26q15 -13 39.5 -18.5
t45.5 -7.5q4 49 6 75.5t2.5 39t-0.5 15t-2 3.5q-6 2 -20.5 -5.5t-30 -20.5t-29 -28t-18.5 -27z" />
    <glyph glyph-name="I" unicode="I" horiz-adv-x="321" 
d="M258 268q13 -18 16.5 -43.5t0 -53t-13.5 -55.5t-25 -51l3 -3l21 -27l17 -22q3 -4 2 -8.5t-4.5 -8t-8 -4.5t-8.5 2l-2 2q-8 8 -17 19l-20 24q-23 -29 -53 -40.5t-59.5 -7.5t-55.5 22t-39 50q-5 6 0 9.5t10 -1.5q13 -29 37 -45t51 -18.5t54 9t45 38.5l-33 44.5t-33.5 51
t-24 52t-3.5 48.5q6 25 23 39t38.5 16.5t44 -7t37.5 -31.5zM257 206q-1 15 -5 29.5t-11.5 27t-19 21t-26.5 10.5q-22 2 -35.5 -11t-15.5 -34q-2 -20 4 -40.5t17.5 -41.5t27 -42.5l32.5 -43.5q14 23 24 57t8 68z" />
    <glyph glyph-name="J" unicode="J" horiz-adv-x="299" 
d="M6 104q4 19 27.5 30t55.5 15.5t65.5 5.5t56.5 1q-4 13 -7 25.5t-7 26.5q-6 27 -9.5 54t4.5 47q1 3 6 5t10.5 2t9.5 -2.5t3 -7.5q-3 -8 -3 -13q-5 -28 4.5 -63l19.5 -74q8 -1 8.5 -6t-4.5 -7q4 -19 8 -40t5.5 -41.5t-0.5 -38t-9 -29.5q-10 -16 -32.5 -19.5t-51 2.5
t-58.5 20t-53.5 31.5t-38 37.5t-10.5 38zM226 87q-2 14 -4.5 27.5t-6.5 27.5q-21 -1 -51.5 -2t-59.5 -5t-50.5 -11.5t-24.5 -21.5q-3 -18 15 -38t45 -37t58.5 -28t55.5 -11q6 1 10.5 3t8.5 7q9 14 8.5 38.5t-4.5 50.5z" />
    <glyph glyph-name="K" unicode="K" horiz-adv-x="340" 
d="M82 288q1 -33 1.5 -65t2.5 -65l20 3q26 19 44 39.5t38 48.5q7 10 14.5 3.5t3.5 -12.5q-15 -20 -32 -39t-42 -39q27 0 59.5 -11t62 -30t51.5 -45.5t30 -58.5q2 -8 -4.5 -9.5t-8.5 6.5q-10 31 -32.5 55.5t-51.5 40.5t-62.5 23.5t-65.5 6.5q-10 -7 -22 -12l2 -57.5t1 -58.5
q0 -3 -4 -5t-9 -2.5t-10 0.5t-6 5v2q-1 26 -1.5 51.5t-2.5 51.5q-3 -2 -11 -5.5t-17 -5.5t-16.5 -1.5t-8.5 6.5q0 6 3 11q7 9 22 17t27 13q-2 35 -3 69l-2 69q1 5 5.5 7t10 1.5t10 -3t4.5 -5.5zM57 132q-5 -2 -14 -6t-9 -5t9 3.5t14 6.5v1z" />
    <glyph glyph-name="L" unicode="L" horiz-adv-x="374" 
d="M41 169q-7 0 -7.5 9t6.5 10q30 2 58.5 4.5t58.5 7.5q-3 13 -6 34t-2 42.5t7 41t21 30.5q16 11 46 10t59.5 -11.5t51.5 -29t22 -42.5q-1 -19 -18.5 -33t-43 -24t-54 -17l-50.5 -12l8 -42.5t7 -42.5q48 -2 95 -6t95 -5q7 -1 6.5 -7.5t-7.5 -6.5q-48 2 -94 5.5t-94 6.5
q4 -30 3 -57q-3 -35 -25 -49.5t-57 -11.5q-21 1 -44 9.5t-41.5 21t-29 29.5t-6.5 37q3 10 11 17t19 11t22.5 6t20.5 3q23 2 45 1t50 -2q-1 6 -3 16.5t-3.5 21.5t-3.5 22t-3 17q-32 -5 -62 -8.5t-58 -5.5zM333 274q1 18 -13.5 32.5t-35 24t-43 12t-37.5 -4.5
q-17 -8 -21.5 -29.5t-2.5 -44.5q1 -14 2.5 -28.5t4.5 -30.5q18 4 42.5 10.5t47.5 15t39.5 19t16.5 24.5zM161 -6q10 8 14.5 20t5 25.5t-1 27.5t-3.5 26q-14 0 -36.5 1.5t-45.5 0t-41.5 -7.5t-23.5 -19q-6 -16 8.5 -34t37 -31t47 -17t39.5 8z" />
    <glyph glyph-name="O" unicode="O" horiz-adv-x="287" 
d="M31 218q-6 22 -1.5 44.5t24.5 29.5q14 5 30.5 2t32.5 -10t30.5 -16.5t25.5 -18.5q14 -11 29.5 -25t28.5 -31t20.5 -36t6.5 -39q-2 -30 -19.5 -52t-42.5 -35.5t-54.5 -18t-54.5 2.5q-22 6 -39 24t-25.5 45.5t-7.5 61.5t16 72zM229 152q-25 -5 -50.5 -7.5t-49 0.5
t-44.5 11.5t-36 26.5q-4 -15 -5.5 -33t1 -35.5t9 -34t18.5 -29.5q19 -21 47 -24t53.5 7.5t44 32.5t19.5 51q0 19 -7 34zM138 257q-19 2 -42 -1.5t-38 -18.5q3 -30 19 -47t39.5 -24.5t51.5 -6.5t55 6q-14 26 -35 50.5t-50 41.5zM113 269l-17 7.5t-15 3.5t-13 -6t-9 -19
q11 8 25.5 11t28.5 3z" />
    <glyph glyph-name="P" unicode="P" horiz-adv-x="261" 
d="M36 -29q-11 70 -18 124.5t-11.5 96.5t-6 73t-0.5 54q1 6 5.5 8t10 1t9.5 -4.5t4 -6.5q-1 -11 -0.5 -21.5t1.5 -21.5q8 10 18.5 17.5t21.5 9.5q26 6 59.5 -2.5t60.5 -28t41 -48.5t1 -63q-8 -19 -28.5 -33t-46.5 -23.5t-54.5 -14.5t-50.5 -7l14 -111q0 -3 -4.5 -6
t-9.5 -3.5t-10 2t-6 8.5zM74 285q-25 -7 -38 -30q0 -14 1.5 -35.5t3.5 -44t4.5 -44.5t4.5 -37q28 3 58 11t54 20.5t39 30t13 41.5q-2 21 -17 40t-36 31.5t-44.5 17.5t-42.5 -1z" />
    <glyph glyph-name="Q" unicode="Q" horiz-adv-x="287" 
d="M37 217q-3 14 -5 29t0.5 28t9.5 23t21 15q19 7 43.5 -3.5t48 -28.5t43.5 -38.5t30 -34.5q27 -38 26 -79t-33 -79l-11 -10.5l-12 -10.5q26 -19 50 -41.5l47 -45.5q2 -7 -4.5 -9.5t-11.5 0.5q-26 26 -49.5 47t-48.5 37q-29 -17 -61.5 -21t-56.5 10t-36 40.5t-13.5 57
t5 61.5t18.5 53zM66 216q6 -25 23.5 -48.5t41 -38.5t50.5 -18t53 13q1 25 -8 47.5t-24 42t-34.5 35.5t-38.5 30q-17 -8 -31.5 -21.5t-31.5 -41.5zM117 49q-10 5 -5.5 13t14.5 6q31 -11 60 -31q19 14 30.5 32.5t17.5 37.5q-26 -11 -53 -10.5t-51 10t-44.5 28t-33.5 42.5
q-8 -23 -10 -47.5t1.5 -46.5t14 -39.5t28.5 -26.5q20 -11 40.5 -7t40.5 15q-12 7 -24 13t-26 11zM107 291q-10 7 -18.5 7t-15 -6t-10 -15.5t-3.5 -21.5q11 14 22.5 22.5t24.5 13.5z" />
    <glyph glyph-name="R" unicode="R" horiz-adv-x="318" 
d="M84 -1v54t1 54q-5 -2 -16 -5.5t-22 -6t-20.5 -2.5t-11.5 6q-1 7 6.5 12.5t18.5 9t23.5 5l21.5 2.5v43l1 79q-39 -8 -71 -26q-5 -2 -8.5 2t1.5 9q31 19 78 28v55q0 6 5 8.5t10 2t10 -3t5 -7.5v-50q20 1 44 -1t44 -9.5t33 -20.5t11 -33q-2 -13 -13 -24.5t-26.5 -21t-32 -17
t-28.5 -12.5q29 -7 54 -19t46.5 -25.5t40.5 -27l36 -25.5q5 -5 2.5 -10t-9.5 -2l-44.5 29.5t-49.5 28.5t-53.5 21.5t-55.5 10.5l-1 -111q-1 -5 -5.5 -7.5t-10 -2.5t-10 2.5t-4.5 7.5zM217 204q1 18 -8.5 28.5t-25 16t-34 6.5t-33.5 0l-1 -125l29 12.5t32.5 17t27.5 20.5
t13 24z" />
    <glyph glyph-name="S" unicode="S" horiz-adv-x="313" 
d="M53 253q1 -9 11.5 -20.5t28 -25t40 -28.5l46.5 -31l18 9q7 4 10 -1.5t-2 -9.5l-13 -7q43 -28 75.5 -55.5t36.5 -49.5q2 -17 -16.5 -29.5t-48.5 -21t-66 -11.5t-69.5 -1t-59 9.5t-32.5 20.5q-11 19 1.5 38.5t35.5 36.5t50.5 31.5t47.5 23.5l-47 30.5t-41 31.5t-29 31.5
t-11 30.5q0 18 12 28.5t30 15.5t41 4.5t45 -4.5t41 -10t29 -13q5 -3 2 -8.5t-8 -3.5q-23 10 -51.5 16.5t-52.5 6.5t-40 -7.5t-14 -26.5zM26 10q4 -10 23.5 -14.5t46.5 -5t57.5 2.5t55.5 8.5t42 13.5t16 18q-2 17 -33 40t-73 49l-41 -21t-48 -28t-37.5 -31.5t-8.5 -31.5z" />
    <glyph glyph-name="T" unicode="T" horiz-adv-x="351" 
d="M10 279q40 9 84 14t87.5 7.5t84 3t74.5 0.5q7 0 7 -5.5t-6 -7.5q-39 -2 -73 -4.5l-78 -5.5q-4 -39 -5 -78t-0.5 -75.5t2 -69.5t3.5 -58q1 -7 -6.5 -8t-11.5 4q-9 57 -13.5 128t-3.5 153l-73 -8t-68 -14q-9 -1 -10 10t6 14z" />
    <glyph glyph-name="U" unicode="U" horiz-adv-x="333" 
d="M5 181q-5 33 6 54.5t28 26.5q20 5 42.5 -9.5t28.5 -53.5q4 -28 5.5 -58t6.5 -59q3 -11 6 -23.5t7 -23t9.5 -17.5t13.5 -7q7 0 15.5 8.5t15.5 19.5t12.5 22l8.5 17q24 52 36 108.5t14 113.5q0 2 1 3q1 3 6 4t10 0t9 -3t4 -4q0 -18 -0.5 -52t0 -74.5t3.5 -80.5t12 -70
q5 -15 14 -28t24 -20q5 -3 2.5 -8t-7.5 -5q-28 6 -43.5 30.5t-20.5 50.5q-7 32 -9 65l-4 66q-6 -23 -16 -52.5t-23 -56.5t-29.5 -46.5t-37.5 -21.5q-13 -1 -23 4.5t-17 16t-12 24t-8 28.5q-17 2 -32 12t-27 25.5t-20 34.5t-11 39zM80 196q-3 27 -13.5 38.5t-21 9t-18 -18
t-4.5 -41.5q1 -16 7 -32.5t15 -30.5t21 -24t26 -13q-5 26 -7 55t-5 57z" />
    <glyph glyph-name="W" unicode="W" horiz-adv-x="437" 
d="M192 57l11.5 67.5t16.5 74.5q3 10 6.5 24.5t9.5 28.5t14.5 24t21.5 10q10 0 17 -7t12 -17.5t8.5 -22t5.5 -21.5l11 -46l12 -49.5t12.5 -46.5t14.5 -35q1 -3 4 -6.5t6 -5t5.5 0t4.5 9.5q4 22 1.5 57t0 73.5t15 76t47.5 65.5q6 5 11 0.5t0 -9.5q-29 -27 -38 -60.5t-10 -69
t1 -71t-5 -66.5q-5 -20 -14 -26.5t-20 -4t-22 13t-18 25.5q-12 24 -20.5 55.5t-15.5 62l-13.5 56.5t-13.5 41q-3 6 -7.5 6t-7.5 -6q-9 -21 -17 -54t-15 -67.5t-12.5 -67t-11.5 -51.5q-2 -6 -6.5 -10.5t-10.5 -6t-12.5 1.5t-11.5 13q-10 20 -18 49t-17 71q-46 7 -77.5 31
t-39.5 75q-3 18 2 34t15.5 26.5t26 14.5t34.5 -2q16 -5 26 -17.5t16 -29t9.5 -34.5l6.5 -33q2 -14 4.5 -28t5.5 -28h11q8 -1 7 -7.5t-8 -6.5l-7 1l4.5 -26t11.5 -48q2 -6 4.5 -12t5 -8t5.5 2t5 17zM21 235q5 -22 15.5 -37t24 -24.5t29.5 -15t32 -8.5q-2 12 -5 35.5
t-8.5 47.5t-14.5 43.5t-23 24.5q-14 4 -24.5 0.5t-17.5 -13t-9 -23.5t1 -30z" />
    <glyph glyph-name="X" unicode="X" horiz-adv-x="263" 
d="M98 2q17 23 30 44.5t24 43.5q-27 42 -53 88l-54 97q-2 5 0.5 9t7 5.5t10.5 0t11 -8.5l44 -81.5l46 -81.5q17 43 24 89.5t10 103.5q1 5 5.5 7.5t10 2.5t10 -2.5t4.5 -7.5q-3 -63 -15 -114t-37 -100l29.5 -47l33.5 -52q2 -6 -3.5 -10t-10.5 0q-17 20 -32 41l-30 44
q-11 -20 -24 -39.5t-28 -39.5q-4 -4 -9.5 -0.5t-3.5 8.5z" />
    <glyph glyph-name="Y" unicode="Y" horiz-adv-x="218" 
d="M17 260q1 11 13 9t13 -9q0 -8 2.5 -30.5t7.5 -46.5t14 -42.5t22 -18.5q10 3 17 12t11.5 20t7 23t4.5 20q-1 24 1 47t7 45q4 11 16 9t14 -7q5 -21 2.5 -45t-10.5 -47q2 -42 10.5 -84l16.5 -84q14 1 31.5 2.5t36.5 1.5q7 0 7.5 -6.5t-7.5 -6.5l-34.5 -2t-30.5 -2l7 -52
t4 -61t-7 -59.5t-26 -47.5q-17 -17 -44.5 -25t-58.5 -7.5t-62.5 9t-56.5 25t-40 40.5t-13 55q3 37 31.5 61t69 38t85 21t79.5 12l-11 57t-11 59q-11 -18 -28 -30t-39 1q-13 7 -22.5 25.5t-15.5 40.5t-9 44t-4 36zM-86 -108q-3 -28 13 -50.5t42 -37.5t58.5 -22t62.5 -3
q34 8 54.5 31.5t25.5 68.5q4 32 -0.5 67t-10.5 68q-28 -3 -68.5 -9t-78.5 -19.5t-66.5 -36t-31.5 -57.5z" />
    <glyph glyph-name="Z" unicode="Z" horiz-adv-x="249" 
d="M18 33q-6 15 2 32.5t22.5 36t33 37.5l34.5 36.5t26.5 34t8.5 30.5q-1 10 -14 15t-30 6.5t-35.5 1t-30.5 -1.5q-8 -1 -8 4.5t8 7.5q17 3 40 5t44 -0.5t37 -10.5t19 -23q2 -16 -6.5 -33.5t-23 -36.5t-31.5 -37t-31.5 -35t-23.5 -30.5t-7 -23.5t26.5 -10.5t55.5 3t60.5 8.5
l41.5 7q7 1 8.5 -6.5t-6.5 -8.5l-64 -12t-69 -11t-57.5 -1.5t-29.5 16.5z" />
    <glyph glyph-name="zero" unicode="0" horiz-adv-x="168" 
d="M22 123q0 14 1.5 36t7 43t15.5 36t26 16q21 1 35 -12.5t22 -34t12 -45t5 -44.5q1 -12 -0.5 -31t-7.5 -36.5t-16.5 -31t-27.5 -14.5q-21 -2 -34.5 10.5t-22 31.5t-12 40t-3.5 36zM125 100q0 23 -1.5 46t-5.5 42.5t-11 33t-19 17.5q-11 3 -18 -10.5t-11 -33t-5.5 -40.5
t-1.5 -33q1 -12 3.5 -30t8 -35t14 -28.5t20.5 -9.5q9 3 14.5 12t8.5 20.5t3.5 24.5t0.5 24z" />
    <glyph glyph-name="one" unicode="1" horiz-adv-x="99" 
d="M32 258q1 4 5.5 5.5t10 1.5t10 -1.5t4.5 -5.5l2 -132.5t1 -133.5q-1 -6 -11.5 -6t-12.5 6q0 67 -4 133.5t-5 132.5z" />
    <glyph glyph-name="two" unicode="2" horiz-adv-x="211" 
d="M29 148q-2 -7 -8 -6t-5 8q-1 8 4 21t13.5 27t20 26.5t24 20t25 8t23.5 -10.5q9 -9 6.5 -25t-7.5 -26q-7 -17 -21 -42.5t-26 -51t-18.5 -48t1.5 -34.5q1 -4 8 -5q12 1 29 4.5l34.5 7t34.5 6.5t31 4q7 -1 7 -7.5t-6 -8.5q-29 -2 -57.5 -7.5t-60.5 -9.5q-18 -2 -30.5 0
t-19.5 10q-8 9 -5.5 25t9.5 33.5t16 34t14 27.5l14 28t14.5 31.5t9 28t-3.5 17.5q-8 7 -18.5 -1t-21 -22.5t-19 -32t-11.5 -30.5z" />
    <glyph glyph-name="three" unicode="3" horiz-adv-x="271" 
d="M39 202l-7 -4q-6 0 -6 8q0 12 10 20t24 13t28.5 7t23.5 2q8 0 19 -1.5t21 -5.5t17 -11t7 -18q0 -9 -6 -16.5t-14.5 -13.5t-18 -11l-15.5 -8l9 1q14 0 36 -1t42.5 -6.5t35.5 -16.5t15 -31t-20.5 -36.5t-48 -29.5t-56 -20t-44.5 -7q-22 0 -35.5 11.5t-13.5 34.5q0 5 7 7
q4 0 5.5 -6.5t4.5 -14t8.5 -13.5t17.5 -6t36 7.5t48 19t41.5 26t17.5 28.5q0 13 -13.5 20t-31.5 10.5t-35.5 4t-26.5 0.5q-20 0 -34 -3.5t-25 -7t-19.5 -7t-17.5 -3.5q-2 0 -5 1t-3 5q0 7 20 15l44.5 18t44.5 22.5t20 28.5q0 5 -5 9t-11.5 6.5t-13.5 3.5t-11 1
q-8 0 -18.5 -1.5t-20.5 -5.5t-18 -10t-9 -15z" />
    <glyph glyph-name="four" unicode="4" horiz-adv-x="185" 
d="M97 265q0 4 4 7.5t9 5t10 0.5t5 -7q1 -12 2 -32.5l2 -43t2 -42.5t1 -31q26 3 38 12q6 3 9 -2t-2 -10q-5 -4 -17 -8t-28 -6q2 -29 2 -56.5v-56.5q0 -5 -4.5 -8t-10 -3t-10 3t-5.5 8v55.5t-1 54.5q-27 -2 -52.5 -2.5t-32.5 4.5q-3 2 -5.5 7t-0.5 9q38 38 62 70.5t23 71.5z
M26 119q14 -2 35.5 -1.5t41.5 2.5q0 6 -0.5 16t-0.5 21t-0.5 21.5t-0.5 18.5q-19 -26 -39.5 -45.5t-35.5 -32.5z" />
    <glyph glyph-name="five" unicode="5" horiz-adv-x="215" 
d="M131 241q7 -1 6.5 -9t-7.5 -8q-12 0 -23.5 0.5t-22 0t-18 -3.5t-10.5 -10t-4 -19.5t-0.5 -25.5t2.5 -23.5t5 -13.5q4 -5 16 -5.5t27.5 0l32.5 1t30.5 -3t23 -13t9.5 -27.5q0 -14 -12 -27t-30 -23t-39.5 -16.5t-40.5 -6.5q-22 0 -36 11t-16 31q-1 6 3.5 9t8.5 -2
q4 -15 12 -23.5t25 -8.5q16 0 33 5t30.5 12.5t22 17.5t8.5 19q-1 16 -17 20.5t-37.5 5.5l-43.5 2t-35 10q-5 4 -7.5 17.5t-3.5 29.5t0 30.5t5 21.5q5 11 15.5 16.5t24 7t29.5 1.5h34z" />
    <glyph glyph-name="six" unicode="6" horiz-adv-x="179" 
d="M44 266q0 6 4.5 7.5t10 0.5t10 -4.5t3.5 -6.5q-3 -21 -7 -44.5t-7.5 -47.5t-5.5 -48t1 -46q2 18 7.5 36.5t14.5 32t22 20.5t30 2q18 -5 26.5 -23.5t9.5 -41t-5.5 -45.5t-18.5 -37q-14 -16 -30 -22t-31.5 -3t-28 15t-19.5 32q-8 25 -8 56.5t4.5 62t10 58t7.5 45.5v1z
M135 131q-5 15 -17 21t-23 -5q-8 -8 -13.5 -22t-9.5 -30t-6 -32t-2 -28q8 -24 27 -24.5t33 19.5q13 20 15 50t-4 51z" />
    <glyph glyph-name="seven" unicode="7" horiz-adv-x="155" 
d="M14 228q-8 -2 -9 4.5t6 8.5q29 4 54 6.5t53 2.5q11 -1 19.5 -4t5.5 -18q-3 -16 -11 -41.5t-18.5 -56l-22.5 -63l-22 -60.5q-2 -4 -6 -5t-8 0t-7 3t-2 5l20.5 64l22 69t17.5 58.5t6 32.5q-1 1 -11.5 0.5t-25.5 -1.5t-31.5 -2.5t-29.5 -2.5z" />
    <glyph glyph-name="eight" unicode="8" horiz-adv-x="176" 
d="M101 270q17 -3 28.5 -11.5t11.5 -27.5q-1 -21 -11 -48t-21 -52q9 -6 20 -15t19 -18.5t11 -20.5t-2 -22q-6 -12 -19 -20.5t-28.5 -12.5t-31.5 -4t-27 6q-8 5 -9 13.5t1.5 17.5t6.5 17.5t7 13.5q5 12 11 24t11 25q-18 11 -35 23.5t-25 28.5q-7 18 2 28.5t25 15.5t34 5.5
t29 -2.5v16l-14 7q-5 5 -3 9.5t9 3.5zM142 68q1 6 -2.5 13t-9.5 14t-13 13t-14 11q-10 -20 -19.5 -42t-14.5 -42q0 -2 5 -4q9 -2 20.5 0.5t21.5 8t17 12.5t9 16zM85 146q8 18 14.5 36.5t8.5 36.5q-23 7 -44 0.5t-26 -18.5q-3 -7 2 -15t13 -15.5t17 -14z" />
    <glyph glyph-name="nine" unicode="9" horiz-adv-x="153" 
d="M126 233q9 -8 12 -23q1 -6 -4.5 -7.5t-8.5 3.5q-1 -54 0 -99t1 -98q0 -6 -4.5 -8.5t-10 -2.5t-10 3t-4.5 8q-1 23 -1.5 62t-0.5 80q-10 -9 -22.5 -15t-24 -6t-20.5 8.5t-11 27.5q-2 15 5 28.5t19 24t27 17t29 6.5q0 11 0.5 20t0.5 15q1 3 5.5 5.5t9.5 3t9 -1t4 -6.5v-45z
M57 148q11 0 21 6.5t18 17.5v56q-25 -4 -43 -23t-14 -41q3 -16 18 -16z" />
    <glyph glyph-name="exclam" unicode="!" horiz-adv-x="121" 
d="M58 254q0 3 4.5 5t10 2t10 -2t5.5 -5l-2 -99l-2 -99q0 -4 -4 -6t-8 -2t-7.5 2t-3.5 6q1 50 -1.5 99t-1.5 99zM71 25q10 0 11.5 -5.5t-10.5 -7.5q-11 -2 -12 5t11 8z" />
    <glyph glyph-name="question" unicode="?" horiz-adv-x="158" 
d="M24 228q-4 -6 -9 -3.5t-3 9.5q5 9 24 19t40.5 15t40.5 2t23 -20q4 -16 -0.5 -38.5t-12.5 -46.5t-16.5 -47t-11.5 -41q-2 -7 -10.5 -6t-7.5 8q3 17 10 39.5t13 44.5t8.5 41.5t-1.5 31.5q-5 11 -16.5 14t-25 0.5t-26 -8.5t-19.5 -14zM85 43q8 0 11 -6.5t-10 -8.5
q-7 -1 -10 1.5t-3 5.5t3 5.5t9 2.5z" />
    <glyph glyph-name="percent" unicode="%" horiz-adv-x="299" 
d="M26 120q-11 6 -14 20t1 27.5t13.5 22t22.5 4.5l21.5 11t19 9.5t20 9l24.5 10.5q20 8 40 11t29 -7q8 -9 7 -23t-6 -31t-12.5 -37t-11.5 -41q-8 -36 -8 -59.5t5 -41.5q3 -10 -4.5 -11t-11.5 9q-11 29 -10.5 57t5.5 59q3 18 9.5 41t10.5 40t-2 21t-17 2q-15 -2 -42.5 -13
t-55.5 -27q12 -7 20.5 -16t10.5 -18q1 -10 -6 -17.5t-17.5 -11.5t-22 -4t-18.5 4zM285 100q-2 -17 -17.5 -27t-32.5 -4q-10 3 -15.5 12.5t-6.5 21.5t3.5 24.5t14.5 21.5q5 5 9.5 2t4.5 -6q14 -2 27.5 -15t12.5 -30zM26 163q0 -1 -0.5 -1.5t-0.5 -1.5q-4 -14 1 -21t13.5 -9
t17 0t12.5 6.5t1 9.5t-19 10zM252 84q16 0 19 14q2 12 -9 22t-21 12q-3 -6 -4 -14t0.5 -15.5t5 -13t9.5 -5.5z" />
    <glyph glyph-name="ampersand" unicode="&#x26;" horiz-adv-x="286" 
d="M203 176q6 -2 4 -7.5t-8 -3.5q-14 2 -37.5 0.5t-46.5 -7.5q-24 -8 -20 -18.5t27 -14.5q25 5 50 8t51 5q5 0 6 -3.5t-1 -7.5q-20 -13 -47.5 -15.5t-52.5 -2.5q-10 -2 -23 -8t-24.5 -14t-18.5 -17.5t-4 -18.5q3 -8 17.5 -12.5t34.5 -6.5h4q31 2 68 10t83 30q8 2 10.5 -4.5
t-4.5 -10.5q-33 -17 -75 -28.5t-80 -15t-66 4t-33 28.5q-3 11 2 22t14 20t20.5 16t20.5 11q-21 6 -23.5 14.5t5.5 17t22.5 15.5t26.5 10q25 7 53 8t45 -4zM163 -6q-2 -10 -10 -10t-11 10q2 11 10.5 11t10.5 -11zM138 218q-2 -8 -8.5 -8t-8.5 8v2q2 9 9 9t8 -9v-2z" />
    <glyph glyph-name="asterisk" unicode="*" horiz-adv-x="156" 
d="M61 222q1 7 9 7t9 -7l4 -40q8 8 16 15t16 15q6 4 9.5 -3t-0.5 -12l-15.5 -15t-15.5 -13l42 -17q5 -2 4 -10t-8 -8q-21 6 -44 18q2 -11 3.5 -23t3.5 -25q1 -7 -8 -8.5t-11 6.5q-3 10 -3.5 25t-1.5 23q-10 -8 -19.5 -16.5t-19.5 -18.5q-3 -2 -5.5 -1t-4 4t-2 6.5t2.5 6.5
q10 10 19.5 17l20.5 15l-43 21q-5 5 -2.5 12t8.5 6l18.5 -9.5l21.5 -11.5q-2 11 -3 22t-1 19z" />
    <glyph glyph-name="slash" unicode="/" horiz-adv-x="108" 
d="M70 325q1 4 6 5t10 0.5t9 -3t3 -5.5l-63 -343q-3 -5 -13.5 -4t-9.5 7z" />
    <glyph glyph-name="period" unicode="." horiz-adv-x="50" 
d="M35 18q2 -5 -3.5 -9.5t-10.5 -2.5t-6.5 6t3.5 9t10 3.5t7 -6.5z" />
    <glyph glyph-name="comma" unicode="," horiz-adv-x="56" 
d="M15 9q-4 4 -3.5 8t3.5 7t7.5 4t8.5 -2q10 -6 12.5 -23.5t-11.5 -46.5q-2 -6 -7 -4t-3 7q5 14 4 26.5t-11 23.5z" />
    <glyph glyph-name="hyphen" unicode="-" horiz-adv-x="139" 
d="M24 136q-3 0 -5 2.5t-2 6t1.5 7t4.5 3.5q23 2 46.5 0t46.5 -1q7 1 7 -6t-6 -7q-21 -2 -45.5 -3z" />
    <glyph glyph-name="equal" unicode="=" horiz-adv-x="156" 
d="M24 106q-7 0 -7.5 8.5t4.5 10.5q28 5 56 3.5t57 -1.5q7 -1 6.5 -7t-8.5 -6q-27 0 -54.5 -1.5t-53.5 -6.5zM27 152q-3 0 -5 2.5t-2 6t1.5 7t4.5 3.5l93 -1q7 1 7.5 -6t-5.5 -7q-22 -2 -46.5 -3z" />
    <glyph glyph-name="less" unicode="&#x3c;" 
d="M118 196q6 4 9 -1t-2 -10q-9 -6 -23 -18.5t-27 -26.5t-22.5 -26.5t-8.5 -18.5q0 -4 11 -10t28.5 -12t37.5 -11.5t38 -9.5q5 -3 4 -8.5t-7 -5.5q-20 4 -45.5 10t-48 13.5t-37.5 16.5t-14 18q1 7 10.5 18.5t24 25.5t33.5 28.5t39 27.5z" />
    <glyph glyph-name="greater" unicode="&#x3e;" horiz-adv-x="152" 
d="M30 178q-6 3 -5 8.5t9 4.5q11 -4 29 -12t35.5 -18.5t30 -22t12.5 -21.5q0 -11 -12 -23t-29 -24t-37 -23.5l-35 -20.5q-3 -2 -6 -0.5t-4.5 4t-1.5 6t5 5.5q11 6 26 16t29 20.5t23.5 20.5t9.5 17t-8 16t-19.5 18t-25.5 16.5t-26 12.5z" />
    <glyph glyph-name="backslash" unicode="\" horiz-adv-x="124" 
d="M118 -17q0 -4 -3.5 -6t-8.5 -3t-10 0t-6 4l-82 336q-1 3 3 5.5t9.5 3.5t10.5 0t6 -5z" />
    <glyph glyph-name="bracketleft" unicode="[" horiz-adv-x="145" 
d="M116 369q4 0 2 -5.5t-7 -6.5q-4 0 -13.5 -0.5t-19.5 -2t-18.5 -4.5t-9.5 -8q-5 -22 -7 -55t-1.5 -70t2.5 -74.5t5 -69.5t6.5 -55t7.5 -30q3 -7 9.5 -7.5t14.5 1.5t16.5 6t17.5 6q6 2 7 -7.5t-5 -11.5l-25 -7t-27.5 -3.5t-24.5 6.5t-15 23q-3 11 -6.5 38t-6.5 62.5t-5 75
t-1.5 75.5t4 65t10.5 44q2 5 13 8.5t24.5 5.5t28 2t24.5 -1z" />
    <glyph glyph-name="bracketright" unicode="]" horiz-adv-x="159" 
d="M42 369l48 3t24 -10q9 -12 13 -44.5t4.5 -75t-1.5 -89.5t-5 -87t-6.5 -67t-4.5 -30q-5 -11 -19.5 -12.5t-31 1t-31.5 6.5l-22 6q-5 3 -4 10.5t8 8.5q10 -3 21 -7t21.5 -7t18 -3.5t10.5 4.5q2 4 5 29.5t5.5 63t4.5 82t1.5 85t-3 72.5t-9.5 45q-2 4 -4.5 5.5t-7 1t-12.5 -2
t-22 -2.5q-7 0 -7.5 6.5t6.5 7.5z" />
    <glyph glyph-name="parenleft" unicode="(" horiz-adv-x="142" 
d="M108 334q5 4 9.5 1t0.5 -10q-15 -18 -29 -46t-24.5 -59.5t-15 -64t-1.5 -61.5q4 -40 19.5 -65.5t54.5 -45.5q4 -3 1 -11t-7 -5q-36 17 -65.5 48.5t-33.5 78.5q-2 28 5.5 61t20.5 65.5t30.5 62.5t34.5 51z" />
    <glyph glyph-name="parenright" unicode=")" horiz-adv-x="162" 
d="M8 319q-5 5 -1.5 10t9.5 0q41 -32 77 -82t49 -108q7 -30 -1.5 -57.5t-25.5 -49.5t-40.5 -38.5t-47.5 -24.5q-3 -2 -5 0.5t-2.5 6.5t0.5 7.5t4 4.5q41 14 65 45.5t26 75.5q1 27 -7.5 56.5t-23.5 57.5t-35 53t-41 43z" />
    <glyph glyph-name="colon" unicode=":" horiz-adv-x="55" 
d="M41 59q-3 -8 -11.5 -8t-10.5 8v3q2 11 11 11t11 -11v-3zM34 162q-2 -9 -10 -9t-10 9v2q1 10 9.5 10t10.5 -10v-2z" />
    <glyph glyph-name="semicolon" unicode=";" horiz-adv-x="55" 
d="M35 162q-2 -9 -10.5 -9t-10.5 9v1q2 11 10.5 11t10.5 -11v-1zM18 54q-6 8 2 14.5t16 1.5q9 -7 10.5 -25t-15.5 -46q-4 -5 -8.5 -2.5t-1.5 7.5q14 27 -3 50z" />
    <glyph glyph-name="at" unicode="@" horiz-adv-x="367" 
d="M229 157q3 -3 5.5 -9.5t-3.5 -10.5l5 -25.5t7.5 -30.5t10.5 -26t15 -11q23 0 38 27t14 65q-1 28 -13.5 48.5t-32 34t-42 19.5t-43.5 4q-27 -2 -51.5 -13t-44 -29t-32.5 -42.5t-15 -53.5q-2 -44 11.5 -70t39.5 -37q27 -11 62.5 -5t78.5 17q7 0 8.5 -8t-3.5 -11
q-48 -11 -92 -15.5t-84 17.5q-30 17 -41.5 49t-9.5 64q3 31 18 57.5t39 47t54 32.5t62 15q29 3 58 -4.5t52.5 -23.5t37.5 -39.5t13 -53.5q-2 -45 -26 -75t-59 -30q-14 0 -24 8.5t-17.5 21t-12 27t-7.5 26.5q-6 -11 -15.5 -21.5t-19 -17t-18.5 -8t-14 4.5q-10 11 -6 25.5
t15 28t25.5 24t25.5 12.5q0 8 -0.5 15.5t-0.5 23.5q0 3 4.5 4.5t9.5 1.5t10 -1.5t5 -4.5q1 -21 1.5 -29.5t1.5 -14.5zM201 128q-2 5 -2 9.5t-1 9.5q-5 0 -14 -7.5t-17.5 -17t-13 -19.5t0.5 -16q3 -5 10 0t14.5 13t14 16.5t8.5 11.5z" />
    <glyph glyph-name="asciicircum" unicode="^" horiz-adv-x="154" 
d="M114 165l-17 42l-17 40.5l-13.5 30.5t-7.5 12q-3 0 -5 -14l-5 -34l-6.5 -42.5t-7.5 -38.5q-4 -7 -14 -5.5t-10 9.5q2 7 5 24t7.5 38t10.5 42.5t12 37.5q8 17 22 3q10 -12 21 -30t21.5 -38.5t19 -39.5t13.5 -32q0 -5 -3.5 -8t-9 -3.5t-10.5 1t-6 5.5z" />
    <glyph glyph-name="underscore" unicode="_" horiz-adv-x="139" 
d="M18 1q-3 0 -5 2.5t-2 6t1.5 6.5t4.5 3q24 2 52.5 2t52.5 1q6 0 6.5 -6.5t-5.5 -7.5q-22 -2 -51.5 -4t-53.5 -3z" />
    <glyph glyph-name="braceleft" unicode="{" horiz-adv-x="181" 
d="M152 361q7 0 7 -5.5t-6 -7.5q-10 -1 -20 -1.5t-19 -3.5t-17 -9.5t-13 -18.5q-8 -17 -3 -38.5t13 -43.5t13.5 -42.5t-1.5 -35.5t-21 -21q11 -2 21.5 -11t12.5 -20q4 -14 4 -32.5t0.5 -37.5t2.5 -35.5t10 -25.5q6 -7 11 -8.5t24 0.5q5 -2 4.5 -7.5t-7.5 -5.5
q-22 -4 -35.5 0t-21.5 12q-11 10 -14 26.5t-3.5 35.5t-0.5 38t-3 35q-4 17 -18.5 21t-28.5 3q-3 0 -10 -1t-14 -0.5t-11.5 3t-2.5 9.5q1 4 8 6t15.5 2.5t17 0.5t13.5 2t10.5 6.5t7.5 10.5q4 8 1.5 19t-4.5 19q-2 9 -7 23.5t-9.5 31.5t-6 34t4.5 32q6 14 16.5 22t23.5 12
t27.5 5z" />
    <glyph glyph-name="braceright" unicode="}" horiz-adv-x="159" 
d="M11 374q13 1 27.5 1t28 -3t24.5 -9.5t19 -18.5q9 -14 10 -32t-1.5 -37.5t-7 -39t-5.5 -36.5q-2 -10 -2 -24.5t10 -21.5q8 -6 17 -6.5t17 -0.5q3 0 5 -5t-4 -7q-8 -3 -16 -3.5t-15.5 -3t-13 -9t-6.5 -21.5q-2 -25 4 -52.5t4 -49t-18.5 -33.5t-63.5 -7q-5 2 -5.5 7t5.5 7
q29 -5 36 -1t13 15q7 12 5 30t-5 38t-3.5 39.5t8.5 33.5q5 9 16 14q-3 2 -7.5 6.5t-7.5 11.5q-8 18 -4 42.5t9.5 50t7.5 49.5t-9 40q-15 20 -32.5 22t-38.5 0q-6 2 -6.5 7t5.5 7z" />
    <glyph glyph-name="bar" unicode="|" horiz-adv-x="101" 
d="M32 351q1 5 5.5 7.5t10 2.5t10 -2.5t4.5 -7.5l1 -394q-1 -8 -11.5 -8.5t-12.5 8.5z" />
    <glyph glyph-name="asciitilde" unicode="~" horiz-adv-x="149" 
d="M30 116q-2 -6 -8 -5.5t-6 5.5q0 9 1.5 23.5t12.5 19.5q10 4 20.5 0t20 -10t18.5 -11t15 -3q10 2 18 14q4 5 9 2.5t3 -9.5q-4 -11 -12.5 -21t-22.5 -11q-9 -1 -18 4t-17 10l-15 9t-13 2q-5 -2 -5 -7t-1 -12z" />
    <glyph glyph-name="numbersign" unicode="#" horiz-adv-x="254" 
d="M37 79q-3 0 -5 2.5t-2.5 6t1 7t5.5 3.5l45 1l-3 67q-15 -1 -29 -1h-25q-7 0 -7.5 9t6.5 10l55 1l-2 52q0 3 4.5 5t10 2t10 -1.5t5.5 -4.5l-1 -52h23t22 1l-1 45q0 3 4.5 5t10 2t10 -2t4.5 -5v-44q12 1 25 1.5t28 2.5q6 -1 6 -6t-5 -8q-11 -1 -25 -2t-30 -3v-68l40 4
q7 -1 7 -6.5t-6 -7.5l-42 -4v-63q-2 -6 -11 -6t-11 6l-2 60q-12 -2 -23.5 -3l-23.5 -2v-50q-1 -6 -10.5 -6.5t-11.5 5.5l-2 49q-10 -1 -21 -1.5t-23 -0.5zM105 168v-67l47 2l-2 68z" />
    <glyph glyph-name="currency" unicode="&#xa4;" horiz-adv-x="222" 
d="M27 217q7 -6 15.5 -11.5t15.5 -11.5q7 10 18 21q-2 0 -3.5 1t-3.5 2q-5 5 -2 9.5t11 2.5q17 -2 32 -8.5t26 -17.5q6 13 15 26t17 16q7 2 8 -3.5t-4 -8.5l-22 -45q16 -20 22.5 -47.5t-1.5 -53.5l16.5 -14t16.5 -12q5 -5 1.5 -9.5t-8.5 -2.5l-16.5 10l-16.5 10
q-14 -25 -40.5 -31t-48.5 9l-16.5 -24l-16.5 -23q-5 -4 -9 -0.5t-2 9.5q8 11 15 25t14 26q-15 18 -19 47q-3 17 -1.5 34t9.5 34q-8 7 -15.5 15.5t-15.5 15.5q-3 5 0.5 9.5t8.5 0.5zM155 135q-5 26 -19 44t-33 26q-17 -7 -26 -31.5t-8.5 -50.5t11.5 -46.5t36 -18.5
q24 2 34 25.5t5 51.5z" />
    <glyph glyph-name="cent" unicode="&#xa2;" horiz-adv-x="180" 
d="M73 23q-20 4 -32.5 19.5t-18.5 35.5t-6 43t6 43t17 35t26 19l-2 51q0 4 4.5 7t10 3t10 -2.5t4.5 -7.5l2 -53q18 -8 27 -28.5t11 -37.5q-2 -6 -9.5 -7t-9.5 7q-1 15 -5 28.5t-14 20.5l4 -164q18 0 35.5 11.5t22.5 31.5q2 6 7.5 5t5.5 -7q-5 -25 -25.5 -38.5t-45.5 -15.5
l1 -52q0 -4 -3.5 -6t-7.5 -2.5t-8 1.5t-5 7zM66 191q-11 -12 -16 -32t-5 -41.5t6.5 -41t20.5 -31.5z" />
    <glyph glyph-name="dollar" unicode="$" horiz-adv-x="183" 
d="M62 267q1 3 5.5 5t10 2t10 -2t4.5 -5v-38q12 -2 21.5 -9t14.5 -19q2 -5 -3.5 -7.5t-9.5 2.5q-9 13 -22 18l1 -80l48.5 -40.5t24.5 -39.5t-21.5 -29.5t-49.5 -12.5v-44q-1 -6 -11 -6t-12 6l-1 47q-20 3 -35 13t-17 30q-1 6 5 7.5t9 -4.5q2 -15 12.5 -22.5t24.5 -9.5
q-1 21 -1.5 42.5t-1.5 43.5q-22 16 -38 34t-14 41q2 14 15.5 24.5t31.5 14.5q0 10 -0.5 19t-0.5 19zM137 52q0 11 -12.5 22t-29.5 22v-33.5t1 -33.5q16 2 28 8.5t13 14.5zM48 189q-1 -13 17 -31l-1 52q-7 -4 -11.5 -9.5t-4.5 -11.5z" />
    <glyph glyph-name="Euro" unicode="&#x20ac;" horiz-adv-x="203" 
d="M18 128q-7 0 -7.5 9t6.5 10q9 0 16 0.5t15 0.5q-2 32 5.5 59.5t27.5 40.5q12 7 22.5 2t19.5 -15.5t16 -22.5t13 -19q3 -6 -2.5 -9.5t-10.5 0.5q-11 14 -19 29.5t-18 21.5q-14 -8 -20 -32t-5 -53q21 1 43.5 4t55.5 8q7 1 8.5 -5t-5.5 -9l-50.5 -8t-50.5 -7q0 -5 0.5 -12.5
t2.5 -12.5q18 2 36.5 3.5t36.5 3.5q7 -1 7 -6.5t-6 -7.5q-18 -2 -35.5 -4.5t-34.5 -4.5q2 -9 5.5 -18t8.5 -17q8 -13 22 -21.5t28 -3.5q12 7 26 25q5 5 12.5 1t3.5 -10q-24 -32 -60 -34q-17 -1 -29 5.5t-21 17t-15 24t-10 28.5q-9 -1 -18 -1.5t-19 -1.5q-7 0 -7.5 9t6.5 10
q9 0 17.5 0.5t16.5 0.5q-1 5 -1.5 11.5t-1.5 12.5q-8 -1 -15.5 -1.5t-15.5 -0.5z" />
    <glyph glyph-name="franc" unicode="&#x20a3;" horiz-adv-x="166" 
d="M144 250q7 -1 6.5 -10t-7.5 -9q-4 0 -14 1t-22 0.5t-23 -2t-15 -5.5q-9 -8 -9.5 -27.5t3.5 -55.5q20 1 40 1.5t41 0.5q6 0 6 -5.5t-5 -7.5l-41 -4l-40 -4l5 -52l39 3q7 -1 7 -6.5t-6 -7.5l-38 -5l3 -48q-2 -9 -15 -9t-15 9q-2 24 -3 45q-8 -1 -15 -1h-13q-7 0 -7.5 9
t6.5 10h26q-7 71 -8.5 112t15.5 55q7 5 22.5 8t31.5 4t29.5 1h15.5z" />
    <glyph glyph-name="sterling" unicode="&#xa3;" horiz-adv-x="235" 
d="M25 121q-7 0 -7.5 9t6.5 10h25t21 1q-3 16 -1.5 31.5t9.5 29.5q5 8 14 11.5t19.5 4.5t20.5 0t17 -1q7 -1 6.5 -7t-7.5 -6q-10 0 -22.5 -0.5t-20.5 -9.5q-7 -10 -7.5 -23t2.5 -29q17 1 35.5 2.5t46.5 6.5q7 1 8.5 -4.5t-5.5 -8.5l-40.5 -6l-41.5 -6l10 -40t4 -36
q12 1 27.5 2.5t30.5 2.5t28 2t20 1q6 -1 6 -7t-5 -7q-27 -1 -54.5 -3.5t-54.5 -5.5q-6 -10 -19 -15t-28.5 -6.5t-31 -0.5t-25.5 3q-5 2 -6 7.5t4 9.5q19 7 39.5 9.5t40.5 4.5q-1 18 -6 37l-10 39q-12 -1 -24 -1.5t-24 -0.5zM35 26q10 -1 23 -0.5t21 6.5q-11 -2 -22 -3
t-22 -3z" />
    <glyph glyph-name="yen" unicode="&#xa5;" horiz-adv-x="218" 
d="M43 46q-7 1 -7.5 7t6.5 7q11 0 21 1l21 2q1 6 1.5 12t2.5 11l-42 -3q-7 0 -7.5 6.5t6.5 7.5q9 0 18.5 1t19.5 3q-13 6 -22.5 21.5t-17 34l-15.5 36.5t-18 29q-5 6 1 12.5t13 -0.5q10 -10 16.5 -25l13 -31l13 -31t16.5 -25q3 10 5 27t3.5 35.5t4.5 37.5t8 34q3 8 14.5 7.5
t14.5 -7.5q8 -18 4.5 -41l-6.5 -41q-2 -17 -4.5 -32.5t-4.5 -32.5l42 12q7 1 8.5 -8t-5.5 -11q-12 -4 -24 -6.5t-25 -4.5l-4 -24l28 4l28 4q3 0 5 -2.5t2.5 -6t-0.5 -7t-5 -3.5l-60 -6l-4 -32t-3 -33q0 -6 -4.5 -9t-9.5 -3t-9.5 3t-5.5 9q2 34 6 63z" />
    <glyph glyph-name="lira" unicode="&#x20a4;" horiz-adv-x="235" 
d="M20 137q-7 0 -7.5 9t6.5 10q14 0 26 0.5t23 0.5q-2 25 10 45q5 8 14 11.5t19.5 4.5t20.5 0t17 -1q7 -1 6.5 -7t-7.5 -6q-10 0 -22.5 -0.5t-20.5 -9.5q-5 -7 -6.5 -16t-0.5 -20q17 1 35 3t44 7q7 1 8.5 -5t-5.5 -9l-40 -6t-40 -5q2 -7 3 -14t3 -14q17 2 35.5 3t36.5 3
q7 -1 7 -6.5t-6 -7.5q-17 -2 -34.5 -3.5t-34.5 -3.5l5.5 -26.5t1.5 -23.5q12 1 27.5 2.5t30.5 2.5t28 2t20 1q6 -1 6 -6t-5 -8q-27 0 -54.5 -3l-54.5 -6q-6 -10 -19 -15.5t-29 -7t-31 -0.5t-25 4q-5 2 -6 8t4 9q17 9 38.5 10.5t41.5 3.5q-1 11 -3.5 23.5t-5.5 25.5l-55 -9
q-7 0 -7.5 9t6.5 10q14 2 26 3t26 3l-3.5 14.5t-2.5 13.5q-24 -3 -50 -3zM35 26q10 -1 23 -0.5t21 6.5q-11 -2 -22 -3t-22 -3z" />
    <glyph glyph-name="colonmonetary" unicode="&#x20a1;" horiz-adv-x="177" 
d="M48 32q-14 18 -20.5 42.5t-9.5 47.5q-2 18 -1.5 36t4 34.5t10.5 29.5t19 20q4 2 7 3t7 2l2 25q2 8 10 8t9 -8l-2 -27q5 -2 9.5 -4.5l9.5 -5.5l3 35q2 7 10 7t9 -7l-4 -49q4 -2 7 -4.5t6 -4.5q4 -5 -1 -9.5t-11 -1.5l-3 1l-15 -178q11 -1 21 7.5t19 19.5q5 5 13 1.5
t3 -9.5q-11 -15 -26 -24t-31 -10l-1 -21q-2 -8 -11 -6.5t-8 8.5l2 20q-5 1 -9.5 3t-9.5 4l-1 -27q-2 -7 -11 -6t-8 8zM78 37l3.5 -3.5l3.5 -3.5l16 184l-9.5 7.5t-9.5 6.5l-14 -177q2 -4 5 -7.5t5 -6.5zM55 210q-8 -20 -8.5 -52.5t6.5 -62.5l9 126q-3 -3 -7 -11z" />
    <glyph glyph-name="florin" unicode="&#x192;" horiz-adv-x="175" 
d="M8 -9q-8 3 -2.5 8t11.5 3q11 -4 30 -2.5t27 10.5q10 13 5 43l-11.5 66t-8.5 72t15 60q8 12 23 15.5t39 -7.5q4 -2 4.5 -5t-1.5 -4.5t-6 -2t-8 1.5q-7 4 -14 1.5t-9 -7.5q-12 -22 -8.5 -56t10 -70t9 -67.5t-11.5 -47.5q-17 -18 -44.5 -18t-48.5 7zM12 138q-6 0 -7 8.5
t4 10.5q38 7 75.5 10t75.5 9q7 1 8.5 -5t-5.5 -8l-75.5 -11.5t-75.5 -13.5z" />
    <glyph glyph-name="fraction" unicode="&#x2044;" horiz-adv-x="114" 
d="M70 325q1 4 6 5t10 0.5t9 -3t3 -5.5l-63 -343q-3 -5 -13.5 -4t-9.5 7z" />
    <glyph glyph-name="perthousand" unicode="&#x2030;" horiz-adv-x="382" 
d="M324 167q8 -3 19 -9.5t19 -14.5t9.5 -18t-8.5 -21q-10 -9 -24 -12t-26 3q-11 6 -16 16t-6.5 21t1 21.5t7.5 16.5q6 7 14.5 6t10.5 -9zM271 76q-21 -12 -33.5 -6.5t-18 19.5t-2.5 31.5t14 28.5q7 7 14 4.5t7 -6.5q10 -4 19.5 -12.5t14 -19t2 -21t-16.5 -18.5zM26 120
q-11 6 -14 20t1 27.5t13.5 22t22.5 4.5l21.5 11t19 9.5t20 9l24.5 10.5q20 8 40 11t29 -7q8 -9 7 -23t-6 -31t-12.5 -37t-11.5 -41q-8 -36 -8 -59.5t5 -41.5q3 -10 -4.5 -11t-11.5 9q-11 29 -10.5 57t5.5 59q3 18 9.5 41t10.5 40t-2 21t-17 2q-15 -2 -42.5 -13t-55.5 -27
q12 -7 20.5 -16t10.5 -18q1 -10 -6 -17.5t-17.5 -11.5t-22 -4t-18.5 4zM26 163q0 -1 -0.5 -1.5t-0.5 -1.5q-4 -14 1 -21t13.5 -9t17 0t12.5 6.5t1 9.5t-19 10zM257 83q13 5 16 12t0 14.5t-11 14t-17 10.5q-3 -5 -4.5 -13t-1 -16t3.5 -14.5t10 -8.5q1 0 1.5 0.5t2.5 0.5z
M354 113q11 9 -1 21t-34 22q-6 -13 -4 -23t9 -16t15.5 -7.5t14.5 3.5z" />
    <glyph glyph-name="dagger" unicode="&#x2020;" horiz-adv-x="183" 
d="M24 198q-7 0 -7.5 9t6.5 10l52 2q0 48 0.5 95.5t1.5 96.5q1 3 5.5 5t10 2t10 -2t4.5 -5l-4 -192q14 0 27.5 0.5t30.5 1.5q6 -1 6 -6.5t-5 -7.5q-17 -1 -31 -1.5t-28 -1.5q-1 -79 1 -157t12 -156q-1 -6 -11.5 -6t-12.5 6q-10 78 -13 155.5t-4 155.5q-12 -2 -24.5 -2.5
t-26.5 -1.5z" />
    <glyph glyph-name="daggerdbl" unicode="&#x2021;" horiz-adv-x="183" 
d="M77 411q1 3 5.5 5t10 2t10 -2t4.5 -5l-4 -192q14 0 27.5 0.5t30.5 1.5q6 -1 6 -6.5t-5 -7.5q-17 -1 -31 -1.5t-28 -1.5q-1 -47 -0.5 -92.5t2.5 -91.5h24.5t28.5 1q6 -1 6 -6.5t-5 -7.5q-16 -1 -28.5 -1t-24.5 -1l4 -57t6 -57q-1 -6 -11.5 -6t-12.5 6q-4 28 -6.5 55.5
t-4.5 56.5q-12 -1 -25 -1.5t-30 -1.5q-7 0 -7.5 9t6.5 10q17 0 30 0.5t25 0.5q-2 46 -3 91l-2 91q-12 -2 -24.5 -2.5t-26.5 -1.5q-7 0 -7.5 9t6.5 10l52 2q0 48 0.5 95.5t1.5 96.5z" />
    <glyph glyph-name="section" unicode="&#xa7;" horiz-adv-x="177" 
d="M21 189q8 14 27 22q-14 16 -19 33.5t6 34.5q6 9 16.5 12.5t22.5 2.5t24 -6t21 -12q5 -5 2 -9t-9 -2q-5 2 -11.5 5t-13 5t-13 2t-11.5 -5q-12 -13 2 -30.5t35.5 -37.5t40.5 -42t18 -44q-1 -11 -9.5 -19.5t-17.5 -15.5q12 -13 19.5 -25.5t7.5 -23.5q-1 -22 -22 -33
t-46.5 -12t-47.5 9t-23 30q1 6 8.5 7.5t10.5 -4.5q2 -15 15 -21.5t28 -6t27.5 8t13.5 20.5q1 8 -8.5 19t-23.5 23l-30 26t-27.5 28.5t-16 29.5t3.5 31zM65 192q-11 4 -17.5 -3t0.5 -18q8 -16 30.5 -35.5t43.5 -40.5q7 6 11.5 10.5t3.5 12.5q0 7 -7.5 15.5t-18.5 18
l-23.5 19.5t-22.5 21z" />
    <glyph glyph-name="brokenbar" unicode="&#xa6;" horiz-adv-x="101" 
d="M32 351q1 4 5.5 6.5t10 2.5t10 -2.5t4.5 -6.5l-1 -188q-2 -10 -12 -11t-12 8zM34 123q0 5 4.5 8t9.5 2.5t9.5 -4t5.5 -11.5v-161q-2 -8 -12.5 -9t-11.5 9z" />
    <glyph glyph-name="mu" unicode="&#xb5;" horiz-adv-x="286" 
d="M131 47q16 6 26 20.5t15.5 33.5t7.5 39.5t2 38.5v3q0 4 4.5 5.5t10 1t10 -2.5t4.5 -5q1 -18 3 -42t7.5 -48t17.5 -45.5t33 -33.5q5 -2 4.5 -8.5t-10.5 -4.5q-26 14 -45 41.5t-26 59.5q-3 -8 -9 -19.5t-15 -22.5t-21 -19t-28 -9q-17 -2 -33.5 6.5t-30.5 28.5v-41.5v-45
v-42.5v-32q0 -3 -4 -5t-8.5 -2.5t-8 1t-3.5 6.5q0 90 -3.5 180t-4.5 185q0 5 4.5 7t10 1.5t10.5 -3t5 -5.5q0 -21 1 -46.5t3 -46.5q1 -21 6.5 -45.5t14 -44t21 -31.5t29.5 -8z" />
    <glyph glyph-name="mu" unicode="&#x3bc;" horiz-adv-x="286" 
d="M131 47q16 6 26 20.5t15.5 33.5t7.5 39.5t2 38.5v3q0 4 4.5 5.5t10 1t10 -2.5t4.5 -5q1 -18 3 -42t7.5 -48t17.5 -45.5t33 -33.5q5 -2 4.5 -8.5t-10.5 -4.5q-26 14 -45 41.5t-26 59.5q-3 -8 -9 -19.5t-15 -22.5t-21 -19t-28 -9q-17 -2 -33.5 6.5t-30.5 28.5v-41.5v-45
v-42.5v-32q0 -3 -4 -5t-8.5 -2.5t-8 1t-3.5 6.5q0 90 -3.5 180t-4.5 185q0 5 4.5 7t10 1.5t10.5 -3t5 -5.5q0 -21 1 -46.5t3 -46.5q1 -21 6.5 -45.5t14 -44t21 -31.5t29.5 -8z" />
    <glyph glyph-name="germandbls" unicode="&#xdf;" horiz-adv-x="198" 
d="M133 209q2 -9 1 -16.5t-15 -11.5q-10 -3 -19 -6t-11 -9q-1 -6 13.5 -16.5l32.5 -24t33 -28.5t14 -29q0 -14 -12.5 -25t-30 -18.5t-35.5 -10.5t-29 -1q-8 2 -6 9t9 5q9 -2 22.5 1.5t25.5 9.5t20 14.5t8 17.5q-1 11 -11 22.5t-23 23l-25.5 22.5t-17.5 21q-4 7 -1.5 13t8 11
t14 8.5l16.5 6.5q-2 14 -8.5 32.5t-18.5 27.5q-2 2 -6.5 0t-6.5 -4q-9 -11 -13 -32t-4.5 -47.5t0.5 -54.5t2 -52t1.5 -42t-1.5 -23q-2 -3 -6.5 -5t-9 -2.5t-8.5 2t-4 10.5q-2 20 -2.5 40t-2.5 42q-2 30 -1.5 62.5t5 60t15 45.5t30.5 18q11 0 20.5 -6.5t17.5 -16t13 -21.5
t7 -23z" />
    <glyph glyph-name="Thorn" unicode="&#xde;" horiz-adv-x="218" 
d="M27 265q1 4 5.5 5.5t10 1.5t10 -1.5t4.5 -5.5v-100q21 2 46.5 1t47.5 -6t37 -15.5t15 -28.5q0 -15 -14.5 -28.5t-36 -23.5t-47 -16.5t-46.5 -8.5v-81q0 -3 -4.5 -4.5t-9.5 -1.5t-9.5 1.5t-5.5 4.5v40t-1 40q-10 4 -8 8.5t8 6.5l-1 94q-7 1 -8.5 5.5t8.5 9.5q-1 26 -1 52
v51zM181 117q0 10 -11.5 17t-29 11.5t-39.5 6t-44 -0.5l2 -96q21 2 43 8t39.5 14.5t28.5 18.5t11 21z" />
    <glyph glyph-name="thorn" unicode="&#xfe;" horiz-adv-x="153" 
d="M27 265q1 4 5.5 5.5t10 1.5t10 -1.5t4.5 -5.5v-59q20 2 35.5 -11t26 -34t15 -46.5t1 -48.5t-15.5 -41t-34 -24q-17 -3 -26 -1v-85q0 -3 -4.5 -5t-9.5 -2t-9.5 2t-5.5 5q0 36 -0.5 82l-1 93l-1 93t-0.5 82zM114 94q-1 17 -6 35.5t-12.5 32.5t-17.5 22t-21 5l2 -171
q13 -4 23.5 0.5t17.5 15.5t11 26.5t3 33.5z" />
    <glyph glyph-name="paragraph" unicode="&#xb6;" horiz-adv-x="212" 
d="M174 119l10 2q6 0 7 -5t-4 -7q-3 -1 -6.5 -1.5t-6.5 -1.5l1 -98q0 -3 -4.5 -5t-10 -2t-10 2t-5.5 5l-1 96q-5 -1 -9.5 -1h-9.5l1 -95q0 -3 -4.5 -5t-9.5 -2t-9.5 2t-5.5 5l-1 97q-29 4 -53 19t-26 45q-2 45 45.5 70.5t126.5 28.5q7 -1 7 -6.5t-6 -7.5h-9t-9 -1zM125 116
h9.5t9.5 1l-2 133q-4 0 -8.5 -0.5t-9.5 -1.5z" />
    <glyph glyph-name="copyright" unicode="&#xa9;" horiz-adv-x="311" 
d="M177 219q5 1 7 -2.5t0 -7.5q35 -11 65.5 -33t41.5 -55q9 -30 -0.5 -53t-30 -39t-49 -24.5t-56.5 -8.5q-26 0 -50 5.5t-42.5 16.5t-30.5 28t-15 40q-3 21 4.5 40.5t20 35t29 26.5t33.5 16q1 7 7 10t14.5 3.5t16.5 0t13 -1.5q10 2 22 3zM275 97q-1 21 -11.5 38.5t-27 31.5
t-36.5 23t-38 13q-24 0 -45 -9t-36.5 -24t-24 -34.5t-8.5 -40.5q0 -16 8 -31.5t21.5 -27.5t33 -19.5t43.5 -7.5q22 0 44 6.5t39.5 18t28 27.5t9.5 36zM182 125q1 -7 -5 -8t-8 6q-1 6 -6 11q-6 -3 -13 -10.5t-12 -16.5t-7.5 -17.5t-0.5 -13.5t12.5 -3.5t23 6.5l25 10.5
t18.5 7.5q7 1 8.5 -7.5t-5.5 -11.5l-22 -8t-29 -9t-28.5 -5t-21.5 5q-11 9 -11 22.5t6.5 26.5t18 23.5t23 14t21 -1t13.5 -21.5z" />
    <glyph glyph-name="registered" unicode="&#xae;" horiz-adv-x="311" 
d="M177 219q5 1 7 -2.5t0 -7.5q35 -11 65.5 -33t41.5 -55q9 -33 -4 -60h7q7 -1 6.5 -7t-8.5 -6q-3 -1 -6.5 -1h-6.5q-19 -25 -53.5 -38t-70.5 -13q-26 0 -50 5.5t-42.5 16.5t-30.5 28t-15 40q-3 21 4.5 40.5t20 35t29 26.5t33.5 16q1 7 7 10t14.5 3.5t16.5 0t13 -1.5
q10 2 22 3zM275 97q-1 21 -11.5 38.5t-27 31.5t-36.5 23t-38 13q-24 0 -45 -9t-36.5 -24t-24 -34.5t-8.5 -40.5q0 -16 8 -31.5t21.5 -27.5t33 -19.5t43.5 -7.5q29 0 57 10.5t45 29.5q-14 3 -27 9l-26 12.5t-26.5 11.5t-28.5 7l-2 -47q-2 -6 -15 -6t-15 6l2 50q-4 5 1 10
l1 23q-2 0 -3.5 -0.5t-3.5 -0.5q-7 0 -7.5 6.5t6.5 7.5q6 0 9 1v5q1 7 6.5 7t6.5 -7v-2l14 3q4 1 11 1.5t14.5 -0.5t13 -4.5t5.5 -10.5q-1 -7 -7 -14.5t-20 -13.5q13 -3 25.5 -9t24.5 -12.5t24.5 -12t26.5 -7.5q9 15 9 35zM172 131q0 4 -6.5 3.5t-15.5 -2.5q0 -5 -0.5 -9
t-0.5 -9q11 4 17.5 8.5t5.5 8.5z" />
    <glyph glyph-name="acute" unicode="&#xb4;" horiz-adv-x="75" 
d="M46 293q5 5 13.5 0t3.5 -11l-41 -53q-5 -4 -9 -0.5t-2 9.5z" />
    <glyph glyph-name="breve" unicode="&#x2d8;" horiz-adv-x="99" 
d="M11 272q1 6 10 10t11 -3q8 -29 19 -28q7 1 11 9t7 22q2 6 10.5 5t9.5 -7q-2 -19 -12.5 -30.5t-23.5 -13t-25 7t-17 28.5z" />
    <glyph glyph-name="circumflex" unicode="&#x2c6;" horiz-adv-x="104" 
d="M34 239q-2 -6 -11.5 -6t-11.5 6q1 7 5.5 19.5t10.5 24t13 19t12 4.5q5 0 11 -8t11.5 -18.5l10.5 -20.5t8 -15q3 -7 -5 -9.5t-13 2.5q-3 4 -6 13.5t-6.5 18.5t-7 16.5t-6.5 7.5q-3 -2 -5.5 -9.5t-4.5 -16t-3.5 -16.5t-1.5 -12z" />
    <glyph glyph-name="dieresis" unicode="&#xa8;" horiz-adv-x="76" 
d="M30 263q-2 -8 -9.5 -8t-10.5 8v3q2 10 10.5 10t9.5 -10v-3zM57 275q8 -1 9.5 -9t-8.5 -10q-9 -1 -9.5 8t8.5 11z" />
    <glyph glyph-name="grave" unicode="`" horiz-adv-x="68" 
d="M11 282q-1 6 6.5 11t11.5 1l27 -51q2 -5 -3 -9t-10 1z" />
    <glyph glyph-name="macron" unicode="&#xaf;" horiz-adv-x="99" 
d="M18 249q-7 -1 -8 8t5 11q17 1 38.5 1h26.5q7 0 8 -6t-7 -7q-18 -2 -32 -4t-31 -3z" />
    <glyph glyph-name="hungarumlaut" unicode="&#x2dd;" horiz-adv-x="102" 
d="M70 322q5 7 13.5 4t6.5 -11l-32 -91q-4 -5 -9.5 -2.5t-3.5 9.5zM25 312q1 3 4.5 4.5t7.5 1t6.5 -2.5t1.5 -5l-21 -71q-4 -5 -9 -3.5t-4 8.5z" />
    <glyph glyph-name="caron" unicode="&#x2c7;" horiz-adv-x="92" 
d="M12 284q-1 3 2 6.5t7 5.5t8 1.5t5 -3.5l4.5 -16.5t5.5 -17.5t7 -14.5t10 -7.5q1 3 1.5 12.5t0.5 21t-0.5 22.5t-0.5 17q2 7 10 7t9 -7v-16t-1 -27.5t-3.5 -27t-7.5 -14.5q-11 -5 -20.5 0t-16.5 15t-12 22t-8 21z" />
    <glyph glyph-name="ogonek" unicode="&#x2db;" horiz-adv-x="89" 
d="M43 11q6 4 10 0t-1 -9q-11 -11 -18 -24t-2 -19q5 -7 16.5 -7.5t21.5 -0.5q8 0 8.5 -7t-7.5 -9q-7 -1 -16 -1t-17.5 1.5t-15.5 5.5t-10 10q-3 7 -0.5 16t7.5 17t11.5 15.5t12.5 11.5z" />
    <glyph glyph-name="ring" unicode="&#x2da;" horiz-adv-x="70" 
d="M24 248q-8 1 -11 6t-2 11.5t5 13t10 9.5q0 3 6 5q13 -1 19 -5.5t8 -9.5q1 -6 -2 -11.5t-8.5 -10t-12 -7t-12.5 -1.5zM44 273q-1 2 -6 4h-1q-2 0 -4 -2t-3 -4.5t-0.5 -4.5t4.5 -1q2 2 5 4t5 4z" />
    <glyph glyph-name="tilde" unicode="&#x2dc;" horiz-adv-x="99" 
d="M25 240q-1 -6 -6.5 -5.5t-6.5 5.5q0 4 1.5 11t4 13.5t7 11.5t10.5 4q10 -1 20 -9t15 -10t9 1t6 5q4 5 7.5 0.5t-0.5 -10.5q-2 -5 -8 -9t-14 -4q-4 0 -9 2t-9.5 5l-8.5 5.5t-7 1.5q-5 -1 -7 -6t-4 -12z" />
    <glyph glyph-name="dotaccent" unicode="&#x2d9;" horiz-adv-x="49" 
d="M33 240q1 -4 -1 -7t-5.5 -4t-7 1t-4.5 7q-2 13 6.5 13.5t11.5 -10.5z" />
    <glyph glyph-name="commaaccent" horiz-adv-x="58" 
d="M16 -33q-4 4 -3.5 8t3.5 7t7.5 4t8.5 -2q10 -6 13 -18.5t-8 -44.5q-2 -6 -8 -4t-4 7q4 12 2.5 22t-11.5 21z" />
    <glyph glyph-name="cedilla" unicode="&#xb8;" horiz-adv-x="105" 
d="M23 50q5 5 13.5 2t6.5 -9t-3.5 -15.5t-1.5 -18.5t0.5 -15.5t2.5 -7.5q5 -4 12.5 -5.5t15 -3.5t13.5 -5.5t7 -12.5q0 -8 -5.5 -14t-13.5 -11t-17.5 -8.5t-17.5 -4.5q-5 0 -6.5 3t-0.5 6.5t3.5 5.5t6.5 -1q9 2 20 9t9 13q-1 4 -6 6t-12 3.5l-14 3t-11 3.5q-6 3 -7 14.5
t0 24t3 24t3 14.5z" />
    <glyph glyph-name="aacute" unicode="&#xe1;" horiz-adv-x="227" 
d="M227 33q-13 -26 -36 -32t-46 17q-11 11 -21.5 31.5t-21.5 54.5q-5 -14 -11.5 -26.5t-15.5 -21.5t-20 -13t-23 0q-14 5 -19.5 17.5t-6 28t2.5 30.5t8 25q9 20 25.5 36t36.5 25q-2 13 -3 25t-1 24q0 5 11 8t16 -4q3 -4 4.5 -13t2.5 -19.5t1.5 -21t0.5 -16.5q4 -27 11.5 -57
t17.5 -56t21.5 -43.5t24.5 -17.5q12 0 22.5 14t18.5 35q7 21 10.5 42t4.5 30q2 8 8 7.5t5 -8.5q-2 -17 -8.5 -47t-19.5 -54zM41 134q-2 -5 -4 -14t-3 -19t0.5 -18.5t7.5 -13.5q8 -6 16 -3t15 12t12.5 23t9.5 29q-4 14 -7.5 29t-5.5 30q-14 -11 -24.5 -24.5t-16.5 -30.5z
M55 292q5 5 13.5 0t3.5 -11l-41 -53q-5 -4 -9 -0.5t-2 9.5z" />
    <glyph glyph-name="abreve" unicode="&#x103;" horiz-adv-x="227" 
d="M-17 239q-1 7 6.5 13t12.5 1q15 -26 26 -21q10 5 7 35q1 7 9.5 8t10.5 -4q4 -19 -2.5 -33t-18 -19.5t-25.5 -1.5t-26 22zM227 33q-13 -26 -36 -32t-46 17q-11 11 -21.5 31.5t-21.5 54.5q-5 -14 -11.5 -26.5t-15.5 -21.5t-20 -13t-23 0q-14 5 -19.5 17.5t-6 28t2.5 30.5
t8 25q9 20 25.5 36t36.5 25q-2 13 -3 25t-1 24q0 5 11 8t16 -4q3 -4 4.5 -13t2.5 -19.5t1.5 -21t0.5 -16.5q4 -27 11.5 -57t17.5 -56t21.5 -43.5t24.5 -17.5q12 0 22.5 14t18.5 35q7 21 10.5 42t4.5 30q2 8 8 7.5t5 -8.5q-2 -17 -8.5 -47t-19.5 -54zM41 134q-2 -5 -4 -14
t-3 -19t0.5 -18.5t7.5 -13.5q8 -6 16 -3t15 12t12.5 23t9.5 29q-4 14 -7.5 29t-5.5 30q-14 -11 -24.5 -24.5t-16.5 -30.5z" />
    <glyph glyph-name="acircumflex" unicode="&#xe2;" horiz-adv-x="227" 
d="M14 200q1 -6 -9 -7t-13 4q-1 7 0.5 21t5 27.5t8 23.5t10.5 9q5 1 11.5 -3.5t13 -11.5t12 -14.5t9.5 -11.5q5 -5 -3 -9.5t-14 0.5q-3 3 -7 9.5l-8 12.5t-7.5 10t-6.5 4q-2 -3 -3 -12t-1 -19.5t1 -19.5t1 -13zM227 33q-13 -26 -36 -32t-46 17q-11 11 -21.5 31.5t-21.5 54.5
q-5 -14 -11.5 -26.5t-15.5 -21.5t-20 -13t-23 0q-14 5 -19.5 17.5t-6 28t2.5 30.5t8 25q9 20 25.5 36t36.5 25q-2 13 -3 25t-1 24q0 5 11 8t16 -4q3 -4 4.5 -13t2.5 -19.5t1.5 -21t0.5 -16.5q4 -27 11.5 -57t17.5 -56t21.5 -43.5t24.5 -17.5q12 0 22.5 14t18.5 35
q7 21 10.5 42t4.5 30q2 8 8 7.5t5 -8.5q-2 -17 -8.5 -47t-19.5 -54zM41 134q-2 -5 -4 -14t-3 -19t0.5 -18.5t7.5 -13.5q8 -6 16 -3t15 12t12.5 23t9.5 29q-4 14 -7.5 29t-5.5 30q-14 -11 -24.5 -24.5t-16.5 -30.5z" />
    <glyph glyph-name="adieresis" unicode="&#xe4;" horiz-adv-x="227" 
d="M22 221q2 -8 -5.5 -11.5t-12.5 3.5l-1 3q-2 10 6 13t12 -6zM43 242q8 2 12 -4.5t-4 -11.5t-12 3t4 13zM227 33q-13 -26 -36 -32t-46 17q-11 11 -21.5 31.5t-21.5 54.5q-5 -14 -11.5 -26.5t-15.5 -21.5t-20 -13t-23 0q-14 5 -19.5 17.5t-6 28t2.5 30.5t8 25q9 20 25.5 36
t36.5 25q-2 13 -3 25t-1 24q0 5 11 8t16 -4q3 -4 4.5 -13t2.5 -19.5t1.5 -21t0.5 -16.5q4 -27 11.5 -57t17.5 -56t21.5 -43.5t24.5 -17.5q12 0 22.5 14t18.5 35q7 21 10.5 42t4.5 30q2 8 8 7.5t5 -8.5q-2 -17 -8.5 -47t-19.5 -54zM41 134q-2 -5 -4 -14t-3 -19t0.5 -18.5
t7.5 -13.5q8 -6 16 -3t15 12t12.5 23t9.5 29q-4 14 -7.5 29t-5.5 30q-14 -11 -24.5 -24.5t-16.5 -30.5z" />
    <glyph glyph-name="agrave" unicode="&#xe0;" horiz-adv-x="227" 
d="M227 33q-13 -26 -36 -32t-46 17q-11 11 -21.5 31.5t-21.5 54.5q-5 -14 -11.5 -26.5t-15.5 -21.5t-20 -13t-23 0q-14 5 -19.5 17.5t-6 28t2.5 30.5t8 25q9 20 25.5 36t36.5 25q-2 13 -3 25t-1 24q0 5 11 8t16 -4q3 -4 4.5 -13t2.5 -19.5t1.5 -21t0.5 -16.5q4 -27 11.5 -57
t17.5 -56t21.5 -43.5t24.5 -17.5q12 0 22.5 14t18.5 35q7 21 10.5 42t4.5 30q2 8 8 7.5t5 -8.5q-2 -17 -8.5 -47t-19.5 -54zM41 134q-2 -5 -4 -14t-3 -19t0.5 -18.5t7.5 -13.5q8 -6 16 -3t15 12t12.5 23t9.5 29q-4 14 -7.5 29t-5.5 30q-14 -11 -24.5 -24.5t-16.5 -30.5z
M6 275q-1 6 6.5 11t11.5 1l27 -51q2 -5 -3 -9t-10 1z" />
    <glyph glyph-name="amacron" unicode="&#x101;" horiz-adv-x="227" 
d="M-8 231q-6 -2 -8 6t2 12q8 3 18 5.5l19.5 5l16.5 4.5t10 3q7 2 9 -3.5t-3 -9.5q-16 -5 -32 -11.5t-32 -11.5zM227 33q-13 -26 -36 -32t-46 17q-11 11 -21.5 31.5t-21.5 54.5q-5 -14 -11.5 -26.5t-15.5 -21.5t-20 -13t-23 0q-14 5 -19.5 17.5t-6 28t2.5 30.5t8 25
q9 20 25.5 36t36.5 25q-2 13 -3 25t-1 24q0 5 11 8t16 -4q3 -4 4.5 -13t2.5 -19.5t1.5 -21t0.5 -16.5q4 -27 11.5 -57t17.5 -56t21.5 -43.5t24.5 -17.5q12 0 22.5 14t18.5 35q7 21 10.5 42t4.5 30q2 8 8 7.5t5 -8.5q-2 -17 -8.5 -47t-19.5 -54zM41 134q-2 -5 -4 -14t-3 -19
t0.5 -18.5t7.5 -13.5q8 -6 16 -3t15 12t12.5 23t9.5 29q-4 14 -7.5 29t-5.5 30q-14 -11 -24.5 -24.5t-16.5 -30.5z" />
    <glyph glyph-name="aogonek" unicode="&#x105;" horiz-adv-x="227" 
d="M227 33q-10 -19 -22 -26q-2 -3 -6.5 -9l-9 -12.5t-6.5 -13t1 -11.5q5 -7 16.5 -7h21.5q7 -1 7.5 -8t-6.5 -9q-7 -1 -16 -1t-18 2t-15.5 5.5t-9.5 10.5q-5 9 1.5 22t14.5 24q-8 1 -17 5t-18 13q-11 11 -21.5 31.5t-21.5 54.5q-5 -14 -11.5 -26.5t-15.5 -21.5t-20 -13
t-23 0q-14 5 -19.5 17.5t-6 28t2.5 30.5t8 25q9 20 25.5 36t36.5 25q-2 13 -3 25t-1 24q0 5 11 8t16 -4q3 -4 4.5 -13t2.5 -19.5t1.5 -21t0.5 -16.5q4 -27 11.5 -57t17.5 -56t21.5 -43.5t24.5 -17.5q12 0 22.5 14t18.5 35q7 21 10.5 42t4.5 30q2 8 8 7.5t5 -8.5
q-2 -17 -8.5 -47t-19.5 -54zM41 134q-2 -5 -4 -14t-3 -19t0.5 -18.5t7.5 -13.5q8 -6 16 -3t15 12t12.5 23t9.5 29q-4 14 -7.5 29t-5.5 30q-14 -11 -24.5 -24.5t-16.5 -30.5z" />
    <glyph glyph-name="aring" unicode="&#xe5;" horiz-adv-x="227" 
d="M227 33q-13 -26 -36 -32t-46 17q-11 11 -21.5 31.5t-21.5 54.5q-5 -14 -11.5 -26.5t-15.5 -21.5t-20 -13t-23 0q-14 5 -19.5 17.5t-6 28t2.5 30.5t8 25q9 20 25.5 36t36.5 25q-2 13 -3 25t-1 24q0 5 11 8t16 -4q3 -4 4.5 -13t2.5 -19.5t1.5 -21t0.5 -16.5q4 -27 11.5 -57
t17.5 -56t21.5 -43.5t24.5 -17.5q12 0 22.5 14t18.5 35q7 21 10.5 42t4.5 30q2 8 8 7.5t5 -8.5q-2 -17 -8.5 -47t-19.5 -54zM41 134q-2 -5 -4 -14t-3 -19t0.5 -18.5t7.5 -13.5q8 -6 16 -3t15 12t12.5 23t9.5 29q-4 14 -7.5 29t-5.5 30q-14 -11 -24.5 -24.5t-16.5 -30.5z
M19 228q-8 1 -11 6t-2 11.5t5 13t10 9.5q0 3 6 5q13 -1 19 -5.5t8 -9.5q1 -6 -2 -11.5t-8.5 -10t-12 -7t-12.5 -1.5zM39 253q-1 2 -6 4h-1q-2 0 -4 -2t-3 -4.5t-0.5 -4.5t4.5 -1q2 2 5 4t5 4z" />
    <glyph glyph-name="atilde" unicode="&#xe3;" horiz-adv-x="227" 
d="M3 220q-1 -6 -6.5 -6t-6.5 5q0 4 0.5 11t3 14t6 12t9.5 5q11 0 21.5 -7.5t15.5 -9.5q5 -1 9 2t6 5q3 5 6.5 1.5t1.5 -10.5q-3 -5 -8.5 -9t-13.5 -6q-8 -1 -19 6t-16 6q-5 -2 -6.5 -7t-2.5 -12zM227 33q-13 -26 -36 -32t-46 17q-11 11 -21.5 31.5t-21.5 54.5
q-5 -14 -11.5 -26.5t-15.5 -21.5t-20 -13t-23 0q-14 5 -19.5 17.5t-6 28t2.5 30.5t8 25q9 20 25.5 36t36.5 25q-2 13 -3 25t-1 24q0 5 11 8t16 -4q3 -4 4.5 -13t2.5 -19.5t1.5 -21t0.5 -16.5q4 -27 11.5 -57t17.5 -56t21.5 -43.5t24.5 -17.5q12 0 22.5 14t18.5 35
q7 21 10.5 42t4.5 30q2 8 8 7.5t5 -8.5q-2 -17 -8.5 -47t-19.5 -54zM41 134q-2 -5 -4 -14t-3 -19t0.5 -18.5t7.5 -13.5q8 -6 16 -3t15 12t12.5 23t9.5 29q-4 14 -7.5 29t-5.5 30q-14 -11 -24.5 -24.5t-16.5 -30.5z" />
    <glyph glyph-name="ae" unicode="&#xe6;" horiz-adv-x="296" 
d="M323 134q-3 -33 -16.5 -66.5t-42.5 -53.5q-23 -15 -53 -15q-11 0 -25.5 5t-29.5 17t-29 32t-24 51q-5 -14 -12 -26.5t-16 -21.5t-20 -13t-23 0q-14 5 -19.5 17.5t-6 28t2.5 30.5t8 25q9 20 25.5 36t36.5 25q-2 13 -3 25t-1 24q5 11 17 7.5t13 -15.5q1 -30 4.5 -50.5
t8.5 -45.5q1 13 6 27q7 23 23.5 37.5t41.5 6.5q13 -5 22 -15.5t13.5 -23t4.5 -26.5t-5 -24q-10 -21 -28.5 -34t-39.5 -21q5 -14 13.5 -26t20.5 -20.5t26 -11.5t30 2q14 4 25 17t19.5 29.5t13.5 34.5t7 33q1 8 7 7.5t5 -8.5zM206 138q3 9 3 20.5t-3 22t-9.5 18t-15.5 10.5
q-11 -4 -17.5 -16t-10.5 -21q-6 -15 -6 -37t5 -44q19 7 34 20t20 27zM41 134q-2 -5 -4 -14t-3 -19t0.5 -18.5t7.5 -13.5q8 -6 16 -3t15 12t12.5 23t9.5 29q-4 14 -7.5 29t-5.5 30q-14 -11 -24.5 -24.5t-16.5 -30.5z" />
    <glyph glyph-name="aeacute" unicode="&#x1fd;" horiz-adv-x="296" 
d="M323 134q-3 -33 -16.5 -66.5t-42.5 -53.5q-23 -15 -53 -15q-11 0 -25.5 5t-29.5 17t-29 32t-24 51q-5 -14 -12 -26.5t-16 -21.5t-20 -13t-23 0q-14 5 -19.5 17.5t-6 28t2.5 30.5t8 25q9 20 25.5 36t36.5 25q-2 13 -3 25t-1 24q5 11 17 7.5t13 -15.5q1 -30 4.5 -50.5
t8.5 -45.5q1 13 6 27q7 23 23.5 37.5t41.5 6.5q13 -5 22 -15.5t13.5 -23t4.5 -26.5t-5 -24q-10 -21 -28.5 -34t-39.5 -21q5 -14 13.5 -26t20.5 -20.5t26 -11.5t30 2q14 4 25 17t19.5 29.5t13.5 34.5t7 33q1 8 7 7.5t5 -8.5zM206 138q3 9 3 20.5t-3 22t-9.5 18t-15.5 10.5
q-11 -4 -17.5 -16t-10.5 -21q-6 -15 -6 -37t5 -44q19 7 34 20t20 27zM41 134q-2 -5 -4 -14t-3 -19t0.5 -18.5t7.5 -13.5q8 -6 16 -3t15 12t12.5 23t9.5 29q-4 14 -7.5 29t-5.5 30q-14 -11 -24.5 -24.5t-16.5 -30.5zM153 323q5 5 13.5 0t3.5 -11l-41 -53q-5 -4 -9 -0.5
t-2 9.5z" />
    <glyph glyph-name="cacute" unicode="&#x107;" horiz-adv-x="168" 
d="M195 134q-2 -19 -9.5 -39.5t-20 -37.5t-29.5 -30t-38 -17t-37.5 2t-28.5 19t-18 31.5t-5 41.5q1 11 4.5 27.5t10.5 32t17.5 27t25.5 12.5q10 0 19.5 -5.5t16.5 -14.5t11.5 -20t4.5 -20q1 -7 -7 -8t-10 6q-2 13 -8 27t-18 15q-10 0 -16.5 -9t-10.5 -22t-6 -26t-2 -20
q-2 -18 2 -35t13 -27q15 -16 34 -16.5t39 13.5q21 14 35 38.5t19 55.5q1 8 7 7.5t5 -8.5zM72 306q5 5 13.5 0t3.5 -11l-41 -53q-5 -4 -9 -0.5t-2 9.5z" />
    <glyph glyph-name="ccaron" unicode="&#x10d;" horiz-adv-x="168" 
d="M195 134q-2 -19 -9.5 -39.5t-20 -37.5t-29.5 -30t-38 -17t-37.5 2t-28.5 19t-18 31.5t-5 41.5q1 11 4.5 27.5t10.5 32t17.5 27t25.5 12.5q10 0 19.5 -5.5t16.5 -14.5t11.5 -20t4.5 -20q1 -7 -7 -8t-10 6q-2 13 -8 27t-18 15q-10 0 -16.5 -9t-10.5 -22t-6 -26t-2 -20
q-2 -18 2 -35t13 -27q15 -16 34 -16.5t39 13.5q21 14 35 38.5t19 55.5q1 8 7 7.5t5 -8.5zM18 297q-1 3 2 6.5t7 5.5t8 1.5t5 -3.5l4.5 -16.5t5.5 -17.5t7 -14.5t10 -7.5q1 3 1.5 12.5t0.5 21t-0.5 22.5t-0.5 17q2 7 10 7t9 -7v-16t-1 -27.5t-3.5 -27t-7.5 -14.5
q-11 -5 -20.5 0t-16.5 15t-12 22t-8 21z" />
    <glyph glyph-name="ccedilla" unicode="&#xe7;" horiz-adv-x="168" 
d="M195 134q-2 -19 -9.5 -39.5t-20 -37.5t-29.5 -30t-38 -17q-2 0 -4.5 -0.5t-4.5 -0.5q0 -10 0.5 -17.5t2.5 -8.5q5 -4 13 -5.5t15.5 -3.5t13 -5.5t6.5 -12.5q1 -8 -4.5 -14t-13.5 -11.5t-18 -9t-18 -4.5q-5 0 -6.5 3t-0.5 6.5t3.5 5.5t6.5 -1q10 2 21 9t8 14q-1 4 -6 6
t-11.5 3.5l-13.5 3t-11 3.5q-6 4 -8 15t0 25q-29 5 -45 31t-14 63q1 11 4.5 27.5t10.5 32t17.5 27t25.5 12.5q10 0 19.5 -5.5t16.5 -14.5t11.5 -20t4.5 -20q1 -7 -7 -8t-10 6q-2 13 -8 27t-18 15q-10 0 -16.5 -9t-10.5 -22t-6 -26t-2 -20q-2 -18 2 -35t13 -27
q15 -16 34 -16.5t39 13.5q21 14 35 38.5t19 55.5q1 8 7 7.5t5 -8.5z" />
    <glyph glyph-name="ccircumflex" unicode="&#x109;" horiz-adv-x="168" 
d="M195 134q-2 -19 -9.5 -39.5t-20 -37.5t-29.5 -30t-38 -17t-37.5 2t-28.5 19t-18 31.5t-5 41.5q1 11 4.5 27.5t10.5 32t17.5 27t25.5 12.5q10 0 19.5 -5.5t16.5 -14.5t11.5 -20t4.5 -20q1 -7 -7 -8t-10 6q-2 13 -8 27t-18 15q-10 0 -16.5 -9t-10.5 -22t-6 -26t-2 -20
q-2 -18 2 -35t13 -27q15 -16 34 -16.5t39 13.5q21 14 35 38.5t19 55.5q1 8 7 7.5t5 -8.5zM50 242q-2 -6 -11.5 -6t-11.5 6q1 7 5.5 19.5t10.5 24t13 19t12 4.5q5 0 11 -8t11.5 -18.5l10.5 -20.5t8 -15q3 -7 -5 -9.5t-13 2.5q-3 4 -6 13.5t-6.5 18.5t-7 16.5t-6.5 7.5
q-3 -2 -5.5 -9.5t-4.5 -16t-3.5 -16.5t-1.5 -12z" />
    <glyph glyph-name="cdotaccent" unicode="&#x10b;" horiz-adv-x="168" 
d="M195 134q-2 -19 -9.5 -39.5t-20 -37.5t-29.5 -30t-38 -17t-37.5 2t-28.5 19t-18 31.5t-5 41.5q1 11 4.5 27.5t10.5 32t17.5 27t25.5 12.5q10 0 19.5 -5.5t16.5 -14.5t11.5 -20t4.5 -20q1 -7 -7 -8t-10 6q-2 13 -8 27t-18 15q-10 0 -16.5 -9t-10.5 -22t-6 -26t-2 -20
q-2 -18 2 -35t13 -27q15 -16 34 -16.5t39 13.5q21 14 35 38.5t19 55.5q1 8 7 7.5t5 -8.5zM76 252q1 -4 -1 -7t-5.5 -4t-7 1t-4.5 7q-2 13 6.5 13.5t11.5 -10.5z" />
    <glyph glyph-name="dcaron" unicode="&#x10f;" horiz-adv-x="222" 
d="M155 188l7 -49t9.5 -58.5t12.5 -61.5t17 -59q17 -43 38 -49.5t43 4.5q7 3 9 -2.5t-3 -9.5q-14 -7 -30 -9t-31.5 3.5t-29.5 19t-24 37.5q-14 34 -22.5 74.5t-15.5 88.5q-13 -22 -31.5 -35t-33.5 -16q-17 -3 -30.5 2t-21.5 15.5t-9 25.5t8 32q14 27 43.5 37t63.5 11
q-5 62 -9.5 124t-6.5 126q0 3 4 6.5t9.5 4.5t10.5 -0.5t6 -7.5q0 -32 3.5 -63l7 -62.5t6 -63.5t0.5 -65zM126 174q-13 1 -27 0t-27 -6q-27 -11 -36 -37q-3 -10 -1.5 -20t7.5 -17t16 -10t23 2q17 6 29.5 21.5t19.5 35.5zM191 250q-4 4 -3.5 8t3.5 7t7.5 4t8.5 -2
q10 -6 13 -18.5t-8 -44.5q-2 -6 -8 -4t-4 7q4 12 2.5 22t-11.5 21z" />
    <glyph glyph-name="dcroat" unicode="&#x111;" horiz-adv-x="222" 
d="M155 188l7 -49t9.5 -58.5t12.5 -61.5t17 -59q17 -43 38 -49.5t43 4.5q7 3 9 -2.5t-3 -9.5q-14 -7 -30 -9t-31.5 3.5t-29.5 19t-24 37.5q-14 34 -22.5 74.5t-15.5 88.5q-13 -22 -31.5 -35t-33.5 -16q-17 -3 -30.5 2t-21.5 15.5t-9 25.5t8 32q14 27 43.5 37t63.5 11l-2 24
l-2 24q-11 -2 -21.5 -3.5t-18.5 -2.5q-3 -1 -5.5 1.5t-3 6t1 7t4.5 3.5l41 6l-6 91.5t-4 92.5q0 3 4 6.5t9.5 4.5t10.5 -0.5t6 -7.5q0 -46 6.5 -90.5t10.5 -91.5l43 5q6 2 7 -4.5t-4 -8.5l-46 -8q2 -29 0 -56zM126 174q-13 1 -27 0t-27 -6q-27 -11 -36 -37q-3 -10 -1.5 -20
t7.5 -17t16 -10t23 2q17 6 29.5 21.5t19.5 35.5z" />
    <glyph glyph-name="eacute" unicode="&#xe9;" horiz-adv-x="188" 
d="M215 134q-3 -33 -16.5 -66.5t-42.5 -53.5q-19 -12 -39 -15.5t-38.5 2.5t-33 20.5t-23.5 37.5t-9 50t7 52q7 23 23.5 37t41.5 6q13 -4 22 -14.5t13.5 -23t4.5 -26.5t-5 -24q-10 -21 -28 -34.5t-41 -20.5q2 -5 4 -9t4 -6q11 -17 26 -25.5t33 -5.5q19 4 34 15.5t25 28
t16.5 36t9.5 40.5q1 8 7 7.5t5 -8.5zM99 116q4 9 4 20t-3.5 22t-10 20t-15.5 13q-13 -7 -20 -21.5t-9 -31.5t-1 -34.5t4 -29.5q15 4 29 14.5t22 27.5zM70 299q5 5 13.5 0t3.5 -11l-41 -53q-5 -4 -9 -0.5t-2 9.5z" />
    <glyph glyph-name="ebreve" unicode="&#x115;" horiz-adv-x="188" 
d="M215 134q-3 -33 -16.5 -66.5t-42.5 -53.5q-19 -12 -39 -15.5t-38.5 2.5t-33 20.5t-23.5 37.5t-9 50t7 52q7 23 23.5 37t41.5 6q13 -4 22 -14.5t13.5 -23t4.5 -26.5t-5 -24q-10 -21 -28 -34.5t-41 -20.5q2 -5 4 -9t4 -6q11 -17 26 -25.5t33 -5.5q19 4 34 15.5t25 28
t16.5 36t9.5 40.5q1 8 7 7.5t5 -8.5zM99 116q4 9 4 20t-3.5 22t-10 20t-15.5 13q-13 -7 -20 -21.5t-9 -31.5t-1 -34.5t4 -29.5q15 4 29 14.5t22 27.5zM32 275q1 6 10 10t11 -3q8 -29 19 -28q7 1 11 9t7 22q2 6 10.5 5t9.5 -7q-2 -19 -12.5 -30.5t-23.5 -13t-25 7t-17 28.5z
" />
    <glyph glyph-name="ecaron" unicode="&#x11b;" horiz-adv-x="188" 
d="M215 134q-3 -33 -16.5 -66.5t-42.5 -53.5q-19 -12 -39 -15.5t-38.5 2.5t-33 20.5t-23.5 37.5t-9 50t7 52q7 23 23.5 37t41.5 6q13 -4 22 -14.5t13.5 -23t4.5 -26.5t-5 -24q-10 -21 -28 -34.5t-41 -20.5q2 -5 4 -9t4 -6q11 -17 26 -25.5t33 -5.5q19 4 34 15.5t25 28
t16.5 36t9.5 40.5q1 8 7 7.5t5 -8.5zM99 116q4 9 4 20t-3.5 22t-10 20t-15.5 13q-13 -7 -20 -21.5t-9 -31.5t-1 -34.5t4 -29.5q15 4 29 14.5t22 27.5zM15 297q-1 3 2 6.5t7 5.5t8 1.5t5 -3.5l4.5 -16.5t5.5 -17.5t7 -14.5t10 -7.5q1 3 1.5 12.5t0.5 21t-0.5 22.5t-0.5 17
q2 7 10 7t9 -7v-16t-1 -27.5t-3.5 -27t-7.5 -14.5q-11 -5 -20.5 0t-16.5 15t-12 22t-8 21z" />
    <glyph glyph-name="ecircumflex" unicode="&#xea;" horiz-adv-x="188" 
d="M215 134q-3 -33 -16.5 -66.5t-42.5 -53.5q-19 -12 -39 -15.5t-38.5 2.5t-33 20.5t-23.5 37.5t-9 50t7 52q7 23 23.5 37t41.5 6q13 -4 22 -14.5t13.5 -23t4.5 -26.5t-5 -24q-10 -21 -28 -34.5t-41 -20.5q2 -5 4 -9t4 -6q11 -17 26 -25.5t33 -5.5q19 4 34 15.5t25 28
t16.5 36t9.5 40.5q1 8 7 7.5t5 -8.5zM99 116q4 9 4 20t-3.5 22t-10 20t-15.5 13q-13 -7 -20 -21.5t-9 -31.5t-1 -34.5t4 -29.5q15 4 29 14.5t22 27.5zM49 242q-2 -6 -11.5 -6t-11.5 6q1 7 5.5 19.5t10.5 24t13 19t12 4.5q5 0 11 -8t11.5 -18.5l10.5 -20.5t8 -15
q3 -7 -5 -9.5t-13 2.5q-3 4 -6 13.5t-6.5 18.5t-7 16.5t-6.5 7.5q-3 -2 -5.5 -9.5t-4.5 -16t-3.5 -16.5t-1.5 -12z" />
    <glyph glyph-name="edieresis" unicode="&#xeb;" horiz-adv-x="188" 
d="M56 263q0 -8 -7 -9t-10 7l-1 2q2 9 9 9.5t9 -7.5v-2zM84 275q7 1 8.5 -6.5t-6.5 -9.5q-4 -1 -6 1t-2.5 5t1 6t5.5 4zM215 134q-3 -33 -16.5 -66.5t-42.5 -53.5q-19 -12 -39 -15.5t-38.5 2.5t-33 20.5t-23.5 37.5t-9 50t7 52q7 23 23.5 37t41.5 6q13 -4 22 -14.5t13.5 -23
t4.5 -26.5t-5 -24q-10 -21 -28 -34.5t-41 -20.5q2 -5 4 -9t4 -6q11 -17 26 -25.5t33 -5.5q19 4 34 15.5t25 28t16.5 36t9.5 40.5q1 8 7 7.5t5 -8.5zM99 116q4 9 4 20t-3.5 22t-10 20t-15.5 13q-13 -7 -20 -21.5t-9 -31.5t-1 -34.5t4 -29.5q15 4 29 14.5t22 27.5z" />
    <glyph glyph-name="edotaccent" unicode="&#x117;" horiz-adv-x="188" 
d="M215 134q-3 -33 -16.5 -66.5t-42.5 -53.5q-19 -12 -39 -15.5t-38.5 2.5t-33 20.5t-23.5 37.5t-9 50t7 52q7 23 23.5 37t41.5 6q13 -4 22 -14.5t13.5 -23t4.5 -26.5t-5 -24q-10 -21 -28 -34.5t-41 -20.5q2 -5 4 -9t4 -6q11 -17 26 -25.5t33 -5.5q19 4 34 15.5t25 28
t16.5 36t9.5 40.5q1 8 7 7.5t5 -8.5zM99 116q4 9 4 20t-3.5 22t-10 20t-15.5 13q-13 -7 -20 -21.5t-9 -31.5t-1 -34.5t4 -29.5q15 4 29 14.5t22 27.5zM72 258q1 -4 -1 -7t-5.5 -4t-7 1t-4.5 7q-2 13 6.5 13.5t11.5 -10.5z" />
    <glyph glyph-name="egrave" unicode="&#xe8;" horiz-adv-x="188" 
d="M215 134q-3 -33 -16.5 -66.5t-42.5 -53.5q-19 -12 -39 -15.5t-38.5 2.5t-33 20.5t-23.5 37.5t-9 50t7 52q7 23 23.5 37t41.5 6q13 -4 22 -14.5t13.5 -23t4.5 -26.5t-5 -24q-10 -21 -28 -34.5t-41 -20.5q2 -5 4 -9t4 -6q11 -17 26 -25.5t33 -5.5q19 4 34 15.5t25 28
t16.5 36t9.5 40.5q1 8 7 7.5t5 -8.5zM99 116q4 9 4 20t-3.5 22t-10 20t-15.5 13q-13 -7 -20 -21.5t-9 -31.5t-1 -34.5t4 -29.5q15 4 29 14.5t22 27.5zM39 288q-1 6 6.5 11t11.5 1l27 -51q2 -5 -3 -9t-10 1z" />
    <glyph glyph-name="emacron" unicode="&#x113;" horiz-adv-x="188" 
d="M215 134q-3 -33 -16.5 -66.5t-42.5 -53.5q-19 -12 -39 -15.5t-38.5 2.5t-33 20.5t-23.5 37.5t-9 50t7 52q7 23 23.5 37t41.5 6q13 -4 22 -14.5t13.5 -23t4.5 -26.5t-5 -24q-10 -21 -28 -34.5t-41 -20.5q2 -5 4 -9t4 -6q11 -17 26 -25.5t33 -5.5q19 4 34 15.5t25 28
t16.5 36t9.5 40.5q1 8 7 7.5t5 -8.5zM99 116q4 9 4 20t-3.5 22t-10 20t-15.5 13q-13 -7 -20 -21.5t-9 -31.5t-1 -34.5t4 -29.5q15 4 29 14.5t22 27.5zM33 245q-7 -1 -8 8t5 11q17 1 38.5 1h26.5q7 0 8 -6t-7 -7q-18 -2 -32 -4t-31 -3z" />
    <glyph glyph-name="eogonek" unicode="&#x119;" horiz-adv-x="188" 
d="M215 134q-2 -20 -7.5 -40t-15 -38t-24.5 -32.5t-36 -21.5q-11 -11 -17.5 -23.5t-1.5 -19.5q5 -6 16.5 -6.5t21.5 -0.5q8 -1 8 -8t-7 -9q-7 -1 -16 -0.5t-17.5 2t-15.5 5.5t-10 10q-4 10 1.5 22.5t14.5 23.5q-28 -2 -51.5 13.5t-35.5 47.5q-9 23 -9 50t7 52q7 23 23.5 37
t41.5 6q13 -4 22 -14.5t13.5 -23t4.5 -26.5t-5 -24q-10 -21 -28 -34.5t-41 -20.5q8 -20 25.5 -34t41.5 -12q19 4 34 15.5t25 28t16.5 36t9.5 40.5q1 8 7 7.5t5 -8.5zM99 116q4 9 4 20t-3.5 22t-10 20t-15.5 13q-13 -7 -20 -21.5t-9 -31.5t-1 -34.5t4 -29.5q15 4 29 14.5
t22 27.5z" />
    <glyph glyph-name="gbreve" unicode="&#x11f;" horiz-adv-x="191" 
d="M125 201q3 -2 8 -6.5t4 -8.5q-1 -2 -4.5 -3t-7.5 -1q0 -20 -8 -42q6 -32 14 -59.5t12 -38.5q7 -26 18.5 -64t22.5 -82q8 0 16.5 -0.5t16.5 -1.5q11 -2 10.5 -8.5t-8.5 -6.5l-31 2q12 -55 16.5 -108t-11.5 -88q-17 -38 -53.5 -49t-79.5 -4t-86 29t-74.5 51t-44.5 61t5 59
q17 26 50.5 39.5t74.5 19t85.5 5.5h83.5q-11 42 -22 79t-18 63q-5 16 -9.5 32.5l-8.5 32.5q-8 -9 -19.5 -18t-23.5 -14t-23 -4.5t-18 10.5q-11 14 -7.5 32t14.5 35.5t27.5 32.5t32.5 22q0 28 8 38q5 7 15.5 5t15.5 -12q3 -7 4 -14t3 -15zM-120 -175q-13 -23 -1 -50
t38.5 -52.5t63 -45.5t72.5 -27.5t66 1t45 40.5t11 82t-18 110q-36 1 -78.5 0.5t-82 -5.5t-71.5 -17.5t-45 -35.5zM91 121q-4 15 -6.5 30.5t-4.5 31.5q-13 -7 -24.5 -19.5t-18.5 -26t-8.5 -26t4.5 -19.5t14.5 -5t17 8t15.5 13.5t11 12.5zM109 192q0 -5 0.5 -9t1.5 -9
q0 5 0.5 8.5t-0.5 8.5q-1 1 -2 1zM109 211v-6h1q0 5 -1 6zM5 261q1 6 10 10t11 -3q8 -29 19 -28q7 1 11 9t7 22q2 6 10.5 5t9.5 -7q-2 -19 -12.5 -30.5t-23.5 -13t-25 7t-17 28.5z" />
    <glyph glyph-name="gcircumflex" unicode="&#x11d;" horiz-adv-x="191" 
d="M22 213q1 -6 -8.5 -7t-12.5 4q-1 7 0.5 21t5 27.5t8 23.5t10.5 9q5 1 12.5 -4.5t15 -13.5t14 -16t10.5 -12q5 -6 -4 -10t-14 1q-12 14 -18.5 26t-12.5 11q-2 -3 -3.5 -11.5t-2 -18t-0.5 -18v-12.5zM125 201q3 -2 8 -6.5t4 -8.5q-1 -2 -4.5 -3t-7.5 -1q0 -20 -8 -42
q6 -32 14 -59.5t12 -38.5q7 -26 18.5 -64t22.5 -82q8 0 16.5 -0.5t16.5 -1.5q11 -2 10.5 -8.5t-8.5 -6.5l-31 2q12 -55 16.5 -108t-11.5 -88q-17 -38 -53.5 -49t-79.5 -4t-86 29t-74.5 51t-44.5 61t5 59q17 26 50.5 39.5t74.5 19t85.5 5.5h83.5q-11 42 -22 79t-18 63
q-5 16 -9.5 32.5l-8.5 32.5q-8 -9 -19.5 -18t-23.5 -14t-23 -4.5t-18 10.5q-11 14 -7.5 32t14.5 35.5t27.5 32.5t32.5 22q0 28 8 38q5 7 15.5 5t15.5 -12q3 -7 4 -14t3 -15zM-120 -175q-13 -23 -1 -50t38.5 -52.5t63 -45.5t72.5 -27.5t66 1t45 40.5t11 82t-18 110
q-36 1 -78.5 0.5t-82 -5.5t-71.5 -17.5t-45 -35.5zM91 121q-4 15 -6.5 30.5t-4.5 31.5q-13 -7 -24.5 -19.5t-18.5 -26t-8.5 -26t4.5 -19.5t14.5 -5t17 8t15.5 13.5t11 12.5zM109 192q0 -5 0.5 -9t1.5 -9q0 5 0.5 8.5t-0.5 8.5q-1 1 -2 1zM109 211v-6h1q0 5 -1 6z" />
    <glyph glyph-name="gcommaaccent" unicode="&#x123;" horiz-adv-x="191" 
d="M125 201q3 -2 8 -6.5t4 -8.5q-1 -2 -4.5 -3t-7.5 -1q0 -20 -8 -42q6 -32 14 -59.5t12 -38.5q7 -26 18.5 -64t22.5 -82q8 0 16.5 -0.5t16.5 -1.5q11 -2 10.5 -8.5t-8.5 -6.5l-31 2q12 -55 16.5 -108t-11.5 -88q-17 -38 -53.5 -49t-79.5 -4t-86 29t-74.5 51t-44.5 61t5 59
q17 26 50.5 39.5t74.5 19t85.5 5.5h83.5q-11 42 -22 79t-18 63q-5 16 -9.5 32.5l-8.5 32.5q-8 -9 -19.5 -18t-23.5 -14t-23 -4.5t-18 10.5q-11 14 -7.5 32t14.5 35.5t27.5 32.5t32.5 22q0 28 8 38q5 7 15.5 5t15.5 -12q3 -7 4 -14t3 -15zM-120 -175q-13 -23 -1 -50
t38.5 -52.5t63 -45.5t72.5 -27.5t66 1t45 40.5t11 82t-18 110q-36 1 -78.5 0.5t-82 -5.5t-71.5 -17.5t-45 -35.5zM91 121q-4 15 -6.5 30.5t-4.5 31.5q-13 -7 -24.5 -19.5t-18.5 -26t-8.5 -26t4.5 -19.5t14.5 -5t17 8t15.5 13.5t11 12.5zM109 192q0 -5 0.5 -9t1.5 -9
q0 5 0.5 8.5t-0.5 8.5q-1 1 -2 1zM109 211v-6h1q0 5 -1 6zM46.001 235.998q4 -4 3.5 -8q-0.5 -3.99902 -3.5 -6.99902t-7.5 -4q-4.49902 -1 -8.49902 2q-9.99902 6 -12.999 18.499t7.99902 44.4971q2 6 8 4q5.99902 -2 4 -7q-4 -11.999 -2.5 -21.998q1.5 -10 11.499 -20.999
z" />
    <glyph glyph-name="gdotaccent" unicode="&#x121;" horiz-adv-x="191" 
d="M125 201q3 -2 8 -6.5t4 -8.5q-1 -2 -4.5 -3t-7.5 -1q0 -20 -8 -42q6 -32 14 -59.5t12 -38.5q7 -26 18.5 -64t22.5 -82q8 0 16.5 -0.5t16.5 -1.5q11 -2 10.5 -8.5t-8.5 -6.5l-31 2q12 -55 16.5 -108t-11.5 -88q-17 -38 -53.5 -49t-79.5 -4t-86 29t-74.5 51t-44.5 61t5 59
q17 26 50.5 39.5t74.5 19t85.5 5.5h83.5q-11 42 -22 79t-18 63q-5 16 -9.5 32.5l-8.5 32.5q-8 -9 -19.5 -18t-23.5 -14t-23 -4.5t-18 10.5q-11 14 -7.5 32t14.5 35.5t27.5 32.5t32.5 22q0 28 8 38q5 7 15.5 5t15.5 -12q3 -7 4 -14t3 -15zM-120 -175q-13 -23 -1 -50
t38.5 -52.5t63 -45.5t72.5 -27.5t66 1t45 40.5t11 82t-18 110q-36 1 -78.5 0.5t-82 -5.5t-71.5 -17.5t-45 -35.5zM91 121q-4 15 -6.5 30.5t-4.5 31.5q-13 -7 -24.5 -19.5t-18.5 -26t-8.5 -26t4.5 -19.5t14.5 -5t17 8t15.5 13.5t11 12.5zM109 192q0 -5 0.5 -9t1.5 -9
q0 5 0.5 8.5t-0.5 8.5q-1 1 -2 1zM109 211v-6h1q0 5 -1 6zM39 226q1 -4 -1 -7t-5.5 -4t-7 1t-4.5 7q-2 13 6.5 13.5t11.5 -10.5z" />
    <glyph glyph-name="hbar" unicode="&#x127;" horiz-adv-x="203" 
d="M-8 297q-7 0 -8 9t5 10q5 1 11 1h13q1 35 5 66t13 44q10 13 26 11.5t33.5 -13t34 -30t28.5 -38.5t17 -38.5t-2 -30.5q-8 -14 -21.5 -23.5t-31 -17t-36 -13.5t-36.5 -11q0 -19 0.5 -34.5t0.5 -29.5q5 11 14 18.5t21 8.5q21 1 36.5 -21t29 -52.5t26 -62t27.5 -50.5
q4 -5 9 -9.5t12 -7.5q5 -2 2.5 -5.5t-9.5 -3.5q-16 0 -30.5 15.5t-27.5 38.5t-25 49t-23 47t-21.5 33.5t-19.5 8.5q-14 -14 -19 -47v-15q2 -45 4 -66t2 -28q0 -3 -3.5 -5.5t-8 -3t-9.5 1t-6 6.5q-7 48 -8.5 100.5t-3.5 106.5l-18 -4q-7 -1 -10 5.5t10 8.5l18 4q-1 14 -1 32
v37zM148 293q5 12 -1.5 32.5t-19.5 41t-30.5 37t-33.5 20.5q-5 -2 -9 -11.5t-6 -24.5t-3.5 -33t-1.5 -37h11q7 0 8 -6.5t-7 -7.5l-13 -1v-37.5t1 -28.5q13 3 29.5 9t32 13.5t27.5 16t16 17.5z" />
    <glyph glyph-name="hcircumflex" unicode="&#x125;" horiz-adv-x="203" 
d="M38 459q-1 -6 -10 -7t-11 4q0 7 3 20.5t7.5 26.5t10 21.5t10.5 7.5q5 1 12.5 -5.5t15 -16t14 -19t9.5 -13.5q3 -6 -6 -10t-14 1q-3 4 -6.5 11.5t-8 15.5t-8.5 13.5t-7 5.5q-3 -3 -4.5 -10.5t-3 -16.5t-2.5 -17t-1 -12zM-5 212q-7 -1 -10 5.5t10 8.5l18 4q0 22 -0.5 51.5
t1 58.5t5.5 52.5t12 34.5q10 13 26 11.5t33.5 -13t34 -30t28.5 -38.5t17 -38.5t-2 -30.5q-8 -14 -21.5 -23.5t-31 -17t-36 -13.5t-36.5 -11q0 -19 0.5 -34.5t0.5 -29.5q5 11 14 18.5t21 8.5q21 1 36.5 -21t29 -52.5t26 -62t27.5 -50.5q4 -5 9 -9.5t12 -7.5q5 -2 2.5 -5.5
t-9.5 -3.5q-16 0 -30.5 15.5t-27.5 38.5t-25 49t-23 47t-21.5 33.5t-19.5 8.5q-14 -14 -19 -47v-15q2 -45 4 -66t2 -28q0 -3 -3.5 -5.5t-8 -3t-9.5 1t-6 6.5q-7 48 -8.5 100.5t-3.5 106.5zM148 293q5 12 -1.5 32.5t-19.5 41t-30.5 37t-33.5 20.5q-8 -3 -12.5 -26.5t-6 -53.5
t-1.5 -60.5v-46.5q13 3 29.5 9t32 13.5t27.5 16t16 17.5z" />
    <glyph glyph-name="dotlessi" unicode="&#x131;" horiz-adv-x="114" 
d="M14 165q0 5 4.5 7t9.5 1.5t10 -2.5t7 -6q1 -21 2 -48t4.5 -50.5t10.5 -38.5t20 -10q11 6 19.5 21t14 32.5t8.5 35l5 28.5q1 8 7 7.5t5 -8.5q-1 -15 -5.5 -38.5t-13.5 -45t-24 -36.5t-36 -12q-17 2 -26 18.5t-13.5 40.5t-6 51.5t-2.5 52.5z" />
    <glyph glyph-name="iacute" unicode="&#xed;" horiz-adv-x="114" 
d="M14 165q0 5 4.5 7t9.5 1.5t10 -2.5t7 -6q1 -21 2 -48t4.5 -50.5t10.5 -38.5t20 -10q11 6 19.5 21t14 32.5t8.5 35l5 28.5q1 8 7 7.5t5 -8.5q-1 -15 -5.5 -38.5t-13.5 -45t-24 -36.5t-36 -12q-17 2 -26 18.5t-13.5 40.5t-6 51.5t-2.5 52.5zM25 268q5 5 13.5 0t3.5 -11
l-41 -53q-5 -4 -9 -0.5t-2 9.5z" />
    <glyph glyph-name="ibreve" unicode="&#x12d;" horiz-adv-x="114" 
d="M14 165q0 5 4.5 7t9.5 1.5t10 -2.5t7 -6q1 -21 2 -48t4.5 -50.5t10.5 -38.5t20 -10q11 6 19.5 21t14 32.5t8.5 35l5 28.5q1 8 7 7.5t5 -8.5q-1 -15 -5.5 -38.5t-13.5 -45t-24 -36.5t-36 -12q-17 2 -26 18.5t-13.5 40.5t-6 51.5t-2.5 52.5zM-18 243q1 6 10 10t11 -3
q8 -29 19 -28q7 1 11 9t7 22q2 6 10.5 5t9.5 -7q-2 -19 -12.5 -30.5t-23.5 -13t-25 7t-17 28.5z" />
    <glyph glyph-name="icircumflex" unicode="&#xee;" horiz-adv-x="114" 
d="M14 165q0 5 4.5 7t9.5 1.5t10 -2.5t7 -6q1 -21 2 -48t4.5 -50.5t10.5 -38.5t20 -10q11 6 19.5 21t14 32.5t8.5 35l5 28.5q1 8 7 7.5t5 -8.5q-1 -15 -5.5 -38.5t-13.5 -45t-24 -36.5t-36 -12q-17 2 -26 18.5t-13.5 40.5t-6 51.5t-2.5 52.5zM4 202q-2 -6 -11.5 -6t-11.5 6
q1 7 5.5 19.5t10.5 24t13 19t12 4.5q5 0 11 -8t11.5 -18.5l10.5 -20.5t8 -15q3 -7 -5 -9.5t-13 2.5q-3 4 -6 13.5t-6.5 18.5t-7 16.5t-6.5 7.5q-3 -2 -5.5 -9.5t-4.5 -16t-3.5 -16.5t-1.5 -12z" />
    <glyph glyph-name="idieresis" unicode="&#xef;" horiz-adv-x="114" 
d="M14 165q0 5 4.5 7t9.5 1.5t10 -2.5t7 -6q1 -21 2 -48t4.5 -50.5t10.5 -38.5t20 -10q11 6 19.5 21t14 32.5t8.5 35l5 28.5q1 8 7 7.5t5 -8.5q-1 -15 -5.5 -38.5t-13.5 -45t-24 -36.5t-36 -12q-17 2 -26 18.5t-13.5 40.5t-6 51.5t-2.5 52.5zM12 217q-2 -8 -9.5 -8t-10.5 8
v3q2 10 10.5 10t9.5 -10v-3zM39 229q8 -1 9.5 -9t-8.5 -10q-9 -1 -9.5 8t8.5 11z" />
    <glyph glyph-name="igrave" unicode="&#xec;" horiz-adv-x="114" 
d="M14 165q0 5 4.5 7t9.5 1.5t10 -2.5t7 -6q1 -21 2 -48t4.5 -50.5t10.5 -38.5t20 -10q11 6 19.5 21t14 32.5t8.5 35l5 28.5q1 8 7 7.5t5 -8.5q-1 -15 -5.5 -38.5t-13.5 -45t-24 -36.5t-36 -12q-17 2 -26 18.5t-13.5 40.5t-6 51.5t-2.5 52.5zM2 258q-1 6 6.5 11t11.5 1
l27 -51q2 -5 -3 -9t-10 1z" />
    <glyph glyph-name="imacron" unicode="&#x12b;" horiz-adv-x="114" 
d="M14 165q0 5 4.5 7t9.5 1.5t10 -2.5t7 -6q1 -21 2 -48t4.5 -50.5t10.5 -38.5t20 -10q11 6 19.5 21t14 32.5t8.5 35l5 28.5q1 8 7 7.5t5 -8.5q-1 -15 -5.5 -38.5t-13.5 -45t-24 -36.5t-36 -12q-17 2 -26 18.5t-13.5 40.5t-6 51.5t-2.5 52.5zM-10 227q-7 -1 -8 8t5 11
q17 1 38.5 1h26.5q7 0 8 -6t-7 -7q-18 -2 -32 -4t-31 -3z" />
    <glyph glyph-name="iogonek" unicode="&#x12f;" horiz-adv-x="114" 
d="M14 165v3q1 4 6 5.5t10.5 0.5t10 -3.5t4.5 -5.5q0 -16 1 -35.5t2.5 -38t5.5 -35t10 -26.5q10 -17 19 -11q11 6 19 20.5t13.5 32t8.5 35l5 28.5q1 8 7 7.5t5 -8.5q-1 -14 -4.5 -34.5t-11 -40.5t-19 -36t-28.5 -20q-11 -11 -18 -24t-2 -20q5 -6 16.5 -6.5t21.5 -0.5
q8 -1 8 -8t-7 -9q-7 -1 -16 -0.5t-17.5 2t-15.5 5.5t-10 10q-5 11 2.5 25.5t18.5 25.5q-16 3 -24.5 20t-12.5 40.5t-5.5 50.5t-2.5 51zM25 219q-10 0 -10.5 7.5t14.5 8.5q4 0 7.5 -2.5t4 -5.5t-3 -5.5t-12.5 -2.5z" />
    <glyph glyph-name="itilde" unicode="&#x129;" horiz-adv-x="114" 
d="M14 165q0 5 4.5 7t9.5 1.5t10 -2.5t7 -6q1 -21 2 -48t4.5 -50.5t10.5 -38.5t20 -10q11 6 19.5 21t14 32.5t8.5 35l5 28.5q1 8 7 7.5t5 -8.5q-1 -15 -5.5 -38.5t-13.5 -45t-24 -36.5t-36 -12q-17 2 -26 18.5t-13.5 40.5t-6 51.5t-2.5 52.5zM-3 214q-1 -6 -6.5 -5.5
t-6.5 5.5q0 4 1.5 11t4 13.5t7 11.5t10.5 4q10 -1 20 -9t15 -10t9 1t6 5q4 5 7.5 0.5t-0.5 -10.5q-2 -5 -8 -9t-14 -4q-4 0 -9 2t-9.5 5l-8.5 5.5t-7 1.5q-5 -1 -7 -6t-4 -12z" />
    <glyph glyph-name="dotlessj" unicode="&#x237;" horiz-adv-x="99" 
d="M18 -366q-21 0 -40.5 9.5t-34.5 26t-24 38t-9 45.5q-2 29 10 58t32.5 53.5t48 44t56.5 29.5l-27.5 124t-23.5 124q1 6 5 8t9.5 2t10 -2t5.5 -5q8 -57 21.5 -114t28.5 -128q59 12 114 8t98 -13q8 -4 7.5 -8.5t-7.5 -5.5q-23 5 -50 8.5t-54.5 5t-54.5 0t-50 -6.5
q6 -31 14 -67t12.5 -71t3 -67t-14.5 -54q-12 -21 -36 -32t-50 -10zM58 -341q17 9 24.5 29t9 45t-2.5 53t-9.5 54.5t-11 49t-8.5 36.5q-60 -23 -94.5 -71.5t-32.5 -102.5q1 -23 12 -45t28.5 -37t39.5 -19.5t45 8.5z" />
    <glyph glyph-name="jcircumflex" unicode="&#x135;" horiz-adv-x="99" 
d="M-11 214q0 -6 -9.5 -7t-11.5 5q-1 7 1.5 20.5t7 26t10.5 21t11 7.5q5 1 12.5 -6t14.5 -16.5t13.5 -19.5t9.5 -14q2 -3 0.5 -5.5t-5 -4t-7.5 -1.5t-7 3q-3 4 -7 11.5t-8.5 15t-8.5 13t-7 5.5q-2 -3 -4 -10.5t-3 -15.5t-1.5 -16t-0.5 -12zM18 -366q-21 0 -40.5 9.5
t-34.5 26t-24 38t-9 45.5q-2 29 10 58t32.5 53.5t48 44t56.5 29.5l-27.5 124t-23.5 124q1 6 5 8t9.5 2t10 -2t5.5 -5q8 -57 21.5 -114t28.5 -128q59 12 114 8t98 -13q8 -4 7.5 -8.5t-7.5 -5.5q-23 5 -50 8.5t-54.5 5t-54.5 0t-50 -6.5q6 -31 14 -67t12.5 -71t3 -67
t-14.5 -54q-12 -21 -36 -32t-50 -10zM58 -341q17 9 24.5 29t9 45t-2.5 53t-9.5 54.5t-11 49t-8.5 36.5q-60 -23 -94.5 -71.5t-32.5 -102.5q1 -23 12 -45t28.5 -37t39.5 -19.5t45 8.5z" />
    <glyph glyph-name="kcommaaccent" unicode="&#x137;" horiz-adv-x="226" 
d="M-15 259q-8 -3 -8.5 4t4.5 10l24 12q0 14 -0.5 26t-0.5 26t-0.5 43.5t2 61.5t10 60.5t22.5 41.5q18 15 41.5 10.5t45 -20.5t36.5 -39.5t15 -44.5q1 -26 -12 -49.5t-33.5 -44.5t-46 -39t-50.5 -32q1 -57 6 -116q9 19 22 38t28 31t30.5 14.5t29.5 -11.5q15 -17 2.5 -41
t-42.5 -46q34 -12 55 -41.5t35.5 -66t27 -75.5t28.5 -70t40.5 -50t62.5 -15q7 1 7 -6t-7 -8q-16 -1 -34 1t-29 7q-28 11 -45.5 36.5t-30.5 57t-23.5 66t-24.5 65t-34 54t-51 32.5l-22 -10.5t-22 -7.5l6 -70t7 -71q0 -6 -4.5 -9t-10 -3t-10.5 2.5t-5 7.5q-8 88 -13 155.5
t-7 133.5zM157 450q0 13 -10.5 32.5t-26.5 35t-33 21t-29 -9.5q-11 -14 -16.5 -37.5t-7.5 -50.5t-1.5 -54.5t1.5 -49.5v-37q19 12 41 27.5t40 34.5t30 41.5t12 46.5zM131 226q-10 11 -23 4t-25 -22t-21 -32.5t-12 -26.5q18 7 37 7q12 8 22.5 18t17 19.5t8 18t-3.5 14.5z
M99 -33q-4 4 -3.5 8t3.5 7t7.5 4t8.5 -2q10 -6 13 -18.5t-8 -44.5q-2 -6 -8 -4t-4 7q4 12 2.5 22t-11.5 21z" />
    <glyph glyph-name="kgreenlandic" unicode="&#x138;" horiz-adv-x="226" 
d="M56 -18q0 -5 -4 -8t-9 -3.5t-10.5 1.5t-6.5 8q-4 44 -7.5 95t-6.5 101l-5.5 95.5t-5.5 78.5q0 6 4.5 9t10 3.5t10.5 -2.5t5 -9q2 -24 4 -67.5t7 -109.5q9 18 22 36t28 29.5t30 13.5t28 -12q15 -17 2.5 -41t-42.5 -46q34 -12 55 -41.5t35.5 -66t27 -75.5t28.5 -70
t40.5 -50t62.5 -15q7 1 7 -6t-7 -8q-16 -1 -34 1t-29 7q-28 11 -45.5 36.5t-30.5 57t-23.5 66t-24.5 65t-34 54t-51 32.5l-20.5 -10t-21.5 -8q3 -32 5 -66t6 -75zM131 226q-10 11 -23 4t-25 -22t-21 -32.5t-12 -26.5q18 7 37 7q12 8 22.5 18t17 19.5t8 18t-3.5 14.5z" />
    <glyph glyph-name="lacute" unicode="&#x13a;" horiz-adv-x="103" 
d="M9 218q-1 38 -2.5 76t0.5 80q0 6 5 7.5t10 0.5t9.5 -4t4.5 -7q0 -43 1 -85.5t3 -85.5q1 -11 1.5 -33.5t2.5 -48t6 -50t12 -39.5q5 -9 13 -5q7 7 14 20.5t13 29.5t10 32.5t6 28.5q1 8 7.5 7t4.5 -8q-2 -13 -7.5 -35.5t-14 -44t-21 -36.5t-28.5 -13q-14 2 -22.5 21
t-14 48.5t-8 67t-5.5 76.5zM20 470q5 5 13.5 0t3.5 -11l-41 -53q-5 -4 -9 -0.5t-2 9.5z" />
    <glyph glyph-name="lcaron" unicode="&#x13e;" horiz-adv-x="103" 
d="M9 218q-1 38 -2.5 76t0.5 80q0 6 5 7.5t10 0.5t9.5 -4t4.5 -7q0 -43 1 -85.5t3 -85.5q1 -11 1.5 -33.5t2.5 -48t6 -50t12 -39.5q5 -9 13 -5q7 7 14 20.5t13 29.5t10 32.5t6 28.5q1 8 7.5 7t4.5 -8q-2 -13 -7.5 -35.5t-14 -44t-21 -36.5t-28.5 -13q-14 2 -22.5 21
t-14 48.5t-8 67t-5.5 76.5zM66 250q-4 4 -3.5 8t3.5 7t7.5 4t8.5 -2q10 -6 13 -18.5t-8 -44.5q-2 -6 -8 -4t-4 7q4 12 2.5 22t-11.5 21z" />
    <glyph glyph-name="lcommaaccent" unicode="&#x13c;" horiz-adv-x="103" 
d="M9 218q-1 38 -2.5 76t0.5 80q0 6 5 7.5t10 0.5t9.5 -4t4.5 -7q0 -43 1 -85.5t3 -85.5q1 -11 1.5 -33.5t2.5 -48t6 -50t12 -39.5q5 -9 13 -5q7 7 14 20.5t13 29.5t10 32.5t6 28.5q1 8 7.5 7t4.5 -8q-2 -13 -7.5 -35.5t-14 -44t-21 -36.5t-28.5 -13q-14 2 -22.5 21
t-14 48.5t-8 67t-5.5 76.5zM56 -34q-4 4 -3.5 8t3.5 7t7.5 4t8.5 -2q10 -6 13 -18.5t-8 -44.5q-2 -6 -8 -4t-4 7q4 12 2.5 22t-11.5 21z" />
    <glyph glyph-name="ldot" unicode="&#x140;" horiz-adv-x="103" 
d="M9 218q-1 38 -2.5 76t0.5 80q0 6 5 7.5t10 0.5t9.5 -4t4.5 -7q0 -43 1 -85.5t3 -85.5q1 -11 1.5 -33.5t2.5 -48t6 -50t12 -39.5q5 -9 13 -5q7 7 14 20.5t13 29.5t10 32.5t6 28.5q1 8 7.5 7t4.5 -8q-2 -13 -7.5 -35.5t-14 -44t-21 -36.5t-28.5 -13q-14 2 -22.5 21
t-14 48.5t-8 67t-5.5 76.5zM73 161q-2 -8 -10 -8t-10 8v2q2 10 10.5 10t9.5 -10v-2z" />
    <glyph glyph-name="lslash" unicode="&#x142;" horiz-adv-x="103" 
d="M10 196l-3.5 95.5t0.5 82.5q0 6 5 7.5t10 0.5t9.5 -4t4.5 -7q0 -80 3 -159l23 13q5 3 8.5 -2.5t-1.5 -8.5q-7 -5 -14 -9.5l-15 -9.5q1 -13 1.5 -35.5t2.5 -47t6 -47.5t12 -36q5 -9 13 -5q7 7 14 20.5t13 29.5t10 32.5t6 28.5q1 8 7.5 7t4.5 -8q-2 -13 -7.5 -35.5t-14 -44
t-21 -36.5t-28.5 -13q-13 2 -21 16.5t-13.5 38.5t-8.5 54.5t-5 63.5l-22 -13q-6 -3 -8.5 5t3.5 12z" />
    <glyph glyph-name="periodcentered" unicode="&#xb7;" horiz-adv-x="55" 
d="M35 161q-2 -8 -10 -8t-10 8v2q2 10 10.5 10t9.5 -10v-2z" />
    <glyph glyph-name="nacute" unicode="&#x144;" horiz-adv-x="233" 
d="M10 238q0 6 4.5 8t10 1.5t10 -3t4.5 -6.5q1 -19 2 -42.5t2.5 -49t4 -50.5t7.5 -47q7 16 15 36.5t17 40t20 35t23 20.5q11 5 25.5 2.5t21.5 -13.5q10 -14 15 -35.5t10 -45.5t11.5 -47.5t18.5 -40.5q20 -27 54 -15q5 2 8.5 -3.5t-4.5 -9.5q-18 -8 -31 -8.5t-21 1.5
q-20 6 -32 23.5t-20 40t-12.5 47.5l-8.5 45.5t-9 34t-14 13.5q-13 0 -25 -23.5t-22.5 -52t-19 -55t-14.5 -32.5q-5 -5 -14 -5t-12 7t-6 18t-5 25q-7 45 -10 91.5t-4 94.5zM127 281q5 5 13.5 0t3.5 -11l-41 -53q-5 -4 -9 -0.5t-2 9.5z" />
    <glyph glyph-name="napostrophe" unicode="&#x149;" horiz-adv-x="233" 
d="M10 238q0 6 4.5 8t10 1.5t10 -3t4.5 -6.5q1 -19 2 -42.5t2.5 -49t4 -50.5t7.5 -47q7 16 15 36.5t17 40t20 35t23 20.5q11 5 25.5 2.5t21.5 -13.5q10 -14 15 -35.5t10 -45.5t11.5 -47.5t18.5 -40.5q20 -27 54 -15q5 2 8.5 -3.5t-4.5 -9.5q-18 -8 -31 -8.5t-21 1.5
q-20 6 -32 23.5t-20 40t-12.5 47.5l-8.5 45.5t-9 34t-14 13.5q-13 0 -25 -23.5t-22.5 -52t-19 -55t-14.5 -32.5q-5 -5 -14 -5t-12 7t-6 18t-5 25q-7 45 -10 91.5t-4 94.5zM-30 270q-4 4 -3.5 8t3.5 7t7.5 4t8.5 -2q10 -6 13 -18.5t-8 -44.5q-2 -6 -8 -4t-4 7q4 12 2.5 22
t-11.5 21z" />
    <glyph glyph-name="ncaron" unicode="&#x148;" horiz-adv-x="233" 
d="M10 238q0 6 4.5 8t10 1.5t10 -3t4.5 -6.5q1 -19 2 -42.5t2.5 -49t4 -50.5t7.5 -47q7 16 15 36.5t17 40t20 35t23 20.5q11 5 25.5 2.5t21.5 -13.5q10 -14 15 -35.5t10 -45.5t11.5 -47.5t18.5 -40.5q20 -27 54 -15q5 2 8.5 -3.5t-4.5 -9.5q-18 -8 -31 -8.5t-21 1.5
q-20 6 -32 23.5t-20 40t-12.5 47.5l-8.5 45.5t-9 34t-14 13.5q-13 0 -25 -23.5t-22.5 -52t-19 -55t-14.5 -32.5q-5 -5 -14 -5t-12 7t-6 18t-5 25q-7 45 -10 91.5t-4 94.5zM82 270q-1 3 2 6.5t7 5.5t8 1.5t5 -3.5l4.5 -16.5t5.5 -17.5t7 -14.5t10 -7.5q1 3 1.5 12.5t0.5 21
t-0.5 22.5t-0.5 17q2 7 10 7t9 -7v-16t-1 -27.5t-3.5 -27t-7.5 -14.5q-11 -5 -20.5 0t-16.5 15t-12 22t-8 21z" />
    <glyph glyph-name="ncommaaccent" unicode="&#x146;" horiz-adv-x="233" 
d="M10 238q0 6 4.5 8t10 1.5t10 -3t4.5 -6.5q1 -19 2 -42.5t2.5 -49t4 -50.5t7.5 -47q7 16 15 36.5t17 40t20 35t23 20.5q11 5 25.5 2.5t21.5 -13.5q10 -14 15 -35.5t10 -45.5t11.5 -47.5t18.5 -40.5q20 -27 54 -15q5 2 8.5 -3.5t-4.5 -9.5q-18 -8 -31 -8.5t-21 1.5
q-20 6 -32 23.5t-20 40t-12.5 47.5l-8.5 45.5t-9 34t-14 13.5q-13 0 -25 -23.5t-22.5 -52t-19 -55t-14.5 -32.5q-5 -5 -14 -5t-12 7t-6 18t-5 25q-7 45 -10 91.5t-4 94.5zM125 -16q-4 4 -3.5 8t3.5 7t7.5 4t8.5 -2q10 -6 13 -18.5t-8 -44.5q-2 -6 -8 -4t-4 7q4 12 2.5 22
t-11.5 21z" />
    <glyph glyph-name="ntilde" unicode="&#xf1;" horiz-adv-x="233" 
d="M10 238q0 6 4.5 8t10 1.5t10 -3t4.5 -6.5q1 -19 2 -42.5t2.5 -49t4 -50.5t7.5 -47q7 16 15 36.5t17 40t20 35t23 20.5q11 5 25.5 2.5t21.5 -13.5q10 -14 15 -35.5t10 -45.5t11.5 -47.5t18.5 -40.5q20 -27 54 -15q5 2 8.5 -3.5t-4.5 -9.5q-18 -8 -31 -8.5t-21 1.5
q-20 6 -32 23.5t-20 40t-12.5 47.5l-8.5 45.5t-9 34t-14 13.5q-13 0 -25 -23.5t-22.5 -52t-19 -55t-14.5 -32.5q-5 -5 -14 -5t-12 7t-6 18t-5 25q-7 45 -10 91.5t-4 94.5zM101 219q-1 -6 -6.5 -5.5t-6.5 5.5q0 4 1.5 11t4 13.5t7 11.5t10.5 4q10 -1 20 -9t15 -10t9 1t6 5
q4 5 7.5 0.5t-0.5 -10.5q-2 -5 -8 -9t-14 -4q-4 0 -9 2t-9.5 5l-8.5 5.5t-7 1.5q-5 -1 -7 -6t-4 -12z" />
    <glyph glyph-name="oacute" unicode="&#xf3;" 
d="M80 13q-23 -1 -39.5 18t-23.5 45.5t-2.5 55.5t22.5 49q7 19 28 19q14 0 25 -7.5t19 -20t13.5 -28t8.5 -30.5q5 2 8 -3.5t-7 -10.5q1 -9 -0.5 -24t-7 -28.5t-16 -24t-28.5 -10.5zM110 96q-47 -8 -66 35q-2 -15 0 -33t7.5 -34t13 -26.5t17.5 -9.5q11 0 17 7t8.5 17.5t3 22
t-0.5 21.5zM109 109q-1 8 -2.5 19t-5 22t-9.5 20.5t-15 13.5q-5 1 -10 -1.5t-8 -12.5q-3 -13 0.5 -24.5t11 -20t18 -13t20.5 -3.5zM76 298q5 5 13.5 0t3.5 -11l-41 -53q-5 -4 -9 -0.5t-2 9.5z" />
    <glyph glyph-name="obreve" unicode="&#x14f;" 
d="M80 13q-23 -1 -39.5 18t-23.5 45.5t-2.5 55.5t22.5 49q7 19 28 19q14 0 25 -7.5t19 -20t13.5 -28t8.5 -30.5q5 2 8 -3.5t-7 -10.5q1 -9 -0.5 -24t-7 -28.5t-16 -24t-28.5 -10.5zM110 96q-47 -8 -66 35q-2 -15 0 -33t7.5 -34t13 -26.5t17.5 -9.5q11 0 17 7t8.5 17.5t3 22
t-0.5 21.5zM109 109q-1 8 -2.5 19t-5 22t-9.5 20.5t-15 13.5q-5 1 -10 -1.5t-8 -12.5q-3 -13 0.5 -24.5t11 -20t18 -13t20.5 -3.5zM22 276q1 6 10 10t11 -3q8 -29 19 -28q7 1 11 9t7 22q2 6 10.5 5t9.5 -7q-2 -19 -12.5 -30.5t-23.5 -13t-25 7t-17 28.5z" />
    <glyph glyph-name="ocircumflex" unicode="&#xf4;" 
d="M80 13q-23 -1 -39.5 18t-23.5 45.5t-2.5 55.5t22.5 49q7 19 28 19q14 0 25 -7.5t19 -20t13.5 -28t8.5 -30.5q5 2 8 -3.5t-7 -10.5q1 -9 -0.5 -24t-7 -28.5t-16 -24t-28.5 -10.5zM110 96q-47 -8 -66 35q-2 -15 0 -33t7.5 -34t13 -26.5t17.5 -9.5q11 0 17 7t8.5 17.5t3 22
t-0.5 21.5zM109 109q-1 8 -2.5 19t-5 22t-9.5 20.5t-15 13.5q-5 1 -10 -1.5t-8 -12.5q-3 -13 0.5 -24.5t11 -20t18 -13t20.5 -3.5zM49 238q-2 -6 -11.5 -6t-11.5 6q1 7 5.5 19.5t10.5 24t13 19t12 4.5q5 0 11 -8t11.5 -18.5l10.5 -20.5t8 -15q3 -7 -5 -9.5t-13 2.5
q-3 4 -6 13.5t-6.5 18.5t-7 16.5t-6.5 7.5q-3 -2 -5.5 -9.5t-4.5 -16t-3.5 -16.5t-1.5 -12z" />
    <glyph glyph-name="odieresis" unicode="&#xf6;" 
d="M80 13q-23 -1 -39.5 18t-23.5 45.5t-2.5 55.5t22.5 49q7 19 28 19q14 0 25 -7.5t19 -20t13.5 -28t8.5 -30.5q5 2 8 -3.5t-7 -10.5q1 -9 -0.5 -24t-7 -28.5t-16 -24t-28.5 -10.5zM110 96q-47 -8 -66 35q-2 -15 0 -33t7.5 -34t13 -26.5t17.5 -9.5q11 0 17 7t8.5 17.5t3 22
t-0.5 21.5zM109 109q-1 8 -2.5 19t-5 22t-9.5 20.5t-15 13.5q-5 1 -10 -1.5t-8 -12.5q-3 -13 0.5 -24.5t11 -20t18 -13t20.5 -3.5zM59 238q-2 -8 -9.5 -8t-10.5 8v3q2 10 10.5 10t9.5 -10v-3zM86 250q8 -1 9.5 -9t-8.5 -10q-9 -1 -9.5 8t8.5 11z" />
    <glyph glyph-name="ograve" unicode="&#xf2;" 
d="M80 13q-23 -1 -39.5 18t-23.5 45.5t-2.5 55.5t22.5 49q7 19 28 19q14 0 25 -7.5t19 -20t13.5 -28t8.5 -30.5q5 2 8 -3.5t-7 -10.5q1 -9 -0.5 -24t-7 -28.5t-16 -24t-28.5 -10.5zM110 96q-47 -8 -66 35q-2 -15 0 -33t7.5 -34t13 -26.5t17.5 -9.5q11 0 17 7t8.5 17.5t3 22
t-0.5 21.5zM109 109q-1 8 -2.5 19t-5 22t-9.5 20.5t-15 13.5q-5 1 -10 -1.5t-8 -12.5q-3 -13 0.5 -24.5t11 -20t18 -13t20.5 -3.5zM43 279q-1 6 6.5 11t11.5 1l27 -51q2 -5 -3 -9t-10 1z" />
    <glyph glyph-name="ohungarumlaut" unicode="&#x151;" 
d="M80 13q-23 -1 -39.5 18t-23.5 45.5t-2.5 55.5t22.5 49q7 19 28 19q14 0 25 -7.5t19 -20t13.5 -28t8.5 -30.5q5 2 8 -3.5t-7 -10.5q1 -9 -0.5 -24t-7 -28.5t-16 -24t-28.5 -10.5zM110 96q-47 -8 -66 35q-2 -15 0 -33t7.5 -34t13 -26.5t17.5 -9.5q11 0 17 7t8.5 17.5t3 22
t-0.5 21.5zM109 109q-1 8 -2.5 19t-5 22t-9.5 20.5t-15 13.5q-5 1 -10 -1.5t-8 -12.5q-3 -13 0.5 -24.5t11 -20t18 -13t20.5 -3.5zM105 322q5 7 13.5 4t6.5 -11l-32 -91q-4 -5 -9.5 -2.5t-3.5 9.5zM60 312q1 3 4.5 4.5t7.5 1t6.5 -2.5t1.5 -5l-21 -71q-4 -5 -9 -3.5t-4 8.5z
" />
    <glyph glyph-name="omacron" unicode="&#x14d;" 
d="M80 13q-23 -1 -39.5 18t-23.5 45.5t-2.5 55.5t22.5 49q7 19 28 19q14 0 25 -7.5t19 -20t13.5 -28t8.5 -30.5q5 2 8 -3.5t-7 -10.5q1 -9 -0.5 -24t-7 -28.5t-16 -24t-28.5 -10.5zM110 96q-47 -8 -66 35q-2 -15 0 -33t7.5 -34t13 -26.5t17.5 -9.5q11 0 17 7t8.5 17.5t3 22
t-0.5 21.5zM109 109q-1 8 -2.5 19t-5 22t-9.5 20.5t-15 13.5q-5 1 -10 -1.5t-8 -12.5q-3 -13 0.5 -24.5t11 -20t18 -13t20.5 -3.5zM37 235q-7 -1 -8 8t5 11q17 1 38.5 1h26.5q7 0 8 -6t-7 -7q-18 -2 -32 -4t-31 -3z" />
    <glyph glyph-name="oslash" unicode="&#xf8;" 
d="M132 100q1 -14 -2 -31t-10.5 -30.5t-20.5 -21t-32 -3.5l-5 -22q-3 -5 -10.5 -4.5t-7.5 7.5l6 27q-15 11 -24.5 31t-12 43t3 45.5t20.5 39.5q7 19 28 19q8 0 20 -5l3 16q1 4 5 5t8.5 0.5t7.5 -3t2 -5.5l-7 -30q11 -12 17.5 -29.5t9.5 -34.5q5 2 8 -3.5t-7 -10.5zM110 96
q-12 -2 -24 0l-15 -65q13 -6 21.5 -0.5t13 16.5t5 24.5t-0.5 24.5zM44 131q-2 -17 1 -39.5t11 -39.5l10 52q-15 10 -22 27zM59 170q-3 -14 0 -25.5t11 -19.5l12 56q-8 4 -14.5 0.5t-8.5 -11.5zM109 109q-1 9 -3 21.5t-7 24.5l-10 -43q10 -4 20 -3z" />
    <glyph glyph-name="otilde" unicode="&#xf5;" 
d="M80 13q-23 -1 -39.5 18t-23.5 45.5t-2.5 55.5t22.5 49q7 19 28 19q14 0 25 -7.5t19 -20t13.5 -28t8.5 -30.5q5 2 8 -3.5t-7 -10.5q1 -9 -0.5 -24t-7 -28.5t-16 -24t-28.5 -10.5zM110 96q-47 -8 -66 35q-2 -15 0 -33t7.5 -34t13 -26.5t17.5 -9.5q11 0 17 7t8.5 17.5t3 22
t-0.5 21.5zM109 109q-1 8 -2.5 19t-5 22t-9.5 20.5t-15 13.5q-5 1 -10 -1.5t-8 -12.5q-3 -13 0.5 -24.5t11 -20t18 -13t20.5 -3.5zM34 229q-1 -6 -6.5 -5.5t-6.5 5.5q0 4 1.5 11t4 13.5t7 11.5t10.5 4q10 -1 20 -9t15 -10t9 1t6 5q4 5 7.5 0.5t-0.5 -10.5q-2 -5 -8 -9
t-14 -4q-4 0 -9 2t-9.5 5l-8.5 5.5t-7 1.5q-5 -1 -7 -6t-4 -12z" />
    <glyph glyph-name="oe" unicode="&#x153;" horiz-adv-x="264" 
d="M114 29q-15 -15 -34 -16q-23 -1 -39.5 18t-23.5 45.5t-2.5 55.5t22.5 49q7 19 28 19q23 0 39 -21q18 32 57 25q13 -2 22.5 -12t14 -23.5t4 -28t-5.5 -24.5q-10 -21 -28 -34t-40 -21q9 -23 25 -36.5t36 -13.5q17 0 35 13q27 19 39 47.5t16 63.5q2 8 7.5 7.5t4.5 -8.5
q-3 -33 -16.5 -66.5t-42.5 -53.5q-31 -20 -63.5 -16t-53.5 31h-1zM141 183q-10 -10 -15 -23t-6.5 -28t0 -30t4.5 -28q20 6 33.5 20t18.5 28q5 15 4 33.5t-12 29.5q-6 5 -14 4.5t-13 -6.5zM104 44q-11 20 -14 52q-28 6 -46 35q-2 -14 0 -32t7.5 -34t13 -26.5t17.5 -10.5
q15 0 22 16zM89 114q0 12 2 23.5t5 23.5l1 2q-4 7 -8.5 12.5t-11.5 8.5q-5 1 -10 -1.5t-8 -12.5q-5 -16 4.5 -32t25.5 -24z" />
    <glyph glyph-name="oslashacute" unicode="&#x1ff;" 
d="M76 298q5 5 13.5 0t3.5 -11l-41 -53q-5 -4 -9 -0.5t-2 9.5zM132 100q1 -14 -2 -31t-10.5 -30.5t-20.5 -21t-32 -3.5l-5 -22q-3 -5 -10.5 -4.5t-7.5 7.5l6 27q-15 11 -24.5 31t-12 43t3 45.5t20.5 39.5q7 19 28 19q8 0 20 -5l3 16q1 4 5 5t8.5 0.5t7.5 -3t2 -5.5l-7 -30
q11 -12 17.5 -29.5t9.5 -34.5q5 2 8 -3.5t-7 -10.5zM110 96q-12 -2 -24 0l-15 -65q13 -6 21.5 -0.5t13 16.5t5 24.5t-0.5 24.5zM44 131q-2 -17 1 -39.5t11 -39.5l10 52q-15 10 -22 27zM59 170q-3 -14 0 -25.5t11 -19.5l12 56q-8 4 -14.5 0.5t-8.5 -11.5zM109 109
q-1 9 -3 21.5t-7 24.5l-10 -43q10 -4 20 -3z" />
    <glyph glyph-name="racute" unicode="&#x155;" horiz-adv-x="161" 
d="M43 203q24 -9 43.5 -19.5t27.5 -25.5q4 -9 4.5 -19t-1 -21t-3.5 -21t-3 -19t-3 -23t0 -26t9.5 -19.5t24.5 -4.5q5 1 5.5 -4.5t-4.5 -7.5q-14 -3 -27 0t-20 10q-6 7 -9.5 17.5t-2.5 27.5q1 16 4 32.5t5 31t2 26.5t-4 19q-7 13 -20.5 19.5t-27.5 11.5q0 -54 -3 -102t-8 -97
q-1 -3 -5.5 -5.5t-10 -3t-10 1.5t-4.5 7q3 37 6 66.5t5 54.5t2.5 47t0.5 45q-7 5 -8 11.5t0.5 13.5t4 14.5t2.5 14.5q1 5 5.5 7t9 1.5t8 -2.5t3.5 -5zM99 304q5 5 13.5 0t3.5 -11l-41 -53q-5 -4 -9 -0.5t-2 9.5z" />
    <glyph glyph-name="rcaron" unicode="&#x159;" horiz-adv-x="161" 
d="M52 296q0 7 10 7.5t12 -6.5v-16t1.5 -17.5t4.5 -14.5t8 -8q3 5 5 14t4 19t3.5 19.5t3.5 15.5q3 7 12.5 5.5t8.5 -8.5q-1 -3 -4 -15.5t-7.5 -26t-9.5 -25t-10 -12.5q-12 -2 -20 5t-12.5 18t-6.5 24t-3 22zM43 203q24 -9 43.5 -19.5t27.5 -25.5q4 -9 4.5 -19t-1 -21
t-3.5 -21t-3 -19t-3 -23t0 -26t9.5 -19.5t24.5 -4.5q5 1 5.5 -4.5t-4.5 -7.5q-14 -3 -27 0t-20 10q-6 7 -9.5 17.5t-2.5 27.5q1 16 4 32.5t5 31t2 26.5t-4 19q-7 13 -20.5 19.5t-27.5 11.5q0 -54 -3 -102t-8 -97q-1 -3 -5.5 -5.5t-10 -3t-10 1.5t-4.5 7q3 37 6 66.5t5 54.5
t2.5 47t0.5 45q-7 5 -8 11.5t0.5 13.5t4 14.5t2.5 14.5q1 5 5.5 7t9 1.5t8 -2.5t3.5 -5z" />
    <glyph glyph-name="rcommaaccent" unicode="&#x157;" horiz-adv-x="161" 
d="M53 -19q-6 8 3 14.5t16 -0.5q8 -8 9 -21t-15 -42q-3 -5 -8 -2.5t-3 7.5q12 22 -2 44zM43 203q24 -9 43.5 -19.5t27.5 -25.5q4 -9 4.5 -19t-1 -21t-3.5 -21t-3 -19t-3 -23t0 -26t9.5 -19.5t24.5 -4.5q5 1 5.5 -4.5t-4.5 -7.5q-14 -3 -27 0t-20 10q-6 7 -9.5 17.5
t-2.5 27.5q1 16 4 32.5t5 31t2 26.5t-4 19q-7 13 -20.5 19.5t-27.5 11.5q0 -54 -3 -102t-8 -97q-1 -3 -5.5 -5.5t-10 -3t-10 1.5t-4.5 7q3 37 6 66.5t5 54.5t2.5 47t0.5 45q-7 5 -8 11.5t0.5 13.5t4 14.5t2.5 14.5q1 5 5.5 7t9 1.5t8 -2.5t3.5 -5z" />
    <glyph glyph-name="sacute" unicode="&#x15b;" horiz-adv-x="141" 
d="M82 -35q-14 3 -28.5 8t-25.5 12t-18 15t-7 17q0 13 19 26t42 25q-2 2 -2 3l-39.5 50.5t-16.5 42.5q0 15 8 25t21 16.5t29 10t33 4.5q7 1 8 -5.5t-7 -7.5q-27 -2 -44.5 -11.5t-17.5 -28.5q0 -9 5 -19.5t12.5 -21.5t17 -22.5l18.5 -22.5q13 6 24 12q7 2 9.5 -1.5t-3.5 -8.5
q-4 -4 -9.5 -7l-12.5 -7l15 -20t16 -25.5t9 -26t-5 -21.5q-7 -10 -20.5 -11.5t-29.5 0.5zM104 -16q4 6 2.5 15t-7 19t-12.5 20l-13 18q-18 -10 -32 -20t-16 -21q-1 -5 9 -13t23.5 -14t26.5 -8t19 4zM78 317q5 5 13.5 0t3.5 -11l-41 -53q-5 -4 -9 -0.5t-2 9.5z" />
    <glyph glyph-name="scaron" unicode="&#x161;" horiz-adv-x="141" 
d="M82 -35q-14 3 -28.5 8t-25.5 12t-18 15t-7 17q0 13 19 26t42 25q-2 2 -2 3l-39.5 50.5t-16.5 42.5q0 15 8 25t21 16.5t29 10t33 4.5q7 1 8 -5.5t-7 -7.5q-27 -2 -44.5 -11.5t-17.5 -28.5q0 -9 5 -19.5t12.5 -21.5t17 -22.5l18.5 -22.5q13 6 24 12q7 2 9.5 -1.5t-3.5 -8.5
q-4 -4 -9.5 -7l-12.5 -7l15 -20t16 -25.5t9 -26t-5 -21.5q-7 -10 -20.5 -11.5t-29.5 0.5zM104 -16q4 6 2.5 15t-7 19t-12.5 20l-13 18q-18 -10 -32 -20t-16 -21q-1 -5 9 -13t23.5 -14t26.5 -8t19 4zM8 301q-1 3 2 6.5t7 5.5t8 1.5t5 -3.5l4.5 -16.5t5.5 -17.5t7 -14.5
t10 -7.5q1 3 1.5 12.5t0.5 21t-0.5 22.5t-0.5 17q2 7 10 7t9 -7v-16t-1 -27.5t-3.5 -27t-7.5 -14.5q-11 -5 -20.5 0t-16.5 15t-12 22t-8 21z" />
    <glyph glyph-name="scedilla" unicode="&#x15f;" horiz-adv-x="141" 
d="M68 -31l-3.5 -17.5t0.5 -8.5q5 -4 13 -5.5t15.5 -3.5t13 -5.5t6.5 -12.5q1 -8 -4.5 -14t-13.5 -11.5t-18 -9t-18 -4.5q-5 0 -6.5 3t-0.5 6.5t3.5 5.5t6.5 -1q10 2 21 9t8 14q-1 4 -6 6t-11.5 3.5l-13.5 3t-11 3.5q-7 4 -6.5 17.5t5.5 27.5q-20 8 -33 19t-12 23
q0 13 19 26t42 25q-2 2 -2 3l-39.5 50.5t-16.5 42.5q0 15 8 25t21 16.5t29 10t33 4.5q7 1 8 -5.5t-7 -7.5q-27 -2 -44.5 -11.5t-17.5 -28.5q0 -9 5 -19.5t12.5 -21.5t17 -22.5l18.5 -22.5q13 6 24 12q7 2 9.5 -1.5t-3.5 -8.5q-4 -4 -9.5 -7l-12.5 -7l15 -20t16 -25.5t9 -26
t-5 -21.5q-7 -10 -20.5 -11.5t-29.5 0.5zM104 -16q4 6 2.5 15t-7 19t-12.5 20l-13 18q-18 -10 -32 -20t-16 -21q-1 -5 9 -13t23.5 -14t26.5 -8t19 4z" />
    <glyph glyph-name="scircumflex" unicode="&#x15d;" horiz-adv-x="141" 
d="M82 -35q-14 3 -28.5 8t-25.5 12t-18 15t-7 17q0 13 19 26t42 25q-2 2 -2 3l-39.5 50.5t-16.5 42.5q0 15 8 25t21 16.5t29 10t33 4.5q7 1 8 -5.5t-7 -7.5q-27 -2 -44.5 -11.5t-17.5 -28.5q0 -9 5 -19.5t12.5 -21.5t17 -22.5l18.5 -22.5q13 6 24 12q7 2 9.5 -1.5t-3.5 -8.5
q-4 -4 -9.5 -7l-12.5 -7l15 -20t16 -25.5t9 -26t-5 -21.5q-7 -10 -20.5 -11.5t-29.5 0.5zM104 -16q4 6 2.5 15t-7 19t-12.5 20l-13 18q-18 -10 -32 -20t-16 -21q-1 -5 9 -13t23.5 -14t26.5 -8t19 4zM37 251q-2 -6 -11.5 -6t-11.5 6q1 7 5.5 19.5t10.5 24t13 19t12 4.5
q5 0 11 -8t11.5 -18.5l10.5 -20.5t8 -15q3 -7 -5 -9.5t-13 2.5q-3 4 -6 13.5t-6.5 18.5t-7 16.5t-6.5 7.5q-3 -2 -5.5 -9.5t-4.5 -16t-3.5 -16.5t-1.5 -12z" />
    <glyph glyph-name="scommaaccent" unicode="&#x219;" horiz-adv-x="141" 
d="M31 -64q-5 9 3.5 15.5t15.5 -0.5q9 -7 10 -20t-13 -43q-3 -5 -8 -3t-3 7q5 12 4.5 22.5t-9.5 21.5zM82 -35q-14 3 -28.5 8t-25.5 12t-18 15t-7 17q0 13 19 26t42 25q-2 2 -2 3l-39.5 50.5t-16.5 42.5q0 15 8 25t21 16.5t29 10t33 4.5q7 1 8 -5.5t-7 -7.5
q-27 -2 -44.5 -11.5t-17.5 -28.5q0 -9 5 -19.5t12.5 -21.5t17 -22.5l18.5 -22.5q13 6 24 12q7 2 9.5 -1.5t-3.5 -8.5q-4 -4 -9.5 -7l-12.5 -7l15 -20t16 -25.5t9 -26t-5 -21.5q-7 -10 -20.5 -11.5t-29.5 0.5zM104 -16q4 6 2.5 15t-7 19t-12.5 20l-13 18q-18 -10 -32 -20
t-16 -21q-1 -5 9 -13t23.5 -14t26.5 -8t19 4z" />
    <glyph glyph-name="tbar" unicode="&#x167;" horiz-adv-x="123" 
d="M35 243l2 -28l49 9q8 1 9 -7.5t-5 -11.5l-52 -7l4 -37.5l4 -38.5q1 -7 4 -23.5t7.5 -34.5t11 -32.5t15.5 -16.5q9 -1 20 13t19 35q7 21 10.5 42t4.5 30q2 8 8 7.5t5 -8.5t-3 -20.5t-5 -26.5t-8 -28t-12 -26q-8 -16 -21.5 -27t-26.5 -9q-15 2 -25.5 16.5t-17 33.5t-10 39
l-5.5 32q-2 19 -4.5 37.5t-4.5 38.5l-49 -7q-7 0 -7.5 6t6.5 8l49 8l-2 29l-71 -9q-7 -1 -7.5 5.5t5.5 7.5l72 12q-1 19 -1 37.5v38.5q1 5 5.5 7t9.5 1.5t9.5 -3t4.5 -5.5q0 -18 1 -35.5l2 -35.5l86 15q7 1 8 -8t-5 -11z" />
    <glyph glyph-name="tcaron" unicode="&#x165;" horiz-adv-x="123" 
d="M35 243q2 -30 4.5 -60t6.5 -61q1 -7 4 -23.5t7.5 -34.5t11 -32.5t15.5 -16.5q9 -1 20 13t19 35q7 21 10.5 42t4.5 30q2 8 8 7.5t5 -8.5t-3 -20.5t-5 -26.5t-8 -28t-12 -26q-8 -16 -21.5 -27t-26.5 -9q-15 2 -25.5 16.5t-17 33.5t-10 39l-5.5 32q-5 29 -7.5 59.5
t-4.5 60.5l-71 -9q-7 -1 -7.5 5.5t5.5 7.5l72 12q-1 19 -1 37.5v38.5q1 5 5.5 7t9.5 1.5t9.5 -3t4.5 -5.5q0 -18 1 -35.5l2 -35.5l86 15q7 1 8 -8t-5 -11zM78 347q-4 4 -3.5 8t3.5 7t7.5 4t8.5 -2q10 -6 13 -18.5t-8 -44.5q-2 -6 -8 -4t-4 7q4 12 2.5 22t-11.5 21z" />
    <glyph glyph-name="tcommaaccent" unicode="&#x163;" horiz-adv-x="123" 
d="M35 243q2 -30 4.5 -60t6.5 -61q1 -7 4 -23.5t7.5 -34.5t11 -32.5t15.5 -16.5q9 -1 20 13t19 35q7 21 10.5 42t4.5 30q2 8 8 7.5t5 -8.5t-3 -20.5t-5 -26.5t-8 -28t-12 -26q-8 -16 -21.5 -27t-26.5 -9q-15 2 -25.5 16.5t-17 33.5t-10 39l-5.5 32q-5 29 -7.5 59.5
t-4.5 60.5l-71 -9q-7 -1 -7.5 5.5t5.5 7.5l72 12q-1 19 -1 37.5v38.5q1 5 5.5 7t9.5 1.5t9.5 -3t4.5 -5.5q0 -18 1 -35.5l2 -35.5l86 15q7 1 8 -8t-5 -11zM27 -52q-4 4 -3.5 8t3.5 7t7.5 4t8.5 -2q10 -6 13 -18.5t-8 -44.5q-2 -6 -8 -4t-4 7q4 12 2.5 22t-11.5 21z" />
    <glyph glyph-name="uacute" unicode="&#xfa;" horiz-adv-x="254" 
d="M204 -43q17 7 28.5 32.5t19 54.5t11.5 55.5t6 35.5q2 8 8 7.5t5 -8.5q-2 -20 -8 -53t-16.5 -64.5t-26.5 -54t-39 -21.5q-33 1 -44.5 39t-10.5 96q-3 -12 -8 -25.5t-12 -25.5t-16.5 -21t-20.5 -10q-24 -4 -37 19t-20 55t-8 63.5t-1 44.5q1 6 5.5 8t10 1t9.5 -3.5t4 -5.5
q0 -8 1.5 -34t5.5 -54.5t11 -51t18 -23.5t19.5 15t15.5 40.5t12.5 52l10.5 50.5q3 17 5.5 28t3.5 14q2 6 7.5 7.5t10.5 0.5t9 -3.5t4 -5.5l-3.5 -26t-3.5 -24q-1 -8 -2.5 -27t-2 -42.5t1 -48.5t5.5 -45t11.5 -32t20.5 -10zM100 294q5 5 13.5 0t3.5 -11l-41 -53
q-5 -4 -9 -0.5t-2 9.5z" />
    <glyph glyph-name="ubreve" unicode="&#x16d;" horiz-adv-x="254" 
d="M204 -43q17 7 28.5 32.5t19 54.5t11.5 55.5t6 35.5q2 8 8 7.5t5 -8.5q-2 -20 -8 -53t-16.5 -64.5t-26.5 -54t-39 -21.5q-33 1 -44.5 39t-10.5 96q-3 -12 -8 -25.5t-12 -25.5t-16.5 -21t-20.5 -10q-24 -4 -37 19t-20 55t-8 63.5t-1 44.5q1 6 5.5 8t10 1t9.5 -3.5t4 -5.5
q0 -8 1.5 -34t5.5 -54.5t11 -51t18 -23.5t19.5 15t15.5 40.5t12.5 52l10.5 50.5q3 17 5.5 28t3.5 14q2 6 7.5 7.5t10.5 0.5t9 -3.5t4 -5.5l-3.5 -26t-3.5 -24q-1 -8 -2.5 -27t-2 -42.5t1 -48.5t5.5 -45t11.5 -32t20.5 -10zM41 271q1 6 10 10t11 -3q8 -29 19 -28q7 1 11 9
t7 22q2 6 10.5 5t9.5 -7q-2 -19 -12.5 -30.5t-23.5 -13t-25 7t-17 28.5z" />
    <glyph glyph-name="ucircumflex" unicode="&#xfb;" horiz-adv-x="254" 
d="M204 -43q17 7 28.5 32.5t19 54.5t11.5 55.5t6 35.5q2 8 8 7.5t5 -8.5q-2 -20 -8 -53t-16.5 -64.5t-26.5 -54t-39 -21.5q-33 1 -44.5 39t-10.5 96q-3 -12 -8 -25.5t-12 -25.5t-16.5 -21t-20.5 -10q-24 -4 -37 19t-20 55t-8 63.5t-1 44.5q1 6 5.5 8t10 1t9.5 -3.5t4 -5.5
q0 -8 1.5 -34t5.5 -54.5t11 -51t18 -23.5t19.5 15t15.5 40.5t12.5 52l10.5 50.5q3 17 5.5 28t3.5 14q2 6 7.5 7.5t10.5 0.5t9 -3.5t4 -5.5l-3.5 -26t-3.5 -24q-1 -8 -2.5 -27t-2 -42.5t1 -48.5t5.5 -45t11.5 -32t20.5 -10zM64 240q-2 -6 -11.5 -6t-11.5 6q1 7 5.5 19.5
t10.5 24t13 19t12 4.5q5 0 11 -8t11.5 -18.5l10.5 -20.5t8 -15q3 -7 -5 -9.5t-13 2.5q-3 4 -6 13.5t-6.5 18.5t-7 16.5t-6.5 7.5q-3 -2 -5.5 -9.5t-4.5 -16t-3.5 -16.5t-1.5 -12z" />
    <glyph glyph-name="udieresis" unicode="&#xfc;" horiz-adv-x="254" 
d="M204 -43q17 7 28.5 32.5t19 54.5t11.5 55.5t6 35.5q2 8 8 7.5t5 -8.5q-2 -20 -8 -53t-16.5 -64.5t-26.5 -54t-39 -21.5q-33 1 -44.5 39t-10.5 96q-3 -12 -8 -25.5t-12 -25.5t-16.5 -21t-20.5 -10q-24 -4 -37 19t-20 55t-8 63.5t-1 44.5q1 6 5.5 8t10 1t9.5 -3.5t4 -5.5
q0 -8 1.5 -34t5.5 -54.5t11 -51t18 -23.5t19.5 15t15.5 40.5t12.5 52l10.5 50.5q3 17 5.5 28t3.5 14q2 6 7.5 7.5t10.5 0.5t9 -3.5t4 -5.5l-3.5 -26t-3.5 -24q-1 -8 -2.5 -27t-2 -42.5t1 -48.5t5.5 -45t11.5 -32t20.5 -10zM72 248q-2 -8 -9.5 -8t-10.5 8v3q2 10 10.5 10
t9.5 -10v-3zM99 260q8 -1 9.5 -9t-8.5 -10q-9 -1 -9.5 8t8.5 11z" />
    <glyph glyph-name="uhungarumlaut" unicode="&#x171;" horiz-adv-x="254" 
d="M204 -43q17 7 28.5 32.5t19 54.5t11.5 55.5t6 35.5q2 8 8 7.5t5 -8.5q-2 -20 -8 -53t-16.5 -64.5t-26.5 -54t-39 -21.5q-33 1 -44.5 39t-10.5 96q-3 -12 -8 -25.5t-12 -25.5t-16.5 -21t-20.5 -10q-24 -4 -37 19t-20 55t-8 63.5t-1 44.5q1 6 5.5 8t10 1t9.5 -3.5t4 -5.5
q0 -8 1.5 -34t5.5 -54.5t11 -51t18 -23.5t19.5 15t15.5 40.5t12.5 52l10.5 50.5q3 17 5.5 28t3.5 14q2 6 7.5 7.5t10.5 0.5t9 -3.5t4 -5.5l-3.5 -26t-3.5 -24q-1 -8 -2.5 -27t-2 -42.5t1 -48.5t5.5 -45t11.5 -32t20.5 -10zM111 317q5 7 13.5 4t6.5 -11l-32 -91
q-4 -5 -9.5 -2.5t-3.5 9.5zM66 307q1 3 4.5 4.5t7.5 1t6.5 -2.5t1.5 -5l-21 -71q-4 -5 -9 -3.5t-4 8.5z" />
    <glyph glyph-name="ugrave" unicode="&#xf9;" horiz-adv-x="254" 
d="M204 -43q17 7 28.5 32.5t19 54.5t11.5 55.5t6 35.5q2 8 8 7.5t5 -8.5q-2 -20 -8 -53t-16.5 -64.5t-26.5 -54t-39 -21.5q-33 1 -44.5 39t-10.5 96q-3 -12 -8 -25.5t-12 -25.5t-16.5 -21t-20.5 -10q-24 -4 -37 19t-20 55t-8 63.5t-1 44.5q1 6 5.5 8t10 1t9.5 -3.5t4 -5.5
q0 -8 1.5 -34t5.5 -54.5t11 -51t18 -23.5t19.5 15t15.5 40.5t12.5 52l10.5 50.5q3 17 5.5 28t3.5 14q2 6 7.5 7.5t10.5 0.5t9 -3.5t4 -5.5l-3.5 -26t-3.5 -24q-1 -8 -2.5 -27t-2 -42.5t1 -48.5t5.5 -45t11.5 -32t20.5 -10zM50 265q-1 6 6.5 11t11.5 1l27 -51q2 -5 -3 -9
t-10 1z" />
    <glyph glyph-name="umacron" unicode="&#x16b;" horiz-adv-x="254" 
d="M204 -43q17 7 28.5 32.5t19 54.5t11.5 55.5t6 35.5q2 8 8 7.5t5 -8.5q-2 -20 -8 -53t-16.5 -64.5t-26.5 -54t-39 -21.5q-33 1 -44.5 39t-10.5 96q-3 -12 -8 -25.5t-12 -25.5t-16.5 -21t-20.5 -10q-24 -4 -37 19t-20 55t-8 63.5t-1 44.5q1 6 5.5 8t10 1t9.5 -3.5t4 -5.5
q0 -8 1.5 -34t5.5 -54.5t11 -51t18 -23.5t19.5 15t15.5 40.5t12.5 52l10.5 50.5q3 17 5.5 28t3.5 14q2 6 7.5 7.5t10.5 0.5t9 -3.5t4 -5.5l-3.5 -26t-3.5 -24q-1 -8 -2.5 -27t-2 -42.5t1 -48.5t5.5 -45t11.5 -32t20.5 -10zM50 228q-7 -1 -8 8t5 11q17 1 38.5 1h26.5
q7 0 8 -6t-7 -7q-18 -2 -32 -4t-31 -3z" />
    <glyph glyph-name="uogonek" unicode="&#x173;" horiz-adv-x="254" 
d="M204 -43q17 7 28.5 32.5t19 54.5t11.5 55.5t6 35.5q2 8 8 7.5t5 -8.5q-2 -20 -7.5 -52t-16 -62.5t-26 -53.5t-37.5 -24q-10 -12 -17 -25t-2 -19t16.5 -6.5t21.5 -0.5q8 -1 8 -8t-7 -9q-7 -1 -16 -0.5t-17.5 2t-15.5 5.5t-10 10q-2 6 -1 13t4.5 14t8.5 14t10 12
q-25 8 -33.5 44.5t-7.5 87.5q-3 -12 -8 -25.5t-12 -25.5t-16.5 -21t-20.5 -10q-24 -4 -37 19t-20 55t-8 63.5t-1 44.5q1 6 5.5 8t10 1t9.5 -3.5t4 -5.5q0 -8 1.5 -34t5.5 -54.5t11 -51t18 -23.5t19.5 15t15.5 40.5t12.5 52l10.5 50.5q3 17 5.5 28t3.5 14q2 6 7.5 7.5
t10.5 0.5t9 -3.5t4 -5.5l-3.5 -26t-3.5 -24q-1 -8 -2.5 -27t-2 -42.5t1 -48.5t5.5 -45t11.5 -32t20.5 -10z" />
    <glyph glyph-name="utilde" unicode="&#x169;" horiz-adv-x="254" 
d="M204 -43q17 7 28.5 32.5t19 54.5t11.5 55.5t6 35.5q2 8 8 7.5t5 -8.5q-2 -20 -8 -53t-16.5 -64.5t-26.5 -54t-39 -21.5q-33 1 -44.5 39t-10.5 96q-3 -12 -8 -25.5t-12 -25.5t-16.5 -21t-20.5 -10q-24 -4 -37 19t-20 55t-8 63.5t-1 44.5q1 6 5.5 8t10 1t9.5 -3.5t4 -5.5
q0 -8 1.5 -34t5.5 -54.5t11 -51t18 -23.5t19.5 15t15.5 40.5t12.5 52l10.5 50.5q3 17 5.5 28t3.5 14q2 6 7.5 7.5t10.5 0.5t9 -3.5t4 -5.5l-3.5 -26t-3.5 -24q-1 -8 -2.5 -27t-2 -42.5t1 -48.5t5.5 -45t11.5 -32t20.5 -10zM50 236q-1 -6 -6.5 -5.5t-6.5 5.5q0 4 1.5 11
t4 13.5t7 11.5t10.5 4q10 -1 20 -9t15 -10t9 1t6 5q4 5 7.5 0.5t-0.5 -10.5q-2 -5 -8 -9t-14 -4q-4 0 -9 2t-9.5 5l-8.5 5.5t-7 1.5q-5 -1 -7 -6t-4 -12z" />
    <glyph glyph-name="uring" unicode="&#x16f;" horiz-adv-x="254" 
d="M204 -43q17 7 28.5 32.5t19 54.5t11.5 55.5t6 35.5q2 8 8 7.5t5 -8.5q-2 -20 -8 -53t-16.5 -64.5t-26.5 -54t-39 -21.5q-33 1 -44.5 39t-10.5 96q-3 -12 -8 -25.5t-12 -25.5t-16.5 -21t-20.5 -10q-24 -4 -37 19t-20 55t-8 63.5t-1 44.5q1 6 5.5 8t10 1t9.5 -3.5t4 -5.5
q0 -8 1.5 -34t5.5 -54.5t11 -51t18 -23.5t19.5 15t15.5 40.5t12.5 52l10.5 50.5q3 17 5.5 28t3.5 14q2 6 7.5 7.5t10.5 0.5t9 -3.5t4 -5.5l-3.5 -26t-3.5 -24q-1 -8 -2.5 -27t-2 -42.5t1 -48.5t5.5 -45t11.5 -32t20.5 -10zM62 237q-8 1 -11 6t-2 11.5t5 13t10 9.5q0 3 6 5
q13 -1 19 -5.5t8 -9.5q1 -6 -2 -11.5t-8.5 -10t-12 -7t-12.5 -1.5zM82 262q-1 2 -6 4h-1q-2 0 -4 -2t-3 -4.5t-0.5 -4.5t4.5 -1q2 2 5 4t5 4z" />
    <glyph glyph-name="wacute" unicode="&#x1e83;" horiz-adv-x="246" 
d="M16 186q0 6 4.5 9t9.5 3t10 -3t6 -9q0 -11 -1 -31t-1 -42.5t0.5 -45t3.5 -37.5l3.5 -14t5.5 -7q5 -1 9 7.5t6 13.5q8 22 12 49t4 41q0 12 -1 26.5t2 19.5q1 3 6 4t10 1t9.5 -2t4.5 -5q1 -11 4.5 -29t9.5 -37t14 -37t16 -30q12 -18 22 -13.5t13 24.5q2 15 0.5 36.5
t-6 45.5t-10.5 49t-12 46q-1 3 2 5.5t7.5 3t8.5 -0.5t6 -4q7 -25 15 -62.5t10.5 -74t-4.5 -65t-29 -35.5q-13 -4 -25.5 2.5t-23 19.5t-18.5 31t-14 36l-6 -23.5t-11 -29.5t-17 -23.5t-25 -6.5q-17 3 -24 27.5t-8.5 56t0.5 62.5t2 48zM101 293q5 5 13.5 0t3.5 -11l-41 -53
q-5 -4 -9 -0.5t-2 9.5z" />
    <glyph glyph-name="wcircumflex" unicode="&#x175;" horiz-adv-x="246" 
d="M16 186q0 6 4.5 9t9.5 3t10 -3t6 -9q0 -11 -1 -31t-1 -42.5t0.5 -45t3.5 -37.5l3.5 -14t5.5 -7q5 -1 9 7.5t6 13.5q8 22 12 49t4 41q0 12 -1 26.5t2 19.5q1 3 6 4t10 1t9.5 -2t4.5 -5q1 -11 4.5 -29t9.5 -37t14 -37t16 -30q12 -18 22 -13.5t13 24.5q2 15 0.5 36.5
t-6 45.5t-10.5 49t-12 46q-1 3 2 5.5t7.5 3t8.5 -0.5t6 -4q7 -25 15 -62.5t10.5 -74t-4.5 -65t-29 -35.5q-13 -4 -25.5 2.5t-23 19.5t-18.5 31t-14 36l-6 -23.5t-11 -29.5t-17 -23.5t-25 -6.5q-17 3 -24 27.5t-8.5 56t0.5 62.5t2 48zM72 237q-2 -6 -11.5 -6t-11.5 6
q1 7 5.5 19.5t10.5 24t13 19t12 4.5q5 0 11 -8t11.5 -18.5l10.5 -20.5t8 -15q3 -7 -5 -9.5t-13 2.5q-3 4 -6 13.5t-6.5 18.5t-7 16.5t-6.5 7.5q-3 -2 -5.5 -9.5t-4.5 -16t-3.5 -16.5t-1.5 -12z" />
    <glyph glyph-name="wdieresis" unicode="&#x1e85;" horiz-adv-x="246" 
d="M16 186q0 6 4.5 9t9.5 3t10 -3t6 -9q0 -11 -1 -31t-1 -42.5t0.5 -45t3.5 -37.5l3.5 -14t5.5 -7q5 -1 9 7.5t6 13.5q8 22 12 49t4 41q0 12 -1 26.5t2 19.5q1 3 6 4t10 1t9.5 -2t4.5 -5q1 -11 4.5 -29t9.5 -37t14 -37t16 -30q12 -18 22 -13.5t13 24.5q2 15 0.5 36.5
t-6 45.5t-10.5 49t-12 46q-1 3 2 5.5t7.5 3t8.5 -0.5t6 -4q7 -25 15 -62.5t10.5 -74t-4.5 -65t-29 -35.5q-13 -4 -25.5 2.5t-23 19.5t-18.5 31t-14 36l-6 -23.5t-11 -29.5t-17 -23.5t-25 -6.5q-17 3 -24 27.5t-8.5 56t0.5 62.5t2 48zM84 249q-2 -8 -9.5 -8t-10.5 8v3
q2 10 10.5 10t9.5 -10v-3zM111 261q8 -1 9.5 -9t-8.5 -10q-9 -1 -9.5 8t8.5 11z" />
    <glyph glyph-name="wgrave" unicode="&#x1e81;" horiz-adv-x="246" 
d="M16 186q0 6 4.5 9t9.5 3t10 -3t6 -9q0 -11 -1 -31t-1 -42.5t0.5 -45t3.5 -37.5l3.5 -14t5.5 -7q5 -1 9 7.5t6 13.5q8 22 12 49t4 41q0 12 -1 26.5t2 19.5q1 3 6 4t10 1t9.5 -2t4.5 -5q1 -11 4.5 -29t9.5 -37t14 -37t16 -30q12 -18 22 -13.5t13 24.5q2 15 0.5 36.5
t-6 45.5t-10.5 49t-12 46q-1 3 2 5.5t7.5 3t8.5 -0.5t6 -4q7 -25 15 -62.5t10.5 -74t-4.5 -65t-29 -35.5q-13 -4 -25.5 2.5t-23 19.5t-18.5 31t-14 36l-6 -23.5t-11 -29.5t-17 -23.5t-25 -6.5q-17 3 -24 27.5t-8.5 56t0.5 62.5t2 48zM71 277q-1 6 6.5 11t11.5 1l27 -51
q2 -5 -3 -9t-10 1z" />
    <glyph glyph-name="yacute" unicode="&#xfd;" horiz-adv-x="184" 
d="M92 40q-17 -5 -31 8t-24.5 32.5t-17.5 41l-11 33.5q-2 4 0 8t6 5.5t8 0t6 -6.5q1 -4 6 -17t12 -29.5t15 -32t17 -24.5q10 13 15 30t6.5 34.5t1 35t-0.5 32.5q0 4 4.5 6.5t10.5 2.5t10.5 -2.5t4.5 -6.5q0 -36 1.5 -65t4 -57t4.5 -57t2 -63l31 1q8 -1 8.5 -6.5t-7.5 -6.5
l-32 -1q0 -21 -1 -52t-6.5 -62.5t-16 -59t-29.5 -42.5q-19 -14 -47.5 -11t-59 17t-58.5 36.5t-46.5 48t-24 50t9.5 42.5q16 17 46 26t65.5 13t72 4.5t65.5 1.5q-1 30 -2.5 51.5t-4.5 51.5q-6 -9 -13 -11zM37 -277q29 -5 44 20.5t21.5 61.5t7.5 73.5t2 56.5q-42 -2 -78.5 -3
t-65.5 -5t-50 -11.5t-33 -21.5q-15 -18 -4 -45t36.5 -53.5t58 -47t61.5 -25.5zM77 276q5 5 13.5 0t3.5 -11l-41 -53q-5 -4 -9 -0.5t-2 9.5z" />
    <glyph glyph-name="ycircumflex" unicode="&#x177;" horiz-adv-x="184" 
d="M41 214q0 -6 -10 -7t-13 5q0 7 3 20t7.5 25t10 20.5t11.5 7.5q5 0 12 -7t14 -16.5l13.5 -19t9.5 -13.5q4 -6 -5 -9.5t-14 1.5q-3 4 -7 12l-8 16t-8 14t-7 6q-3 -3 -4.5 -10.5t-2.5 -16t-1.5 -16.5t-0.5 -12zM92 40q-17 -5 -31 8t-24.5 32.5t-17.5 41l-11 33.5q-2 4 0 8
t6 5.5t8 0t6 -6.5q1 -4 6 -17t12 -29.5t15 -32t17 -24.5q10 13 15 30t6.5 34.5t1 35t-0.5 32.5q0 4 4.5 6.5t10.5 2.5t10.5 -2.5t4.5 -6.5q0 -36 1.5 -65t4 -57t4.5 -57t2 -63l31 1q8 -1 8.5 -6.5t-7.5 -6.5l-32 -1q0 -21 -1 -52t-6.5 -62.5t-16 -59t-29.5 -42.5
q-19 -14 -47.5 -11t-59 17t-58.5 36.5t-46.5 48t-24 50t9.5 42.5q16 17 46 26t65.5 13t72 4.5t65.5 1.5q-1 30 -2.5 51.5t-4.5 51.5q-6 -9 -13 -11zM37 -277q29 -5 44 20.5t21.5 61.5t7.5 73.5t2 56.5q-42 -2 -78.5 -3t-65.5 -5t-50 -11.5t-33 -21.5q-15 -18 -4 -45
t36.5 -53.5t58 -47t61.5 -25.5z" />
    <glyph glyph-name="ydieresis" unicode="&#xff;" horiz-adv-x="184" 
d="M50 231q0 -8 -7 -9t-10 7v2q1 8 8 9t9 -7v-2zM77 244q7 0 9.5 -7t-5.5 -9t-9.5 6t5.5 10zM92 40q-17 -5 -31 8t-24.5 32.5t-17.5 41l-11 33.5q-2 4 0 8t6 5.5t8 0t6 -6.5q1 -4 6 -17t12 -29.5t15 -32t17 -24.5q10 13 15 30t6.5 34.5t1 35t-0.5 32.5q0 4 4.5 6.5t10.5 2.5
t10.5 -2.5t4.5 -6.5q0 -36 1.5 -65t4 -57t4.5 -57t2 -63l31 1q8 -1 8.5 -6.5t-7.5 -6.5l-32 -1q0 -21 -1 -52t-6.5 -62.5t-16 -59t-29.5 -42.5q-19 -14 -47.5 -11t-59 17t-58.5 36.5t-46.5 48t-24 50t9.5 42.5q16 17 46 26t65.5 13t72 4.5t65.5 1.5q-1 30 -2.5 51.5
t-4.5 51.5q-6 -9 -13 -11zM37 -277q29 -5 44 20.5t21.5 61.5t7.5 73.5t2 56.5q-42 -2 -78.5 -3t-65.5 -5t-50 -11.5t-33 -21.5q-15 -18 -4 -45t36.5 -53.5t58 -47t61.5 -25.5z" />
    <glyph glyph-name="ygrave" unicode="&#x1ef3;" horiz-adv-x="184" 
d="M92 40q-17 -5 -31 8t-24.5 32.5t-17.5 41l-11 33.5q-2 4 0 8t6 5.5t8 0t6 -6.5q1 -4 6 -17t12 -29.5t15 -32t17 -24.5q10 13 15 30t6.5 34.5t1 35t-0.5 32.5q0 4 4.5 6.5t10.5 2.5t10.5 -2.5t4.5 -6.5q0 -36 1.5 -65t4 -57t4.5 -57t2 -63l31 1q8 -1 8.5 -6.5t-7.5 -6.5
l-32 -1q0 -21 -1 -52t-6.5 -62.5t-16 -59t-29.5 -42.5q-19 -14 -47.5 -11t-59 17t-58.5 36.5t-46.5 48t-24 50t9.5 42.5q16 17 46 26t65.5 13t72 4.5t65.5 1.5q-1 30 -2.5 51.5t-4.5 51.5q-6 -9 -13 -11zM37 -277q29 -5 44 20.5t21.5 61.5t7.5 73.5t2 56.5q-42 -2 -78.5 -3
t-65.5 -5t-50 -11.5t-33 -21.5q-15 -18 -4 -45t36.5 -53.5t58 -47t61.5 -25.5zM26 253q-1 6 6.5 11t11.5 1l27 -51q2 -5 -3 -9t-10 1z" />
    <glyph glyph-name="zacute" unicode="&#x17a;" horiz-adv-x="161" 
d="M-2 176q-7 -2 -9.5 3.5t3.5 9.5l25 12t31 11.5t30.5 4t24.5 -11.5q9 -9 7.5 -24t-8 -32.5t-16 -36.5t-17 -36.5t-11 -32t1.5 -22.5q3 -5 12 -5t20 2.5t23 7l23 8.5q8 1 10.5 -6.5t-4.5 -10.5q-12 -5 -27 -8.5t-29 -5.5q-8 -1 -18.5 -1.5t-20 1.5t-16 8t-7.5 18
q-1 15 7 35t18 41l18.5 40.5t10.5 33.5q2 11 -4 17t-20 4q-16 -4 -32.5 -11.5t-25.5 -12.5zM44 313q5 5 13.5 0t3.5 -11l-41 -53q-5 -4 -9 -0.5t-2 9.5z" />
    <glyph glyph-name="zcaron" unicode="&#x17e;" horiz-adv-x="161" 
d="M-2 176q-7 -2 -9.5 3.5t3.5 9.5l25 12t31 11.5t30.5 4t24.5 -11.5q9 -9 7.5 -24t-8 -32.5t-16 -36.5t-17 -36.5t-11 -32t1.5 -22.5q3 -5 12 -5t20 2.5t23 7l23 8.5q8 1 10.5 -6.5t-4.5 -10.5q-12 -5 -27 -8.5t-29 -5.5q-8 -1 -18.5 -1.5t-20 1.5t-16 8t-7.5 18
q-1 15 7 35t18 41l18.5 40.5t10.5 33.5q2 11 -4 17t-20 4q-16 -4 -32.5 -11.5t-25.5 -12.5zM-11 307q-1 3 2 6.5t7 5.5t8 1.5t5 -3.5l4.5 -16.5t5.5 -17.5t7 -14.5t10 -7.5q1 3 1.5 12.5t0.5 21t-0.5 22.5t-0.5 17q2 7 10 7t9 -7v-16t-1 -27.5t-3.5 -27t-7.5 -14.5
q-11 -5 -20.5 0t-16.5 15t-12 22t-8 21z" />
    <glyph glyph-name="zdotaccent" unicode="&#x17c;" horiz-adv-x="161" 
d="M-2 176q-7 -2 -9.5 3.5t3.5 9.5l25 12t31 11.5t30.5 4t24.5 -11.5q9 -9 7.5 -24t-8 -32.5t-16 -36.5t-17 -36.5t-11 -32t1.5 -22.5q3 -5 12 -5t20 2.5t23 7l23 8.5q8 1 10.5 -6.5t-4.5 -10.5q-12 -5 -27 -8.5t-29 -5.5q-8 -1 -18.5 -1.5t-20 1.5t-16 8t-7.5 18
q-1 15 7 35t18 41l18.5 40.5t10.5 33.5q2 11 -4 17t-20 4q-16 -4 -32.5 -11.5t-25.5 -12.5zM35 269q1 -4 -1 -7t-5.5 -4t-7 1t-4.5 7q-2 13 6.5 13.5t11.5 -10.5z" />
    <glyph glyph-name="eng" unicode="&#x14b;" horiz-adv-x="233" 
d="M138 183q21 1 36.5 -24t25 -59t13.5 -67t3 -48q-1 -28 -12 -47.5t-28 -31t-39 -14.5t-46 3q-6 3 -4.5 8t9.5 4q42 -5 65.5 16.5t24.5 66.5q0 14 -2 34.5t-7 41.5q-1 8 -5.5 24.5t-10.5 33t-13.5 28.5t-14.5 11q-8 0 -17.5 -20t-18.5 -45.5t-16.5 -49.5t-10.5 -32
q-5 -13 -17.5 -17t-17.5 10q-8 25 -12.5 54.5t-6.5 62.5q-3 28 -4 55.5l-2 56.5q0 6 4.5 8t10 1.5t10 -3t4.5 -6.5q1 -20 2 -44.5t2.5 -51t4.5 -52.5t8 -48l16 42t19 45.5t21.5 37t25.5 16.5z" />
    <glyph glyph-name="Aacute" unicode="&#xc1;" horiz-adv-x="244" 
d="M200 -29q-26 62 -44 135q-3 -19 -8.5 -38.5t-15 -34.5t-23.5 -23.5t-33 -6.5q-22 2 -35 17t-19 35t-7.5 43t0.5 42q2 22 9.5 54t20.5 58.5t33 41t47 1.5q-1 5 -1 8v8q4 9 16.5 8t13.5 -8l4 -46q8 -13 9 -24.5t-4 -17.5q4 -33 10.5 -62.5t14.5 -58.5t18 -59l22 -65
q1 -5 -2 -9t-8 -5.5t-10.5 0t-7.5 7.5zM86 18q16 0 26 17.5t15.5 43t7.5 54t3 52.5q-4 23 -7 46.5t-5 46.5q-17 12 -30 4.5t-22.5 -25.5t-15.5 -40t-8 -38q-2 -8 -5 -34.5t-1.5 -55t10.5 -50.5t32 -21zM102 388q5 5 13.5 0t3.5 -11l-41 -53q-5 -4 -9 -0.5t-2 9.5z" />
    <glyph glyph-name="Abreve" unicode="&#x102;" horiz-adv-x="244" 
d="M200 -29q-26 62 -44 135q-3 -19 -8.5 -38.5t-15 -34.5t-23.5 -23.5t-33 -6.5q-22 2 -35 17t-19 35t-7.5 43t0.5 42q2 22 9.5 54t20.5 58.5t33 41t47 1.5q-1 5 -1 8v8q4 9 16.5 8t13.5 -8l4 -46q8 -13 9 -24.5t-4 -17.5q4 -33 10.5 -62.5t14.5 -58.5t18 -59l22 -65
q1 -5 -2 -9t-8 -5.5t-10.5 0t-7.5 7.5zM86 18q16 0 26 17.5t15.5 43t7.5 54t3 52.5q-4 23 -7 46.5t-5 46.5q-17 12 -30 4.5t-22.5 -25.5t-15.5 -40t-8 -38q-2 -8 -5 -34.5t-1.5 -55t10.5 -50.5t32 -21zM56 367q1 6 10 10t11 -3q8 -29 19 -28q7 1 11 9t7 22q2 6 10.5 5
t9.5 -7q-2 -19 -12.5 -30.5t-23.5 -13t-25 7t-17 28.5z" />
    <glyph glyph-name="Acircumflex" unicode="&#xc2;" horiz-adv-x="244" 
d="M200 -29q-26 62 -44 135q-3 -19 -8.5 -38.5t-15 -34.5t-23.5 -23.5t-33 -6.5q-22 2 -35 17t-19 35t-7.5 43t0.5 42q2 22 9.5 54t20.5 58.5t33 41t47 1.5q-1 5 -1 8v8q4 9 16.5 8t13.5 -8l4 -46q8 -13 9 -24.5t-4 -17.5q4 -33 10.5 -62.5t14.5 -58.5t18 -59l22 -65
q1 -5 -2 -9t-8 -5.5t-10.5 0t-7.5 7.5zM86 18q16 0 26 17.5t15.5 43t7.5 54t3 52.5q-4 23 -7 46.5t-5 46.5q-17 12 -30 4.5t-22.5 -25.5t-15.5 -40t-8 -38q-2 -8 -5 -34.5t-1.5 -55t10.5 -50.5t32 -21zM80 334q-2 -6 -11.5 -6t-11.5 6q1 7 5.5 19.5t10.5 24t13 19t12 4.5
q5 0 11 -8t11.5 -18.5l10.5 -20.5t8 -15q3 -7 -5 -9.5t-13 2.5q-3 4 -6 13.5t-6.5 18.5t-7 16.5t-6.5 7.5q-3 -2 -5.5 -9.5t-4.5 -16t-3.5 -16.5t-1.5 -12z" />
    <glyph glyph-name="Agrave" unicode="&#xc0;" horiz-adv-x="244" 
d="M200 -29q-26 62 -44 135q-3 -19 -8.5 -38.5t-15 -34.5t-23.5 -23.5t-33 -6.5q-22 2 -35 17t-19 35t-7.5 43t0.5 42q2 22 9.5 54t20.5 58.5t33 41t47 1.5q-1 5 -1 8v8q4 9 16.5 8t13.5 -8l4 -46q8 -13 9 -24.5t-4 -17.5q4 -33 10.5 -62.5t14.5 -58.5t18 -59l22 -65
q1 -5 -2 -9t-8 -5.5t-10.5 0t-7.5 7.5zM86 18q16 0 26 17.5t15.5 43t7.5 54t3 52.5q-4 23 -7 46.5t-5 46.5q-17 12 -30 4.5t-22.5 -25.5t-15.5 -40t-8 -38q-2 -8 -5 -34.5t-1.5 -55t10.5 -50.5t32 -21zM66 377q-1 6 6.5 11t11.5 1l27 -51q2 -5 -3 -9t-10 1z" />
    <glyph glyph-name="Adieresis" unicode="&#xc4;" horiz-adv-x="244" 
d="M200 -29q-26 62 -44 135q-3 -19 -8.5 -38.5t-15 -34.5t-23.5 -23.5t-33 -6.5q-22 2 -35 17t-19 35t-7.5 43t0.5 42q2 22 9.5 54t20.5 58.5t33 41t47 1.5q-1 5 -1 8v8q4 9 16.5 8t13.5 -8l4 -46q8 -13 9 -24.5t-4 -17.5q4 -33 10.5 -62.5t14.5 -58.5t18 -59l22 -65
q1 -5 -2 -9t-8 -5.5t-10.5 0t-7.5 7.5zM86 18q16 0 26 17.5t15.5 43t7.5 54t3 52.5q-4 23 -7 46.5t-5 46.5q-17 12 -30 4.5t-22.5 -25.5t-15.5 -40t-8 -38q-2 -8 -5 -34.5t-1.5 -55t10.5 -50.5t32 -21zM90 358q-2 -8 -9.5 -8t-10.5 8v3q2 10 10.5 10t9.5 -10v-3zM117 370
q8 -1 9.5 -9t-8.5 -10q-9 -1 -9.5 8t8.5 11z" />
    <glyph glyph-name="Amacron" unicode="&#x100;" horiz-adv-x="244" 
d="M200 -29q-26 62 -44 135q-3 -19 -8.5 -38.5t-15 -34.5t-23.5 -23.5t-33 -6.5q-22 2 -35 17t-19 35t-7.5 43t0.5 42q2 22 9.5 54t20.5 58.5t33 41t47 1.5q-1 5 -1 8v8q4 9 16.5 8t13.5 -8l4 -46q8 -13 9 -24.5t-4 -17.5q4 -33 10.5 -62.5t14.5 -58.5t18 -59l22 -65
q1 -5 -2 -9t-8 -5.5t-10.5 0t-7.5 7.5zM86 18q16 0 26 17.5t15.5 43t7.5 54t3 52.5q-4 23 -7 46.5t-5 46.5q-17 12 -30 4.5t-22.5 -25.5t-15.5 -40t-8 -38q-2 -8 -5 -34.5t-1.5 -55t10.5 -50.5t32 -21zM69 344q-7 -1 -8 8t5 11q17 1 38.5 1h26.5q7 0 8 -6t-7 -7
q-18 -2 -32 -4t-31 -3z" />
    <glyph glyph-name="Aogonek" unicode="&#x104;" horiz-adv-x="244" 
d="M200 -29q-26 62 -44 135q-3 -19 -8.5 -38.5t-15 -34.5t-23.5 -23.5t-33 -6.5q-22 2 -35 17t-19 35t-7.5 43t0.5 42q2 22 9.5 54t20.5 58.5t33 41t47 1.5q-1 5 -1 8v8q4 9 16.5 8t13.5 -8l4 -46q8 -13 9 -24.5t-4 -17.5q4 -33 10.5 -62.5t14.5 -58.5t18 -59l22 -65
q3 -7 -1.5 -15t-9.5 -16l-9.5 -15t-1.5 -11q4 -7 16 -7h22q8 -1 8 -8t-7 -9q-7 -1 -16 -1t-17.5 2t-15.5 5.5t-10 10.5t-0.5 14.5t6.5 15t7 14.5t1 13zM86 18q16 0 26 17.5t15.5 43t7.5 54t3 52.5q-4 23 -7 46.5t-5 46.5q-17 12 -30 4.5t-22.5 -25.5t-15.5 -40t-8 -38
q-2 -8 -5 -34.5t-1.5 -55t10.5 -50.5t32 -21z" />
    <glyph glyph-name="Aring" unicode="&#xc5;" horiz-adv-x="244" 
d="M200 -29q-26 62 -44 135q-3 -19 -8.5 -38.5t-15 -34.5t-23.5 -23.5t-33 -6.5q-22 2 -35 17t-19 35t-7.5 43t0.5 42q2 22 9.5 54t20.5 58.5t33 41t47 1.5q-1 5 -1 8v8q4 9 16.5 8t13.5 -8l4 -46q8 -13 9 -24.5t-4 -17.5q4 -33 10.5 -62.5t14.5 -58.5t18 -59l22 -65
q1 -5 -2 -9t-8 -5.5t-10.5 0t-7.5 7.5zM86 18q16 0 26 17.5t15.5 43t7.5 54t3 52.5q-4 23 -7 46.5t-5 46.5q-17 12 -30 4.5t-22.5 -25.5t-15.5 -40t-8 -38q-2 -8 -5 -34.5t-1.5 -55t10.5 -50.5t32 -21zM78 339q-8 1 -11 6t-2 11.5t5 13t10 9.5q0 3 6 5q13 -1 19 -5.5t8 -9.5
q1 -6 -2 -11.5t-8.5 -10t-12 -7t-12.5 -1.5zM98 364q-1 2 -6 4h-1q-2 0 -4 -2t-3 -4.5t-0.5 -4.5t4.5 -1q2 2 5 4t5 4z" />
    <glyph glyph-name="Atilde" unicode="&#xc3;" horiz-adv-x="244" 
d="M200 -29q-26 62 -44 135q-3 -19 -8.5 -38.5t-15 -34.5t-23.5 -23.5t-33 -6.5q-22 2 -35 17t-19 35t-7.5 43t0.5 42q2 22 9.5 54t20.5 58.5t33 41t47 1.5q-1 5 -1 8v8q4 9 16.5 8t13.5 -8l4 -46q8 -13 9 -24.5t-4 -17.5q4 -33 10.5 -62.5t14.5 -58.5t18 -59l22 -65
q1 -5 -2 -9t-8 -5.5t-10.5 0t-7.5 7.5zM86 18q16 0 26 17.5t15.5 43t7.5 54t3 52.5q-4 23 -7 46.5t-5 46.5q-17 12 -30 4.5t-22.5 -25.5t-15.5 -40t-8 -38q-2 -8 -5 -34.5t-1.5 -55t10.5 -50.5t32 -21zM66 331q-1 -6 -6.5 -5.5t-6.5 5.5q0 4 1.5 11t4 13.5t7 11.5t10.5 4
q10 -1 20 -9t15 -10t9 1t6 5q4 5 7.5 0.5t-0.5 -10.5q-2 -5 -8 -9t-14 -4q-4 0 -9 2t-9.5 5l-8.5 5.5t-7 1.5q-5 -1 -7 -6t-4 -12z" />
    <glyph glyph-name="AE" unicode="&#xc6;" horiz-adv-x="411" 
d="M354 278q6 -3 3.5 -8.5t-9.5 -3.5q-5 2 -10 2.5t-10 1.5q-28 -2 -57.5 -13t-44.5 -25t-16 -25.5t6.5 -20t21 -13.5t27.5 -7l21 4.5t24.5 4t24 1t19.5 -4.5q3 -4 2.5 -8.5t-5.5 -6.5q-17 -5 -34.5 -6t-34.5 0q-13 0 -28.5 -8.5t-29.5 -21t-24 -27.5t-11.5 -28.5t8 -23.5
t34.5 -12l14 -1q45 1 94 13.5t91 26.5q7 1 8.5 -8t-4.5 -11q-22 -8 -49 -15t-56.5 -12.5t-58.5 -7t-55 1.5l13 -38q1 -1 1 -3q1 -7 -2.5 -10t-9 -3t-10.5 2t-7 7q-13 28 -21 55q-17 10 -20 24.5t3 31.5l-6 25q-3 -20 -8.5 -39.5t-14.5 -34.5t-23 -23.5t-34 -6.5
q-22 2 -35 17t-19 35t-7.5 43t0.5 42q2 22 9.5 54t20.5 58.5t32.5 41t46.5 1.5v16q1 2 5 4t9 3t9 -0.5t6 -5.5q0 -1 1 -1l4 -46q8 -13 9 -24.5t-4 -17.5q8 -55 21 -107q20 23 50 39q-30 7 -42 19t-12.5 25t7.5 26t19 22q12 10 31 18t40 13t41.5 5.5t35.5 -5.5zM86 18
q17 0 27 17.5t15 43t7 54.5t3 52q-8 48 -12 93q-17 12 -30 4.5t-22.5 -25.5t-15.5 -40t-8 -38q-2 -8 -5 -34.5t-1.5 -55t10.5 -50.5t32 -21z" />
    <glyph glyph-name="AEacute" unicode="&#x1fc;" horiz-adv-x="411" 
d="M354 278q6 -3 3.5 -8.5t-9.5 -3.5q-5 2 -10 2.5t-10 1.5q-28 -2 -57.5 -13t-44.5 -25t-16 -25.5t6.5 -20t21 -13.5t27.5 -7l21 4.5t24.5 4t24 1t19.5 -4.5q3 -4 2.5 -8.5t-5.5 -6.5q-17 -5 -34.5 -6t-34.5 0q-13 0 -28.5 -8.5t-29.5 -21t-24 -27.5t-11.5 -28.5t8 -23.5
t34.5 -12l14 -1q45 1 94 13.5t91 26.5q7 1 8.5 -8t-4.5 -11q-22 -8 -49 -15t-56.5 -12.5t-58.5 -7t-55 1.5l13 -38q1 -1 1 -3q1 -7 -2.5 -10t-9 -3t-10.5 2t-7 7q-13 28 -21 55q-17 10 -20 24.5t3 31.5l-6 25q-3 -20 -8.5 -39.5t-14.5 -34.5t-23 -23.5t-34 -6.5
q-22 2 -35 17t-19 35t-7.5 43t0.5 42q2 22 9.5 54t20.5 58.5t32.5 41t46.5 1.5v16q1 2 5 4t9 3t9 -0.5t6 -5.5q0 -1 1 -1l4 -46q8 -13 9 -24.5t-4 -17.5q8 -55 21 -107q20 23 50 39q-30 7 -42 19t-12.5 25t7.5 26t19 22q12 10 31 18t40 13t41.5 5.5t35.5 -5.5zM86 18
q17 0 27 17.5t15 43t7 54.5t3 52q-8 48 -12 93q-17 12 -30 4.5t-22.5 -25.5t-15.5 -40t-8 -38q-2 -8 -5 -34.5t-1.5 -55t10.5 -50.5t32 -21zM220 389q5 5 13.5 0t3.5 -11l-41 -53q-5 -4 -9 -0.5t-2 9.5z" />
    <glyph glyph-name="Cacute" unicode="&#x106;" horiz-adv-x="233" 
d="M165 218q0 7 -0.5 17.5t-3 21t-8.5 19.5t-17 14q-17 5 -31.5 -5t-25.5 -27t-18 -38t-10 -37q-10 -41 -5 -79q4 -30 20 -54.5t46 -26.5q21 0 42.5 11t40.5 28t33 37t21 39q4 5 8.5 3.5t3.5 -8.5q-7 -21 -28 -49.5t-49.5 -50t-61 -29t-63.5 14.5q-16 11 -26 30t-14.5 41.5
t-4 47.5t6.5 49q4 18 13.5 42t24.5 43.5t36 30t48 1.5q24 -8 33.5 -31t6.5 -57q-3 -5 -10.5 -4t-7.5 6zM127 397q5 5 13.5 0t3.5 -11l-41 -53q-5 -4 -9 -0.5t-2 9.5z" />
    <glyph glyph-name="Ccaron" unicode="&#x10c;" horiz-adv-x="233" 
d="M165 218q0 7 -0.5 17.5t-3 21t-8.5 19.5t-17 14q-17 5 -31.5 -5t-25.5 -27t-18 -38t-10 -37q-10 -41 -5 -79q4 -30 20 -54.5t46 -26.5q21 0 42.5 11t40.5 28t33 37t21 39q4 5 8.5 3.5t3.5 -8.5q-7 -21 -28 -49.5t-49.5 -50t-61 -29t-63.5 14.5q-16 11 -26 30t-14.5 41.5
t-4 47.5t6.5 49q4 18 13.5 42t24.5 43.5t36 30t48 1.5q24 -8 33.5 -31t6.5 -57q-3 -5 -10.5 -4t-7.5 6zM68 387q-1 3 2 6.5t7 5.5t8 1.5t5 -3.5l4.5 -16.5t5.5 -17.5t7 -14.5t10 -7.5q1 3 1.5 12.5t0.5 21t-0.5 22.5t-0.5 17q2 7 10 7t9 -7v-16t-1 -27.5t-3.5 -27
t-7.5 -14.5q-11 -5 -20.5 0t-16.5 15t-12 22t-8 21z" />
    <glyph glyph-name="Ccedilla" unicode="&#xc7;" horiz-adv-x="233" 
d="M165 218q0 7 -0.5 17.5t-3 21t-8.5 19.5t-17 14q-17 5 -31.5 -5t-25.5 -27t-18 -38t-10 -37q-10 -41 -5 -79q4 -30 20 -54.5t46 -26.5q21 0 42.5 11t40.5 28t33 37t21 39q4 5 8.5 3.5t3.5 -8.5q-6 -17 -20 -38.5t-33.5 -41t-43.5 -34t-49 -16.5q-1 -12 -0.5 -22.5
t2.5 -12.5q5 -4 13 -5.5t15.5 -3.5t13 -5.5t6.5 -12.5q0 -8 -5.5 -14t-13.5 -11.5t-17.5 -9t-17.5 -4.5q-5 0 -6.5 3t-0.5 6.5t3.5 5.5t6.5 -1q9 2 20 9t9 14q-1 4 -6 6t-12 3.5l-13.5 3t-10.5 3.5q-8 4 -8.5 19t1.5 30q-17 3 -35 15q-16 11 -26 30t-14.5 41.5t-4 47.5
t6.5 49q4 18 13.5 42t24.5 43.5t36 30t48 1.5q24 -8 33.5 -31t6.5 -57q-3 -5 -10.5 -4t-7.5 6z" />
    <glyph glyph-name="Ccircumflex" unicode="&#x108;" horiz-adv-x="233" 
d="M165 218q0 7 -0.5 17.5t-3 21t-8.5 19.5t-17 14q-17 5 -31.5 -5t-25.5 -27t-18 -38t-10 -37q-10 -41 -5 -79q4 -30 20 -54.5t46 -26.5q21 0 42.5 11t40.5 28t33 37t21 39q4 5 8.5 3.5t3.5 -8.5q-7 -21 -28 -49.5t-49.5 -50t-61 -29t-63.5 14.5q-16 11 -26 30t-14.5 41.5
t-4 47.5t6.5 49q4 18 13.5 42t24.5 43.5t36 30t48 1.5q24 -8 33.5 -31t6.5 -57q-3 -5 -10.5 -4t-7.5 6zM105 340q-2 -6 -11.5 -6t-11.5 6q1 7 5.5 19.5t10.5 24t13 19t12 4.5q5 0 11 -8t11.5 -18.5l10.5 -20.5t8 -15q3 -7 -5 -9.5t-13 2.5q-3 4 -6 13.5t-6.5 18.5t-7 16.5
t-6.5 7.5q-3 -2 -5.5 -9.5t-4.5 -16t-3.5 -16.5t-1.5 -12z" />
    <glyph glyph-name="Cdotaccent" unicode="&#x10a;" horiz-adv-x="233" 
d="M165 218q0 7 -0.5 17.5t-3 21t-8.5 19.5t-17 14q-17 5 -31.5 -5t-25.5 -27t-18 -38t-10 -37q-10 -41 -5 -79q4 -30 20 -54.5t46 -26.5q21 0 42.5 11t40.5 28t33 37t21 39q4 5 8.5 3.5t3.5 -8.5q-7 -21 -28 -49.5t-49.5 -50t-61 -29t-63.5 14.5q-16 11 -26 30t-14.5 41.5
t-4 47.5t6.5 49q4 18 13.5 42t24.5 43.5t36 30t48 1.5q24 -8 33.5 -31t6.5 -57q-3 -5 -10.5 -4t-7.5 6zM134 358q1 -4 -1 -7t-5.5 -4t-7 1t-4.5 7q-2 13 6.5 13.5t11.5 -10.5z" />
    <glyph glyph-name="Dcaron" unicode="&#x10e;" horiz-adv-x="328" 
d="M75 41q-1 5 -1.5 10t-1.5 10q-11 28 -25 57.5t-25 55.5l-9 22.5t-8 25.5t-2.5 25.5t7.5 22.5q5 9 15.5 11.5t22 2.5t22.5 -2.5t19 -3.5q22 -5 57.5 -16.5t70 -28.5t59.5 -39t26 -49q1 -30 -20 -50.5t-51.5 -33.5t-63.5 -20t-56 -10q1 -8 2 -18t0 -17q-1 -4 -5.5 -5.5
t-9.5 -1.5t-9.5 2t-5.5 5q-2 8 -3 15.5t-3 15.5q-5 -1 -9.5 -1h-9.5t-7 7t6 7q4 0 8.5 0.5t9.5 0.5zM280 145q-2 22 -23 41t-50.5 34.5t-62 26.5t-55.5 17q1 -51 5 -100.5t10 -100.5l5 -19q21 3 51 10t57 19t45.5 29.5t17.5 42.5zM59 269q-12 2 -22.5 0.5t-15.5 -7.5
t-4.5 -17t3 -22.5t6.5 -22.5t6 -17q7 -17 16.5 -35t18.5 -37zM66 368q-1 3 2 6.5t7 5.5t8 1.5t5 -3.5l4.5 -16.5t5.5 -17.5t7 -14.5t10 -7.5q1 3 1.5 12.5t0.5 21t-0.5 22.5t-0.5 17q2 7 10 7t9 -7v-16t-1 -27.5t-3.5 -27t-7.5 -14.5q-11 -5 -20.5 0t-16.5 15t-12 22t-8 21z
" />
    <glyph glyph-name="Dcroat" unicode="&#x110;" horiz-adv-x="328" 
d="M75 41q-1 5 -1.5 10t-1.5 10q-7 18 -16 37t-17 38l-40 -5q-7 0 -7.5 9t6.5 10l33 2l-9 22l-9 22.5t-8 25.5t-2.5 25.5t7.5 22.5q5 9 15.5 11.5t22 2.5t22.5 -2.5t19 -3.5q22 -5 57.5 -16.5t70 -28.5t59.5 -39t26 -49q1 -30 -20 -50.5t-51.5 -33.5t-63.5 -20t-56 -10
q1 -8 2 -18t0 -17q-1 -4 -5.5 -5.5t-9.5 -1.5t-9.5 2t-5.5 5q-2 8 -3 15.5t-3 15.5q-5 -1 -9.5 -1h-9.5t-7 7t6 7q4 0 8.5 0.5t9.5 0.5zM280 145q-2 22 -23 41t-50.5 34.5t-62 26.5t-55.5 17l2 -53.5t3 -52.5l48 4q7 1 8.5 -5t-5.5 -8l-49 -6l4 -40l4 -40l5 -19q21 3 51 10
t57 19t45.5 29.5t17.5 42.5zM32 183l6 -14t7 -15l20 2l-6 113q-12 2 -22.5 0.5t-15.5 -7.5t-4.5 -17t3 -22.5t6.5 -22.5t6 -17zM65 139l-11 -2l13 -26z" />
    <glyph glyph-name="Eacute" unicode="&#xc9;" horiz-adv-x="259" 
d="M201 278q6 -3 4 -8.5t-9 -3.5q-12 3 -29.5 2t-34.5 -6t-33 -13t-25 -17q-16 -14 -17 -25.5t6.5 -20t21 -13.5t27.5 -7q9 2 21.5 4.5t25 4t24 1t18.5 -4.5q4 -4 3 -8.5t-6 -6.5q-16 -5 -33.5 -6t-34.5 0q-13 0 -28.5 -8.5t-29 -21.5t-23 -28t-9.5 -28.5t12 -23t41 -10.5
q45 -2 93.5 11t91.5 27q7 1 8.5 -8t-5.5 -11q-22 -8 -49.5 -15.5t-57.5 -12.5t-59.5 -7t-55.5 2q-36 5 -46.5 23t-3.5 39.5t27.5 43t45.5 33.5q-30 7 -42.5 19t-13 25t8 26t19.5 22q12 10 31 18t40 13t41.5 5.5t34.5 -5.5zM144 387q5 5 13.5 0t3.5 -11l-41 -53
q-5 -4 -9 -0.5t-2 9.5z" />
    <glyph glyph-name="Ebreve" unicode="&#x114;" horiz-adv-x="259" 
d="M201 278q6 -3 4 -8.5t-9 -3.5q-12 3 -29.5 2t-34.5 -6t-33 -13t-25 -17q-16 -14 -17 -25.5t6.5 -20t21 -13.5t27.5 -7q9 2 21.5 4.5t25 4t24 1t18.5 -4.5q4 -4 3 -8.5t-6 -6.5q-16 -5 -33.5 -6t-34.5 0q-13 0 -28.5 -8.5t-29 -21.5t-23 -28t-9.5 -28.5t12 -23t41 -10.5
q45 -2 93.5 11t91.5 27q7 1 8.5 -8t-5.5 -11q-22 -8 -49.5 -15.5t-57.5 -12.5t-59.5 -7t-55.5 2q-36 5 -46.5 23t-3.5 39.5t27.5 43t45.5 33.5q-30 7 -42.5 19t-13 25t8 26t19.5 22q12 10 31 18t40 13t41.5 5.5t34.5 -5.5zM88 360q1 6 10 10t11 -3q8 -29 19 -28q7 1 11 9
t7 22q2 6 10.5 5t9.5 -7q-2 -19 -12.5 -30.5t-23.5 -13t-25 7t-17 28.5z" />
    <glyph glyph-name="Ecaron" unicode="&#x11a;" horiz-adv-x="259" 
d="M201 278q6 -3 4 -8.5t-9 -3.5q-12 3 -29.5 2t-34.5 -6t-33 -13t-25 -17q-16 -14 -17 -25.5t6.5 -20t21 -13.5t27.5 -7q9 2 21.5 4.5t25 4t24 1t18.5 -4.5q4 -4 3 -8.5t-6 -6.5q-16 -5 -33.5 -6t-34.5 0q-13 0 -28.5 -8.5t-29 -21.5t-23 -28t-9.5 -28.5t12 -23t41 -10.5
q45 -2 93.5 11t91.5 27q7 1 8.5 -8t-5.5 -11q-22 -8 -49.5 -15.5t-57.5 -12.5t-59.5 -7t-55.5 2q-36 5 -46.5 23t-3.5 39.5t27.5 43t45.5 33.5q-30 7 -42.5 19t-13 25t8 26t19.5 22q12 10 31 18t40 13t41.5 5.5t34.5 -5.5zM74 372q-1 3 2 6.5t7 5.5t8 1.5t5 -3.5l4.5 -16.5
t5.5 -17.5t7 -14.5t10 -7.5q1 3 1.5 12.5t0.5 21t-0.5 22.5t-0.5 17q2 7 10 7t9 -7v-16t-1 -27.5t-3.5 -27t-7.5 -14.5q-11 -5 -20.5 0t-16.5 15t-12 22t-8 21z" />
    <glyph glyph-name="Ecircumflex" unicode="&#xca;" horiz-adv-x="259" 
d="M201 278q6 -3 4 -8.5t-9 -3.5q-12 3 -29.5 2t-34.5 -6t-33 -13t-25 -17q-16 -14 -17 -25.5t6.5 -20t21 -13.5t27.5 -7q9 2 21.5 4.5t25 4t24 1t18.5 -4.5q4 -4 3 -8.5t-6 -6.5q-16 -5 -33.5 -6t-34.5 0q-13 0 -28.5 -8.5t-29 -21.5t-23 -28t-9.5 -28.5t12 -23t41 -10.5
q45 -2 93.5 11t91.5 27q7 1 8.5 -8t-5.5 -11q-22 -8 -49.5 -15.5t-57.5 -12.5t-59.5 -7t-55.5 2q-36 5 -46.5 23t-3.5 39.5t27.5 43t45.5 33.5q-30 7 -42.5 19t-13 25t8 26t19.5 22q12 10 31 18t40 13t41.5 5.5t34.5 -5.5zM109 326q-2 -6 -11.5 -6t-11.5 6q1 7 5.5 19.5
t10.5 24t13 19t12 4.5q5 0 11 -8t11.5 -18.5l10.5 -20.5t8 -15q3 -7 -5 -9.5t-13 2.5q-3 4 -6 13.5t-6.5 18.5t-7 16.5t-6.5 7.5q-3 -2 -5.5 -9.5t-4.5 -16t-3.5 -16.5t-1.5 -12z" />
    <glyph glyph-name="Edieresis" unicode="&#xcb;" horiz-adv-x="259" 
d="M201 278q6 -3 4 -8.5t-9 -3.5q-12 3 -29.5 2t-34.5 -6t-33 -13t-25 -17q-16 -14 -17 -25.5t6.5 -20t21 -13.5t27.5 -7q9 2 21.5 4.5t25 4t24 1t18.5 -4.5q4 -4 3 -8.5t-6 -6.5q-16 -5 -33.5 -6t-34.5 0q-13 0 -28.5 -8.5t-29 -21.5t-23 -28t-9.5 -28.5t12 -23t41 -10.5
q45 -2 93.5 11t91.5 27q7 1 8.5 -8t-5.5 -11q-22 -8 -49.5 -15.5t-57.5 -12.5t-59.5 -7t-55.5 2q-36 5 -46.5 23t-3.5 39.5t27.5 43t45.5 33.5q-30 7 -42.5 19t-13 25t8 26t19.5 22q12 10 31 18t40 13t41.5 5.5t34.5 -5.5zM116 349q-2 -8 -9.5 -8t-10.5 8v3q2 10 10.5 10
t9.5 -10v-3zM143 361q8 -1 9.5 -9t-8.5 -10q-9 -1 -9.5 8t8.5 11z" />
    <glyph glyph-name="Edotaccent" unicode="&#x116;" horiz-adv-x="259" 
d="M201 278q6 -3 4 -8.5t-9 -3.5q-12 3 -29.5 2t-34.5 -6t-33 -13t-25 -17q-16 -14 -17 -25.5t6.5 -20t21 -13.5t27.5 -7q9 2 21.5 4.5t25 4t24 1t18.5 -4.5q4 -4 3 -8.5t-6 -6.5q-16 -5 -33.5 -6t-34.5 0q-13 0 -28.5 -8.5t-29 -21.5t-23 -28t-9.5 -28.5t12 -23t41 -10.5
q45 -2 93.5 11t91.5 27q7 1 8.5 -8t-5.5 -11q-22 -8 -49.5 -15.5t-57.5 -12.5t-59.5 -7t-55.5 2q-36 5 -46.5 23t-3.5 39.5t27.5 43t45.5 33.5q-30 7 -42.5 19t-13 25t8 26t19.5 22q12 10 31 18t40 13t41.5 5.5t34.5 -5.5zM130 330q1 -4 -1 -7t-5.5 -4t-7 1t-4.5 7
q-2 13 6.5 13.5t11.5 -10.5z" />
    <glyph glyph-name="Egrave" unicode="&#xc8;" horiz-adv-x="259" 
d="M201 278q6 -3 4 -8.5t-9 -3.5q-12 3 -29.5 2t-34.5 -6t-33 -13t-25 -17q-16 -14 -17 -25.5t6.5 -20t21 -13.5t27.5 -7q9 2 21.5 4.5t25 4t24 1t18.5 -4.5q4 -4 3 -8.5t-6 -6.5q-16 -5 -33.5 -6t-34.5 0q-13 0 -28.5 -8.5t-29 -21.5t-23 -28t-9.5 -28.5t12 -23t41 -10.5
q45 -2 93.5 11t91.5 27q7 1 8.5 -8t-5.5 -11q-22 -8 -49.5 -15.5t-57.5 -12.5t-59.5 -7t-55.5 2q-36 5 -46.5 23t-3.5 39.5t27.5 43t45.5 33.5q-30 7 -42.5 19t-13 25t8 26t19.5 22q12 10 31 18t40 13t41.5 5.5t34.5 -5.5zM87 367q-1 6 6.5 11t11.5 1l27 -51q2 -5 -3 -9
t-10 1z" />
    <glyph glyph-name="Emacron" unicode="&#x112;" horiz-adv-x="259" 
d="M201 278q6 -3 4 -8.5t-9 -3.5q-12 3 -29.5 2t-34.5 -6t-33 -13t-25 -17q-16 -14 -17 -25.5t6.5 -20t21 -13.5t27.5 -7q9 2 21.5 4.5t25 4t24 1t18.5 -4.5q4 -4 3 -8.5t-6 -6.5q-16 -5 -33.5 -6t-34.5 0q-13 0 -28.5 -8.5t-29 -21.5t-23 -28t-9.5 -28.5t12 -23t41 -10.5
q45 -2 93.5 11t91.5 27q7 1 8.5 -8t-5.5 -11q-22 -8 -49.5 -15.5t-57.5 -12.5t-59.5 -7t-55.5 2q-36 5 -46.5 23t-3.5 39.5t27.5 43t45.5 33.5q-30 7 -42.5 19t-13 25t8 26t19.5 22q12 10 31 18t40 13t41.5 5.5t34.5 -5.5zM92 335q-7 -1 -8 8t5 11q17 1 38.5 1h26.5
q7 0 8 -6t-7 -7q-18 -2 -32 -4t-31 -3z" />
    <glyph glyph-name="Eogonek" unicode="&#x118;" horiz-adv-x="259" 
d="M201 278q6 -3 4 -8.5t-9 -3.5q-12 3 -29.5 2t-34.5 -6t-33 -13t-25 -17q-16 -14 -17 -25.5t6.5 -20t21 -13.5t27.5 -7q9 2 21.5 4.5t25 4t24 1t18.5 -4.5q4 -4 3 -8.5t-6 -6.5q-16 -5 -33.5 -6t-34.5 0q-13 0 -28.5 -8.5t-29 -21.5t-23 -28t-9.5 -28.5t12 -23t41 -10.5
q45 -2 93.5 11t91.5 27q7 1 8.5 -8t-5.5 -11l-23 -8t-26 -7q-10 -11 -17 -24t-2 -19q5 -7 16.5 -7.5t21.5 -0.5q8 0 8 -7.5t-7 -9.5q-7 -1 -16 -0.5t-17.5 2t-15.5 5.5t-10 10q-4 10 1.5 22t13.5 23q-37 -8 -76.5 -12.5t-72.5 0.5q-36 5 -46.5 23t-3.5 39.5t27.5 43
t45.5 33.5q-30 7 -42.5 19t-13 25t8 26t19.5 22q12 10 31 18t40 13t41.5 5.5t34.5 -5.5z" />
    <glyph glyph-name="Gbreve" unicode="&#x11e;" horiz-adv-x="317" 
d="M305 52q7 -33 -7.5 -48.5t-40 -21t-57.5 -3.5t-59 5q-16 2 -31 5t-29 7q-4 -8 -10.5 -11t-12 -2.5t-8.5 4.5t2 12q-5 2 -14 5t-17 7t-14 9.5t-5 12.5q1 6 10 11t22 9.5t26.5 8l24.5 6.5q8 20 14.5 41t9.5 42q-21 -3 -35 7.5t-22 28.5t-10.5 40.5t-0.5 43.5q3 40 22 43
q15 3 28 -8.5t22.5 -32.5t14.5 -47t4 -51q34 15 55.5 44t40.5 61q-1 8 0 17.5t4.5 17t10.5 11.5t19 0q6 -3 7 -9.5t-1.5 -14.5t-6 -16t-5.5 -12q1 -28 7 -55t13.5 -54.5l15.5 -55.5t13 -57zM108 57q-5 -12 -9.5 -24t-11.5 -24q13 -4 29.5 -7.5t34.5 -4.5q25 -2 48 -2.5
t40.5 4.5t27.5 16.5t8 34.5q-2 22 -8 43l-13 44.5t-14 52.5t-11 68q-8 -14 -18.5 -29.5t-23 -29.5t-27 -25t-29.5 -17l-6 -41.5t-11 -43.5l53 14.5l53 14.5q7 1 8.5 -5t-5.5 -8q-32 -8 -57.5 -15.5t-57.5 -15.5zM110 169q1 13 0 33t-6 40.5t-13 36.5t-20 20q-5 -3 -7 -14
t-2 -24t1 -25t2 -18q1 -8 4.5 -17.5t9 -17.5t13.5 -12.5t18 -1.5zM78 52q-4 -1 -13 -3.5t-18 -5.5t-16.5 -6t-8.5 -6q-2 -2 2.5 -5t11 -5.5l12.5 -5t9 -3.5q5 8 10 17t11 23zM120 367q1 6 10 10t11 -3q8 -29 19 -28q7 1 11 9t7 22q2 6 10.5 5t9.5 -7q-2 -19 -12.5 -30.5
t-23.5 -13t-25 7t-17 28.5z" />
    <glyph glyph-name="Gcircumflex" unicode="&#x11c;" horiz-adv-x="317" 
d="M305 52q7 -33 -7.5 -48.5t-40 -21t-57.5 -3.5t-59 5q-16 2 -31 5t-29 7q-4 -8 -10.5 -11t-12 -2.5t-8.5 4.5t2 12q-5 2 -14 5t-17 7t-14 9.5t-5 12.5q1 6 10 11t22 9.5t26.5 8l24.5 6.5q8 20 14.5 41t9.5 42q-21 -3 -35 7.5t-22 28.5t-10.5 40.5t-0.5 43.5q3 40 22 43
q15 3 28 -8.5t22.5 -32.5t14.5 -47t4 -51q34 15 55.5 44t40.5 61q-1 8 0 17.5t4.5 17t10.5 11.5t19 0q6 -3 7 -9.5t-1.5 -14.5t-6 -16t-5.5 -12q1 -28 7 -55t13.5 -54.5l15.5 -55.5t13 -57zM108 57q-5 -12 -9.5 -24t-11.5 -24q13 -4 29.5 -7.5t34.5 -4.5q25 -2 48 -2.5
t40.5 4.5t27.5 16.5t8 34.5q-2 22 -8 43l-13 44.5t-14 52.5t-11 68q-8 -14 -18.5 -29.5t-23 -29.5t-27 -25t-29.5 -17l-6 -41.5t-11 -43.5l53 14.5l53 14.5q7 1 8.5 -5t-5.5 -8q-32 -8 -57.5 -15.5t-57.5 -15.5zM110 169q1 13 0 33t-6 40.5t-13 36.5t-20 20q-5 -3 -7 -14
t-2 -24t1 -25t2 -18q1 -8 4.5 -17.5t9 -17.5t13.5 -12.5t18 -1.5zM78 52q-4 -1 -13 -3.5t-18 -5.5t-16.5 -6t-8.5 -6q-2 -2 2.5 -5t11 -5.5l12.5 -5t9 -3.5q5 8 10 17t11 23zM139 334q-2 -6 -11.5 -6t-11.5 6q1 7 5.5 19.5t10.5 24t13 19t12 4.5q5 0 11 -8t11.5 -18.5
l10.5 -20.5t8 -15q3 -7 -5 -9.5t-13 2.5q-3 4 -6 13.5t-6.5 18.5t-7 16.5t-6.5 7.5q-3 -2 -5.5 -9.5t-4.5 -16t-3.5 -16.5t-1.5 -12z" />
    <glyph glyph-name="Gcommaaccent" unicode="&#x122;" horiz-adv-x="317" 
d="M305 52q7 -33 -7.5 -48.5t-40 -21t-57.5 -3.5t-59 5q-16 2 -31 5t-29 7q-4 -8 -10.5 -11t-12 -2.5t-8.5 4.5t2 12q-5 2 -14 5t-17 7t-14 9.5t-5 12.5q1 6 10 11t22 9.5t26.5 8l24.5 6.5q8 20 14.5 41t9.5 42q-21 -3 -35 7.5t-22 28.5t-10.5 40.5t-0.5 43.5q3 40 22 43
q15 3 28 -8.5t22.5 -32.5t14.5 -47t4 -51q34 15 55.5 44t40.5 61q-1 8 0 17.5t4.5 17t10.5 11.5t19 0q6 -3 7 -9.5t-1.5 -14.5t-6 -16t-5.5 -12q1 -28 7 -55t13.5 -54.5l15.5 -55.5t13 -57zM108 57q-5 -12 -9.5 -24t-11.5 -24q13 -4 29.5 -7.5t34.5 -4.5q25 -2 48 -2.5
t40.5 4.5t27.5 16.5t8 34.5q-2 22 -8 43l-13 44.5t-14 52.5t-11 68q-8 -14 -18.5 -29.5t-23 -29.5t-27 -25t-29.5 -17l-6 -41.5t-11 -43.5l53 14.5l53 14.5q7 1 8.5 -5t-5.5 -8q-32 -8 -57.5 -15.5t-57.5 -15.5zM110 169q1 13 0 33t-6 40.5t-13 36.5t-20 20q-5 -3 -7 -14
t-2 -24t1 -25t2 -18q1 -8 4.5 -17.5t9 -17.5t13.5 -12.5t18 -1.5zM78 52q-4 -1 -13 -3.5t-18 -5.5t-16.5 -6t-8.5 -6q-2 -2 2.5 -5t11 -5.5l12.5 -5t9 -3.5q5 8 10 17t11 23zM169 -68q-4 4 -3.5 8t3.5 7t7.5 4t8.5 -2q10 -6 13 -18.5t-8 -44.5q-2 -6 -8 -4t-4 7q4 12 2.5 22
t-11.5 21z" />
    <glyph glyph-name="Gdotaccent" unicode="&#x120;" horiz-adv-x="317" 
d="M305 52q7 -33 -7.5 -48.5t-40 -21t-57.5 -3.5t-59 5q-16 2 -31 5t-29 7q-4 -8 -10.5 -11t-12 -2.5t-8.5 4.5t2 12q-5 2 -14 5t-17 7t-14 9.5t-5 12.5q1 6 10 11t22 9.5t26.5 8l24.5 6.5q8 20 14.5 41t9.5 42q-21 -3 -35 7.5t-22 28.5t-10.5 40.5t-0.5 43.5q3 40 22 43
q15 3 28 -8.5t22.5 -32.5t14.5 -47t4 -51q34 15 55.5 44t40.5 61q-1 8 0 17.5t4.5 17t10.5 11.5t19 0q6 -3 7 -9.5t-1.5 -14.5t-6 -16t-5.5 -12q1 -28 7 -55t13.5 -54.5l15.5 -55.5t13 -57zM108 57q-5 -12 -9.5 -24t-11.5 -24q13 -4 29.5 -7.5t34.5 -4.5q25 -2 48 -2.5
t40.5 4.5t27.5 16.5t8 34.5q-2 22 -8 43l-13 44.5t-14 52.5t-11 68q-8 -14 -18.5 -29.5t-23 -29.5t-27 -25t-29.5 -17l-6 -41.5t-11 -43.5l53 14.5l53 14.5q7 1 8.5 -5t-5.5 -8q-32 -8 -57.5 -15.5t-57.5 -15.5zM110 169q1 13 0 33t-6 40.5t-13 36.5t-20 20q-5 -3 -7 -14
t-2 -24t1 -25t2 -18q1 -8 4.5 -17.5t9 -17.5t13.5 -12.5t18 -1.5zM78 52q-4 -1 -13 -3.5t-18 -5.5t-16.5 -6t-8.5 -6q-2 -2 2.5 -5t11 -5.5l12.5 -5t9 -3.5q5 8 10 17t11 23zM167 335q1 -4 -1 -7t-5.5 -4t-7 1t-4.5 7q-2 13 6.5 13.5t11.5 -10.5z" />
    <glyph glyph-name="Hbar" unicode="&#x126;" horiz-adv-x="339" 
d="M304 291q-5 -24 -7 -48.5t-3 -48.5l35 2q7 -1 7 -6.5t-6 -7.5l-36 -3q1 -14 1.5 -26.5t2.5 -26.5l31 4l31 4q7 0 7 -5.5t-6 -7.5q-15 -3 -30.5 -5l-31.5 -4q5 -31 13 -61.5t22 -59.5q2 -6 -6.5 -9.5t-11.5 2.5q-29 58 -41 126q-35 -4 -65 -4.5t-60 -0.5q-3 -38 -4 -60
t0 -40q-1 -6 -13 -8t-16 5v2q-1 26 -0.5 50.5t2.5 50.5q-27 3 -58.5 10t-47.5 22q-9 10 -10.5 23t11.5 30q8 12 21.5 25t29 25t31.5 21t28 12q15 4 25 -3t11 -27q0 -9 -1 -21.5t-3 -35.5l109 6q-1 25 1 50t7 49q1 4 6 6t11 2t10.5 -2t3.5 -6zM28 175q-7 -16 7 -26
q15 -13 39.5 -18.5t45.5 -7.5l2 23t2 20l-36 -3q-5 0 -8 2.5t-3 6t1.5 7t5.5 3.5l41 2q2 26 2.5 40t0.5 21t-0.5 8.5t-1.5 2.5q-6 2 -20.5 -5.5t-30 -20.5t-29 -28t-18.5 -27zM272 123q-5 27 -6 54l-111 -9l-4 -47q27 -2 57 -1.5t64 3.5z" />
    <glyph glyph-name="Hcircumflex" unicode="&#x124;" horiz-adv-x="339" 
d="M304 291q-8 -41 -9.5 -82t3.5 -83l31 4l31 4q7 0 7 -5.5t-6 -7.5q-15 -3 -30.5 -5l-31.5 -4q5 -31 13 -61.5t22 -59.5q2 -6 -6.5 -9.5t-11.5 2.5q-29 58 -41 126q-35 -4 -65 -4.5t-60 -0.5q-3 -38 -4 -60t0 -40q-1 -6 -13 -8t-16 5v2q-1 26 -0.5 50.5t2.5 50.5
q-27 3 -58.5 10t-47.5 22q-9 10 -10.5 23t11.5 30q8 12 21.5 25t29 25t31.5 21t28 12q15 4 25 -3t11 -27q0 -7 -0.5 -15.5t-1.5 -22.5t-3 -34t-4 -50q27 -2 57 -1.5t64 3.5q-7 42 -7 84.5t8 83.5q1 4 6 6t11 2t10.5 -2t3.5 -6zM28 175q-7 -16 7 -26q15 -13 39.5 -18.5
t45.5 -7.5q4 49 6 75.5t2.5 39t-0.5 15t-2 3.5q-6 2 -20.5 -5.5t-30 -20.5t-29 -28t-18.5 -27zM186 300q-2 -6 -11.5 -6t-11.5 6q1 7 5.5 19.5t10.5 24t13 19t12 4.5q5 0 11 -8t11.5 -18.5l10.5 -20.5t8 -15q3 -7 -5 -9.5t-13 2.5q-3 4 -6 13.5t-6.5 18.5t-7 16.5t-6.5 7.5
q-3 -2 -5.5 -9.5t-4.5 -16t-3.5 -16.5t-1.5 -12z" />
    <glyph glyph-name="Iacute" unicode="&#xcd;" horiz-adv-x="321" 
d="M258 268q13 -18 16.5 -43.5t0 -53t-13.5 -55.5t-25 -51l3 -3l21 -27l17 -22q3 -4 2 -8.5t-4.5 -8t-8 -4.5t-8.5 2l-2 2q-8 8 -17 19l-20 24q-23 -29 -53 -40.5t-59.5 -7.5t-55.5 22t-39 50q-5 6 0 9.5t10 -1.5q13 -29 37 -45t51 -18.5t54 9t45 38.5l-33 44.5t-33.5 51
t-24 52t-3.5 48.5q6 25 23 39t38.5 16.5t44 -7t37.5 -31.5zM257 206q-1 15 -5 29.5t-11.5 27t-19 21t-26.5 10.5q-22 2 -35.5 -11t-15.5 -34q-2 -20 4 -40.5t17.5 -41.5t27 -42.5l32.5 -43.5q14 23 24 57t8 68zM196 410q5 5 13.5 0t3.5 -11l-41 -53q-5 -4 -9 -0.5t-2 9.5z
" />
    <glyph glyph-name="Ibreve" unicode="&#x12c;" horiz-adv-x="321" 
d="M258 268q13 -18 16.5 -43.5t0 -53t-13.5 -55.5t-25 -51l3 -3l21 -27l17 -22q3 -4 2 -8.5t-4.5 -8t-8 -4.5t-8.5 2l-2 2q-8 8 -17 19l-20 24q-23 -29 -53 -40.5t-59.5 -7.5t-55.5 22t-39 50q-5 6 0 9.5t10 -1.5q13 -29 37 -45t51 -18.5t54 9t45 38.5l-33 44.5t-33.5 51
t-24 52t-3.5 48.5q6 25 23 39t38.5 16.5t44 -7t37.5 -31.5zM257 206q-1 15 -5 29.5t-11.5 27t-19 21t-26.5 10.5q-22 2 -35.5 -11t-15.5 -34q-2 -20 4 -40.5t17.5 -41.5t27 -42.5l32.5 -43.5q14 23 24 57t8 68zM147 381q1 6 10 10t11 -3q8 -29 19 -28q7 1 11 9t7 22
q2 6 10.5 5t9.5 -7q-2 -19 -12.5 -30.5t-23.5 -13t-25 7t-17 28.5z" />
    <glyph glyph-name="Icircumflex" unicode="&#xce;" horiz-adv-x="321" 
d="M258 268q13 -18 16.5 -43.5t0 -53t-13.5 -55.5t-25 -51l3 -3l21 -27l17 -22q3 -4 2 -8.5t-4.5 -8t-8 -4.5t-8.5 2l-2 2q-8 8 -17 19l-20 24q-23 -29 -53 -40.5t-59.5 -7.5t-55.5 22t-39 50q-5 6 0 9.5t10 -1.5q13 -29 37 -45t51 -18.5t54 9t45 38.5l-33 44.5t-33.5 51
t-24 52t-3.5 48.5q6 25 23 39t38.5 16.5t44 -7t37.5 -31.5zM257 206q-1 15 -5 29.5t-11.5 27t-19 21t-26.5 10.5q-22 2 -35.5 -11t-15.5 -34q-2 -20 4 -40.5t17.5 -41.5t27 -42.5l32.5 -43.5q14 23 24 57t8 68zM170 348q-2 -6 -11.5 -6t-11.5 6q1 7 5.5 19.5t10.5 24t13 19
t12 4.5q5 0 11 -8t11.5 -18.5l10.5 -20.5t8 -15q3 -7 -5 -9.5t-13 2.5q-3 4 -6 13.5t-6.5 18.5t-7 16.5t-6.5 7.5q-3 -2 -5.5 -9.5t-4.5 -16t-3.5 -16.5t-1.5 -12z" />
    <glyph glyph-name="Idieresis" unicode="&#xcf;" horiz-adv-x="321" 
d="M258 268q13 -18 16.5 -43.5t0 -53t-13.5 -55.5t-25 -51l3 -3l21 -27l17 -22q3 -4 2 -8.5t-4.5 -8t-8 -4.5t-8.5 2l-2 2q-8 8 -17 19l-20 24q-23 -29 -53 -40.5t-59.5 -7.5t-55.5 22t-39 50q-5 6 0 9.5t10 -1.5q13 -29 37 -45t51 -18.5t54 9t45 38.5l-33 44.5t-33.5 51
t-24 52t-3.5 48.5q6 25 23 39t38.5 16.5t44 -7t37.5 -31.5zM257 206q-1 15 -5 29.5t-11.5 27t-19 21t-26.5 10.5q-22 2 -35.5 -11t-15.5 -34q-2 -20 4 -40.5t17.5 -41.5t27 -42.5l32.5 -43.5q14 23 24 57t8 68zM174 362q-2 -8 -9.5 -8t-10.5 8v3q2 10 10.5 10t9.5 -10v-3z
M201 374q8 -1 9.5 -9t-8.5 -10q-9 -1 -9.5 8t8.5 11z" />
    <glyph glyph-name="Idotaccent" unicode="&#x130;" horiz-adv-x="321" 
d="M258 268q13 -18 16.5 -43.5t0 -53t-13.5 -55.5t-25 -51l3 -3l21 -27l17 -22q3 -4 2 -8.5t-4.5 -8t-8 -4.5t-8.5 2l-2 2q-8 8 -17 19l-20 24q-23 -29 -53 -40.5t-59.5 -7.5t-55.5 22t-39 50q-5 6 0 9.5t10 -1.5q13 -29 37 -45t51 -18.5t54 9t45 38.5l-33 44.5t-33.5 51
t-24 52t-3.5 48.5q6 25 23 39t38.5 16.5t44 -7t37.5 -31.5zM257 206q-1 15 -5 29.5t-11.5 27t-19 21t-26.5 10.5q-22 2 -35.5 -11t-15.5 -34q-2 -20 4 -40.5t17.5 -41.5t27 -42.5l32.5 -43.5q14 23 24 57t8 68zM193 354q1 -4 -1 -7t-5.5 -4t-7 1t-4.5 7q-2 13 6.5 13.5
t11.5 -10.5z" />
    <glyph glyph-name="Igrave" unicode="&#xcc;" horiz-adv-x="321" 
d="M258 268q13 -18 16.5 -43.5t0 -53t-13.5 -55.5t-25 -51l3 -3l21 -27l17 -22q3 -4 2 -8.5t-4.5 -8t-8 -4.5t-8.5 2l-2 2q-8 8 -17 19l-20 24q-23 -29 -53 -40.5t-59.5 -7.5t-55.5 22t-39 50q-5 6 0 9.5t10 -1.5q13 -29 37 -45t51 -18.5t54 9t45 38.5l-33 44.5t-33.5 51
t-24 52t-3.5 48.5q6 25 23 39t38.5 16.5t44 -7t37.5 -31.5zM257 206q-1 15 -5 29.5t-11.5 27t-19 21t-26.5 10.5q-22 2 -35.5 -11t-15.5 -34q-2 -20 4 -40.5t17.5 -41.5t27 -42.5l32.5 -43.5q14 23 24 57t8 68zM157 383q-1 6 6.5 11t11.5 1l27 -51q2 -5 -3 -9t-10 1z" />
    <glyph glyph-name="Imacron" unicode="&#x12a;" horiz-adv-x="321" 
d="M258 268q13 -18 16.5 -43.5t0 -53t-13.5 -55.5t-25 -51l3 -3l21 -27l17 -22q3 -4 2 -8.5t-4.5 -8t-8 -4.5t-8.5 2l-2 2q-8 8 -17 19l-20 24q-23 -29 -53 -40.5t-59.5 -7.5t-55.5 22t-39 50q-5 6 0 9.5t10 -1.5q13 -29 37 -45t51 -18.5t54 9t45 38.5l-33 44.5t-33.5 51
t-24 52t-3.5 48.5q6 25 23 39t38.5 16.5t44 -7t37.5 -31.5zM257 206q-1 15 -5 29.5t-11.5 27t-19 21t-26.5 10.5q-22 2 -35.5 -11t-15.5 -34q-2 -20 4 -40.5t17.5 -41.5t27 -42.5l32.5 -43.5q14 23 24 57t8 68zM153 353q-7 -1 -8 8t5 11q17 1 38.5 1h26.5q7 0 8 -6t-7 -7
q-18 -2 -32 -4t-31 -3z" />
    <glyph glyph-name="Iogonek" unicode="&#x12e;" horiz-adv-x="321" 
d="M258 268q13 -18 16.5 -43.5t0 -53t-13.5 -55.5t-25 -51l24 -30l17 -22q4 -5 1.5 -9.5t-6.5 -8.5q-10 -12 -16.5 -24t-1.5 -19q5 -6 16.5 -6.5t21.5 -0.5q8 -1 8 -8t-7 -9q-7 -1 -16 -0.5t-17.5 2t-15.5 5.5t-10 10q-5 11 3 26t18 26q-17 16 -36 42q-23 -29 -53 -40.5
t-59.5 -7.5t-55.5 22t-39 50q-5 6 0 9.5t10 -1.5q13 -29 37 -45t51 -18.5t54 9t45 38.5l-33 44.5t-33.5 51t-24 52t-3.5 48.5q6 25 23 39t38.5 16.5t44 -7t37.5 -31.5zM257 206q-1 15 -5 29.5t-11.5 27t-19 21t-26.5 10.5q-22 2 -35.5 -11t-15.5 -34q-2 -20 4 -40.5
t17.5 -41.5t27 -42.5l32.5 -43.5q14 23 24 57t8 68z" />
    <glyph glyph-name="Itilde" unicode="&#x128;" horiz-adv-x="321" 
d="M258 268q13 -18 16.5 -43.5t0 -53t-13.5 -55.5t-25 -51l3 -3l21 -27l17 -22q3 -4 2 -8.5t-4.5 -8t-8 -4.5t-8.5 2l-2 2q-8 8 -17 19l-20 24q-23 -29 -53 -40.5t-59.5 -7.5t-55.5 22t-39 50q-5 6 0 9.5t10 -1.5q13 -29 37 -45t51 -18.5t54 9t45 38.5l-33 44.5t-33.5 51
t-24 52t-3.5 48.5q6 25 23 39t38.5 16.5t44 -7t37.5 -31.5zM257 206q-1 15 -5 29.5t-11.5 27t-19 21t-26.5 10.5q-22 2 -35.5 -11t-15.5 -34q-2 -20 4 -40.5t17.5 -41.5t27 -42.5l32.5 -43.5q14 23 24 57t8 68zM163 348q-1 -6 -6.5 -5.5t-6.5 5.5q0 4 1.5 11t4 13.5t7 11.5
t10.5 4q10 -1 20 -9t15 -10t9 1t6 5q4 5 7.5 0.5t-0.5 -10.5q-2 -5 -8 -9t-14 -4q-4 0 -9 2t-9.5 5l-8.5 5.5t-7 1.5q-5 -1 -7 -6t-4 -12z" />
    <glyph glyph-name="Jcircumflex" unicode="&#x134;" horiz-adv-x="299" 
d="M6 104q4 19 27.5 30t55.5 15.5t65.5 5.5t56.5 1q-4 13 -7 25.5t-7 26.5q-6 27 -9.5 54t4.5 47q1 3 6 5t10.5 2t9.5 -2.5t3 -7.5q-3 -8 -3 -13q-5 -28 4.5 -63l19.5 -74q8 -1 8.5 -6t-4.5 -7q4 -19 8 -40t5.5 -41.5t-0.5 -38t-9 -29.5q-10 -16 -32.5 -19.5t-51 2.5
t-58.5 20t-53.5 31.5t-38 37.5t-10.5 38zM226 87q-2 14 -4.5 27.5t-6.5 27.5q-21 -1 -51.5 -2t-59.5 -5t-50.5 -11.5t-24.5 -21.5q-3 -18 15 -38t45 -37t58.5 -28t55.5 -11q6 1 10.5 3t8.5 7q9 14 8.5 38.5t-4.5 50.5zM191 343q-2 -6 -11.5 -6t-11.5 6q1 7 5.5 19.5t10.5 24
t13 19t12 4.5q5 0 11 -8t11.5 -18.5l10.5 -20.5t8 -15q3 -7 -5 -9.5t-13 2.5q-3 4 -6 13.5t-6.5 18.5t-7 16.5t-6.5 7.5q-3 -2 -5.5 -9.5t-4.5 -16t-3.5 -16.5t-1.5 -12z" />
    <glyph glyph-name="Kcommaaccent" unicode="&#x136;" horiz-adv-x="340" 
d="M82 288q1 -33 1.5 -65t2.5 -65l20 3q26 19 44 39.5t38 48.5q7 10 14.5 3.5t3.5 -12.5q-15 -20 -32 -39t-42 -39q27 0 59.5 -11t62 -30t51.5 -45.5t30 -58.5q2 -8 -4.5 -9.5t-8.5 6.5q-10 31 -32.5 55.5t-51.5 40.5t-62.5 23.5t-65.5 6.5q-10 -7 -22 -12l2 -57.5t1 -58.5
q0 -3 -4 -5t-9 -2.5t-10 0.5t-6 5v2q-1 26 -1.5 51.5t-2.5 51.5q-3 -2 -11 -5.5t-17 -5.5t-16.5 -1.5t-8.5 6.5q0 6 3 11q7 9 22 17t27 13q-2 35 -3 69l-2 69q1 5 5.5 7t10 1.5t10 -3t4.5 -5.5zM57 132q-5 -2 -14 -6t-9 -5t9 3.5t14 6.5v1zM170 -19q-4 4 -3.5 8t3.5 7t7.5 4
t8.5 -2q10 -6 13 -18.5t-8 -44.5q-2 -6 -8 -4t-4 7q4 12 2.5 22t-11.5 21z" />
    <glyph glyph-name="Lacute" unicode="&#x139;" horiz-adv-x="374" 
d="M41 169q-7 0 -7.5 9t6.5 10q30 2 58.5 4.5t58.5 7.5q-3 13 -6 34t-2 42.5t7 41t21 30.5q16 11 46 10t59.5 -11.5t51.5 -29t22 -42.5q-1 -19 -18.5 -33t-43 -24t-54 -17l-50.5 -12l8 -42.5t7 -42.5q48 -2 95 -6t95 -5q7 -1 6.5 -7.5t-7.5 -6.5q-48 2 -94 5.5t-94 6.5
q4 -30 3 -57q-3 -35 -25 -49.5t-57 -11.5q-21 1 -44 9.5t-41.5 21t-29 29.5t-6.5 37q3 10 11 17t19 11t22.5 6t20.5 3q23 2 45 1t50 -2q-1 6 -3 16.5t-3.5 21.5t-3.5 22t-3 17q-32 -5 -62 -8.5t-58 -5.5zM333 274q1 18 -13.5 32.5t-35 24t-43 12t-37.5 -4.5
q-17 -8 -21.5 -29.5t-2.5 -44.5q1 -14 2.5 -28.5t4.5 -30.5q18 4 42.5 10.5t47.5 15t39.5 19t16.5 24.5zM161 -6q10 8 14.5 20t5 25.5t-1 27.5t-3.5 26q-14 0 -36.5 1.5t-45.5 0t-41.5 -7.5t-23.5 -19q-6 -16 8.5 -34t37 -31t47 -17t39.5 8zM237 440q5 5 13.5 0t3.5 -11
l-41 -53q-5 -4 -9 -0.5t-2 9.5z" />
    <glyph glyph-name="Lcaron" unicode="&#x13d;" horiz-adv-x="374" 
d="M41 169q-7 0 -7.5 9t6.5 10q30 2 58.5 4.5t58.5 7.5q-3 13 -6 34t-2 42.5t7 41t21 30.5q16 11 46 10t59.5 -11.5t51.5 -29t22 -42.5q-1 -19 -18.5 -33t-43 -24t-54 -17l-50.5 -12l8 -42.5t7 -42.5q48 -2 95 -6t95 -5q7 -1 6.5 -7.5t-7.5 -6.5q-48 2 -94 5.5t-94 6.5
q4 -30 3 -57q-3 -35 -25 -49.5t-57 -11.5q-21 1 -44 9.5t-41.5 21t-29 29.5t-6.5 37q3 10 11 17t19 11t22.5 6t20.5 3q23 2 45 1t50 -2q-1 6 -3 16.5t-3.5 21.5t-3.5 22t-3 17q-32 -5 -62 -8.5t-58 -5.5zM333 274q1 18 -13.5 32.5t-35 24t-43 12t-37.5 -4.5
q-17 -8 -21.5 -29.5t-2.5 -44.5q1 -14 2.5 -28.5t4.5 -30.5q18 4 42.5 10.5t47.5 15t39.5 19t16.5 24.5zM161 -6q10 8 14.5 20t5 25.5t-1 27.5t-3.5 26q-14 0 -36.5 1.5t-45.5 0t-41.5 -7.5t-23.5 -19q-6 -16 8.5 -34t37 -31t47 -17t39.5 8zM190 430q-1 3 2 6.5t7 5.5t8 1.5
t5 -3.5l4.5 -16.5t5.5 -17.5t7 -14.5t10 -7.5q1 3 1.5 12.5t0.5 21t-0.5 22.5t-0.5 17q2 7 10 7t9 -7v-16t-1 -27.5t-3.5 -27t-7.5 -14.5q-11 -5 -20.5 0t-16.5 15t-12 22t-8 21z" />
    <glyph glyph-name="Lcommaaccent" unicode="&#x13b;" horiz-adv-x="374" 
d="M41 169q-7 0 -7.5 9t6.5 10q30 2 58.5 4.5t58.5 7.5q-3 13 -6 34t-2 42.5t7 41t21 30.5q16 11 46 10t59.5 -11.5t51.5 -29t22 -42.5q-1 -19 -18.5 -33t-43 -24t-54 -17l-50.5 -12l8 -42.5t7 -42.5q48 -2 95 -6t95 -5q7 -1 6.5 -7.5t-7.5 -6.5q-48 2 -94 5.5t-94 6.5
q4 -30 3 -57q-3 -35 -25 -49.5t-57 -11.5q-21 1 -44 9.5t-41.5 21t-29 29.5t-6.5 37q3 10 11 17t19 11t22.5 6t20.5 3q23 2 45 1t50 -2q-1 6 -3 16.5t-3.5 21.5t-3.5 22t-3 17q-32 -5 -62 -8.5t-58 -5.5zM333 274q1 18 -13.5 32.5t-35 24t-43 12t-37.5 -4.5
q-17 -8 -21.5 -29.5t-2.5 -44.5q1 -14 2.5 -28.5t4.5 -30.5q18 4 42.5 10.5t47.5 15t39.5 19t16.5 24.5zM161 -6q10 8 14.5 20t5 25.5t-1 27.5t-3.5 26q-14 0 -36.5 1.5t-45.5 0t-41.5 -7.5t-23.5 -19q-6 -16 8.5 -34t37 -31t47 -17t39.5 8zM239 12q-4 4 -3.5 8t3.5 7t7.5 4
t8.5 -2q10 -6 13 -18.5t-8 -44.5q-2 -6 -8 -4t-4 7q4 12 2.5 22t-11.5 21z" />
    <glyph glyph-name="Ldot" unicode="&#x13f;" horiz-adv-x="374" 
d="M41 169q-7 0 -7.5 9t6.5 10q30 2 58.5 4.5t58.5 7.5q-3 13 -6 34t-2 42.5t7 41t21 30.5q16 11 46 10t59.5 -11.5t51.5 -29t22 -42.5q-1 -19 -18.5 -33t-43 -24t-54 -17l-50.5 -12l8 -42.5t7 -42.5q48 -2 95 -6t95 -5q7 -1 6.5 -7.5t-7.5 -6.5q-48 2 -94 5.5t-94 6.5
q4 -30 3 -57q-3 -35 -25 -49.5t-57 -11.5q-21 1 -44 9.5t-41.5 21t-29 29.5t-6.5 37q3 10 11 17t19 11t22.5 6t20.5 3q23 2 45 1t50 -2q-1 6 -3 16.5t-3.5 21.5t-3.5 22t-3 17q-32 -5 -62 -8.5t-58 -5.5zM333 274q1 18 -13.5 32.5t-35 24t-43 12t-37.5 -4.5
q-17 -8 -21.5 -29.5t-2.5 -44.5q1 -14 2.5 -28.5t4.5 -30.5q18 4 42.5 10.5t47.5 15t39.5 19t16.5 24.5zM161 -6q10 8 14.5 20t5 25.5t-1 27.5t-3.5 26q-14 0 -36.5 1.5t-45.5 0t-41.5 -7.5t-23.5 -19q-6 -16 8.5 -34t37 -31t47 -17t39.5 8zM265 140q-2 -8 -10 -8t-10 8v2
q2 10 10.5 10t9.5 -10v-2z" />
    <glyph glyph-name="Lslash" unicode="&#x141;" horiz-adv-x="374" 
d="M41 169q-7 0 -7.5 9t6.5 10q30 2 58.5 4.5t58.5 7.5q-3 13 -6 34t-2 42.5t7 41t21 30.5q16 11 46 10t59.5 -11.5t51.5 -29t22 -42.5q-1 -19 -18.5 -33t-43 -24t-54 -17l-50.5 -12q2 -9 3.5 -18t3.5 -19l29 7q7 2 8.5 -4.5t-4.5 -8.5q-7 -2 -15 -4l-16 -4q2 -8 3 -16.5
t3 -17.5q48 -2 95 -6t95 -5q7 -1 6.5 -7.5t-7.5 -6.5q-48 2 -94 5.5t-94 6.5q4 -30 3 -57q-3 -35 -25 -49.5t-57 -11.5q-21 1 -44 9.5t-41.5 21t-29 29.5t-6.5 37q3 10 11 17t19 11t22.5 6t20.5 3q23 2 45 1t50 -2q-1 5 -2 11.5t-3 14.5l-31 -7q-3 -1 -5 2t-3 6.5t0.5 7
t4.5 3.5q8 1 16 1.5t16 2.5l-6 35q-32 -5 -62 -8.5t-58 -5.5zM333 274q1 18 -13.5 32.5t-35 24t-43 12t-37.5 -4.5q-17 -8 -21.5 -29.5t-2.5 -44.5q1 -14 2.5 -28.5t4.5 -30.5q18 4 42.5 10.5t47.5 15t39.5 19t16.5 24.5zM161 -6q10 8 14.5 20t5 25.5t-1 27.5t-3.5 26
q-14 0 -36.5 1.5t-45.5 0t-41.5 -7.5t-23.5 -19q-6 -16 8.5 -34t37 -31t47 -17t39.5 8z" />
    <glyph glyph-name="Oacute" unicode="&#xd3;" horiz-adv-x="287" 
d="M31 218q-6 22 -1.5 44.5t24.5 29.5q14 5 30.5 2t32.5 -10t30.5 -16.5t25.5 -18.5q14 -11 29.5 -25t28.5 -31t20.5 -36t6.5 -39q-2 -30 -19.5 -52t-42.5 -35.5t-54.5 -18t-54.5 2.5q-22 6 -39 24t-25.5 45.5t-7.5 61.5t16 72zM229 152q-25 -5 -50.5 -7.5t-49 0.5
t-44.5 11.5t-36 26.5q-4 -15 -5.5 -33t1 -35.5t9 -34t18.5 -29.5q19 -21 47 -24t53.5 7.5t44 32.5t19.5 51q0 19 -7 34zM138 257q-19 2 -42 -1.5t-38 -18.5q3 -30 19 -47t39.5 -24.5t51.5 -6.5t55 6q-14 26 -35 50.5t-50 41.5zM113 269l-17 7.5t-15 3.5t-13 -6t-9 -19
q11 8 25.5 11t28.5 3zM99 390q5 5 13.5 0t3.5 -11l-41 -53q-5 -4 -9 -0.5t-2 9.5z" />
    <glyph glyph-name="Obreve" unicode="&#x14e;" horiz-adv-x="287" 
d="M31 218q-6 22 -1.5 44.5t24.5 29.5q14 5 30.5 2t32.5 -10t30.5 -16.5t25.5 -18.5q14 -11 29.5 -25t28.5 -31t20.5 -36t6.5 -39q-2 -30 -19.5 -52t-42.5 -35.5t-54.5 -18t-54.5 2.5q-22 6 -39 24t-25.5 45.5t-7.5 61.5t16 72zM229 152q-25 -5 -50.5 -7.5t-49 0.5
t-44.5 11.5t-36 26.5q-4 -15 -5.5 -33t1 -35.5t9 -34t18.5 -29.5q19 -21 47 -24t53.5 7.5t44 32.5t19.5 51q0 19 -7 34zM138 257q-19 2 -42 -1.5t-38 -18.5q3 -30 19 -47t39.5 -24.5t51.5 -6.5t55 6q-14 26 -35 50.5t-50 41.5zM113 269l-17 7.5t-15 3.5t-13 -6t-9 -19
q11 8 25.5 11t28.5 3zM61 355q1 6 10 10t11 -3q8 -29 19 -28q7 1 11 9t7 22q2 6 10.5 5t9.5 -7q-2 -19 -12.5 -30.5t-23.5 -13t-25 7t-17 28.5z" />
    <glyph glyph-name="Ocircumflex" unicode="&#xd4;" horiz-adv-x="287" 
d="M31 218q-6 22 -1.5 44.5t24.5 29.5q14 5 30.5 2t32.5 -10t30.5 -16.5t25.5 -18.5q14 -11 29.5 -25t28.5 -31t20.5 -36t6.5 -39q-2 -30 -19.5 -52t-42.5 -35.5t-54.5 -18t-54.5 2.5q-22 6 -39 24t-25.5 45.5t-7.5 61.5t16 72zM229 152q-25 -5 -50.5 -7.5t-49 0.5
t-44.5 11.5t-36 26.5q-4 -15 -5.5 -33t1 -35.5t9 -34t18.5 -29.5q19 -21 47 -24t53.5 7.5t44 32.5t19.5 51q0 19 -7 34zM138 257q-19 2 -42 -1.5t-38 -18.5q3 -30 19 -47t39.5 -24.5t51.5 -6.5t55 6q-14 26 -35 50.5t-50 41.5zM113 269l-17 7.5t-15 3.5t-13 -6t-9 -19
q11 8 25.5 11t28.5 3zM92 323q-2 -6 -11.5 -6t-11.5 6q1 7 5.5 19.5t10.5 24t13 19t12 4.5q5 0 11 -8t11.5 -18.5l10.5 -20.5t8 -15q3 -7 -5 -9.5t-13 2.5q-3 4 -6 13.5t-6.5 18.5t-7 16.5t-6.5 7.5q-3 -2 -5.5 -9.5t-4.5 -16t-3.5 -16.5t-1.5 -12z" />
    <glyph glyph-name="Odieresis" unicode="&#xd6;" horiz-adv-x="287" 
d="M31 218q-6 22 -1.5 44.5t24.5 29.5q14 5 30.5 2t32.5 -10t30.5 -16.5t25.5 -18.5q14 -11 29.5 -25t28.5 -31t20.5 -36t6.5 -39q-2 -30 -19.5 -52t-42.5 -35.5t-54.5 -18t-54.5 2.5q-22 6 -39 24t-25.5 45.5t-7.5 61.5t16 72zM229 152q-25 -5 -50.5 -7.5t-49 0.5
t-44.5 11.5t-36 26.5q-4 -15 -5.5 -33t1 -35.5t9 -34t18.5 -29.5q19 -21 47 -24t53.5 7.5t44 32.5t19.5 51q0 19 -7 34zM138 257q-19 2 -42 -1.5t-38 -18.5q3 -30 19 -47t39.5 -24.5t51.5 -6.5t55 6q-14 26 -35 50.5t-50 41.5zM113 269l-17 7.5t-15 3.5t-13 -6t-9 -19
q11 8 25.5 11t28.5 3zM94 337q-2 -8 -9.5 -8t-10.5 8v3q2 10 10.5 10t9.5 -10v-3zM121 349q8 -1 9.5 -9t-8.5 -10q-9 -1 -9.5 8t8.5 11z" />
    <glyph glyph-name="Ograve" unicode="&#xd2;" horiz-adv-x="287" 
d="M31 218q-6 22 -1.5 44.5t24.5 29.5q14 5 30.5 2t32.5 -10t30.5 -16.5t25.5 -18.5q14 -11 29.5 -25t28.5 -31t20.5 -36t6.5 -39q-2 -30 -19.5 -52t-42.5 -35.5t-54.5 -18t-54.5 2.5q-22 6 -39 24t-25.5 45.5t-7.5 61.5t16 72zM229 152q-25 -5 -50.5 -7.5t-49 0.5
t-44.5 11.5t-36 26.5q-4 -15 -5.5 -33t1 -35.5t9 -34t18.5 -29.5q19 -21 47 -24t53.5 7.5t44 32.5t19.5 51q0 19 -7 34zM138 257q-19 2 -42 -1.5t-38 -18.5q3 -30 19 -47t39.5 -24.5t51.5 -6.5t55 6q-14 26 -35 50.5t-50 41.5zM113 269l-17 7.5t-15 3.5t-13 -6t-9 -19
q11 8 25.5 11t28.5 3zM87 357q-1 6 6.5 11t11.5 1l27 -51q2 -5 -3 -9t-10 1z" />
    <glyph glyph-name="Ohungarumlaut" unicode="&#x150;" horiz-adv-x="287" 
d="M31 218q-6 22 -1.5 44.5t24.5 29.5q14 5 30.5 2t32.5 -10t30.5 -16.5t25.5 -18.5q14 -11 29.5 -25t28.5 -31t20.5 -36t6.5 -39q-2 -30 -19.5 -52t-42.5 -35.5t-54.5 -18t-54.5 2.5q-22 6 -39 24t-25.5 45.5t-7.5 61.5t16 72zM229 152q-25 -5 -50.5 -7.5t-49 0.5
t-44.5 11.5t-36 26.5q-4 -15 -5.5 -33t1 -35.5t9 -34t18.5 -29.5q19 -21 47 -24t53.5 7.5t44 32.5t19.5 51q0 19 -7 34zM138 257q-19 2 -42 -1.5t-38 -18.5q3 -30 19 -47t39.5 -24.5t51.5 -6.5t55 6q-14 26 -35 50.5t-50 41.5zM113 269l-17 7.5t-15 3.5t-13 -6t-9 -19
q11 8 25.5 11t28.5 3zM147 403q5 7 13.5 4t6.5 -11l-32 -91q-4 -5 -9.5 -2.5t-3.5 9.5zM102 393q1 3 4.5 4.5t7.5 1t6.5 -2.5t1.5 -5l-21 -71q-4 -5 -9 -3.5t-4 8.5z" />
    <glyph glyph-name="Omacron" unicode="&#x14c;" horiz-adv-x="287" 
d="M31 218q-6 22 -1.5 44.5t24.5 29.5q14 5 30.5 2t32.5 -10t30.5 -16.5t25.5 -18.5q14 -11 29.5 -25t28.5 -31t20.5 -36t6.5 -39q-2 -30 -19.5 -52t-42.5 -35.5t-54.5 -18t-54.5 2.5q-22 6 -39 24t-25.5 45.5t-7.5 61.5t16 72zM229 152q-25 -5 -50.5 -7.5t-49 0.5
t-44.5 11.5t-36 26.5q-4 -15 -5.5 -33t1 -35.5t9 -34t18.5 -29.5q19 -21 47 -24t53.5 7.5t44 32.5t19.5 51q0 19 -7 34zM138 257q-19 2 -42 -1.5t-38 -18.5q3 -30 19 -47t39.5 -24.5t51.5 -6.5t55 6q-14 26 -35 50.5t-50 41.5zM113 269l-17 7.5t-15 3.5t-13 -6t-9 -19
q11 8 25.5 11t28.5 3zM82 324q-7 -1 -8 8t5 11q17 1 38.5 1h26.5q7 0 8 -6t-7 -7q-18 -2 -32 -4t-31 -3z" />
    <glyph glyph-name="Oslash" unicode="&#xd8;" horiz-adv-x="287" 
d="M31 218q-6 22 -1.5 44.5t24.5 29.5q23 8 49.5 -2.5t48.5 -25.5l7 28q1 4 5 5t8 0.5t7.5 -3t2.5 -5.5l-10 -39q0 -1 1 -1q14 -11 29.5 -25t28.5 -31t20.5 -36t6.5 -39q-2 -26 -16 -46.5t-35 -34.5t-46.5 -21t-49.5 -5l-5 -21q-3 -5 -10.5 -4.5t-7.5 7.5l5 20l-6 2
q-22 6 -39 24t-25.5 45.5t-7.5 61.5t16 72zM229 152q-44 -9 -84 -8l-29 -116q20 -4 41 1.5t38 17.5t28.5 30.5t12.5 40.5q0 19 -7 34zM72 51q10 -11 25 -18l27 112q-22 4 -41 12.5t-34 25.5q-4 -15 -5.5 -33t1 -35.5t9 -34t18.5 -29.5zM138 257q-19 2 -42 -1.5t-38 -18.5
q3 -34 22.5 -51.5t47.5 -23.5l21 88zM223 165q-10 19 -23.5 37t-31.5 33l-19 -76q18 -2 37 0t37 6zM113 269l-17 7.5t-15 3.5t-13 -6t-9 -19q11 8 25.5 11t28.5 3z" />
    <glyph glyph-name="Oslashacute" unicode="&#x1fe;" horiz-adv-x="287" 
d="M31 218q-6 22 -1.5 44.5t24.5 29.5q23 8 49.5 -2.5t48.5 -25.5l7 28q1 4 5 5t8 0.5t7.5 -3t2.5 -5.5l-10 -39q0 -1 1 -1q14 -11 29.5 -25t28.5 -31t20.5 -36t6.5 -39q-2 -26 -16 -46.5t-35 -34.5t-46.5 -21t-49.5 -5l-5 -21q-3 -5 -10.5 -4.5t-7.5 7.5l5 20l-6 2
q-22 6 -39 24t-25.5 45.5t-7.5 61.5t16 72zM229 152q-44 -9 -84 -8l-29 -116q20 -4 41 1.5t38 17.5t28.5 30.5t12.5 40.5q0 19 -7 34zM72 51q10 -11 25 -18l27 112q-22 4 -41 12.5t-34 25.5q-4 -15 -5.5 -33t1 -35.5t9 -34t18.5 -29.5zM138 257q-19 2 -42 -1.5t-38 -18.5
q3 -34 22.5 -51.5t47.5 -23.5l21 88zM223 165q-10 19 -23.5 37t-31.5 33l-19 -76q18 -2 37 0t37 6zM113 269l-17 7.5t-15 3.5t-13 -6t-9 -19q11 8 25.5 11t28.5 3zM134 378q5 5 13.5 0t3.5 -11l-41 -53q-5 -4 -9 -0.5t-2 9.5z" />
    <glyph glyph-name="Otilde" unicode="&#xd5;" horiz-adv-x="287" 
d="M31 218q-6 22 -1.5 44.5t24.5 29.5q14 5 30.5 2t32.5 -10t30.5 -16.5t25.5 -18.5q14 -11 29.5 -25t28.5 -31t20.5 -36t6.5 -39q-2 -30 -19.5 -52t-42.5 -35.5t-54.5 -18t-54.5 2.5q-22 6 -39 24t-25.5 45.5t-7.5 61.5t16 72zM229 152q-25 -5 -50.5 -7.5t-49 0.5
t-44.5 11.5t-36 26.5q-4 -15 -5.5 -33t1 -35.5t9 -34t18.5 -29.5q19 -21 47 -24t53.5 7.5t44 32.5t19.5 51q0 19 -7 34zM138 257q-19 2 -42 -1.5t-38 -18.5q3 -30 19 -47t39.5 -24.5t51.5 -6.5t55 6q-14 26 -35 50.5t-50 41.5zM113 269l-17 7.5t-15 3.5t-13 -6t-9 -19
q11 8 25.5 11t28.5 3zM74 321q-1 -6 -6.5 -5.5t-6.5 5.5q0 4 1.5 11t4 13.5t7 11.5t10.5 4q10 -1 20 -9t15 -10t9 1t6 5q4 5 7.5 0.5t-0.5 -10.5q-2 -5 -8 -9t-14 -4q-4 0 -9 2t-9.5 5l-8.5 5.5t-7 1.5q-5 -1 -7 -6t-4 -12z" />
    <glyph glyph-name="OE" unicode="&#x152;" horiz-adv-x="438" 
d="M380 278q6 -3 4 -8.5t-9 -3.5t-21 4q-14 -1 -29 -4t-28.5 -8.5t-25 -12t-18.5 -13.5q-16 -14 -17 -25.5t6.5 -20t21 -13.5t27.5 -7q9 2 21.5 4.5t25 4t24 1t18.5 -4.5q4 -4 3 -8.5t-6 -6.5q-16 -5 -33.5 -6t-34.5 0q-19 0 -43.5 -17.5t-39 -39.5t-10.5 -41t42 -23l14 -1
q45 1 93.5 13.5t91.5 26.5q7 1 8.5 -8t-5.5 -11q-22 -8 -49.5 -15.5t-57.5 -12.5t-59.5 -7t-55.5 2t-40 15q-26 -14 -55.5 -19t-55.5 3q-22 6 -39 24t-25.5 45.5t-7.5 61.5t16 72q-6 22 -1.5 44.5t24.5 29.5q14 5 30.5 2t32.5 -10t30.5 -16.5t25.5 -18.5q18 -13 37 -32
q7 17 23 30q12 10 31 18t40 13t41.5 5.5t34.5 -5.5zM230 149q-22 -3 -46.5 -5t-48.5 0.5t-46 11.5t-40 27q-4 -15 -5 -30t0 -29q1 -22 8.5 -40.5t19.5 -32t29.5 -20.5t40.5 -5q25 5 46 17q-10 20 4.5 47t40.5 48q-1 3 -1.5 5.5t-1.5 5.5zM138 257q-19 2 -42 -1.5t-38 -18.5
q3 -31 20 -48t41 -24t51.5 -6t52.5 6q-19 32 -38.5 54.5t-46.5 37.5zM113 269q-9 5 -17.5 8t-16.5 5q-16 -5 -20 -27q11 8 25.5 11t28.5 3zM254 151q2 1 3.5 2t3.5 2l-10 2z" />
    <glyph glyph-name="Racute" unicode="&#x154;" horiz-adv-x="318" 
d="M15 224q-5 -2 -8.5 2t1.5 9q29 17 66 26t69 8q19 -1 38.5 -5t35 -11.5t24.5 -19.5t7 -29q-2 -13 -13 -24.5t-26.5 -21t-32 -17t-28.5 -12.5q29 -7 54 -19t46.5 -25.5t40.5 -27l36 -25.5q5 -5 2.5 -10t-9.5 -2l-44.5 29.5t-49.5 28.5t-53.5 21.5t-55.5 10.5l-1 -111
q-1 -5 -5.5 -7.5t-10 -2.5t-10 2.5t-4.5 7.5v54t1 54q-5 -2 -16 -5.5t-22 -6t-20.5 -2.5t-11.5 6q-1 7 6.5 12.5t18.5 9t23.5 5l21.5 2.5l1 122q-39 -8 -71 -26zM217 204q1 18 -8.5 28.5t-25 16t-34 6.5t-33.5 0l-1 -125l29 12.5t32.5 17t27.5 20.5t13 24zM142 378
q5 5 13.5 0t3.5 -11l-41 -53q-5 -4 -9 -0.5t-2 9.5z" />
    <glyph glyph-name="Rcaron" unicode="&#x158;" horiz-adv-x="318" 
d="M15 224q-5 -2 -8.5 2t1.5 9q29 17 66 26t69 8q19 -1 38.5 -5t35 -11.5t24.5 -19.5t7 -29q-2 -13 -13 -24.5t-26.5 -21t-32 -17t-28.5 -12.5q29 -7 54 -19t46.5 -25.5t40.5 -27l36 -25.5q5 -5 2.5 -10t-9.5 -2l-44.5 29.5t-49.5 28.5t-53.5 21.5t-55.5 10.5l-1 -111
q-1 -5 -5.5 -7.5t-10 -2.5t-10 2.5t-4.5 7.5v54t1 54q-5 -2 -16 -5.5t-22 -6t-20.5 -2.5t-11.5 6q-1 7 6.5 12.5t18.5 9t23.5 5l21.5 2.5l1 122q-39 -8 -71 -26zM217 204q1 18 -8.5 28.5t-25 16t-34 6.5t-33.5 0l-1 -125l29 12.5t32.5 17t27.5 20.5t13 24zM94 358
q-1 3 2 6.5t7 5.5t8 1.5t5 -3.5l4.5 -16.5t5.5 -17.5t7 -14.5t10 -7.5q1 3 1.5 12.5t0.5 21t-0.5 22.5t-0.5 17q2 7 10 7t9 -7v-16t-1 -27.5t-3.5 -27t-7.5 -14.5q-11 -5 -20.5 0t-16.5 15t-12 22t-8 21z" />
    <glyph glyph-name="Rcommaaccent" unicode="&#x156;" horiz-adv-x="318" 
d="M15 224q-5 -2 -8.5 2t1.5 9q29 17 66 26t69 8q19 -1 38.5 -5t35 -11.5t24.5 -19.5t7 -29q-2 -13 -13 -24.5t-26.5 -21t-32 -17t-28.5 -12.5q29 -7 54 -19t46.5 -25.5t40.5 -27l36 -25.5q5 -5 2.5 -10t-9.5 -2l-44.5 29.5t-49.5 28.5t-53.5 21.5t-55.5 10.5l-1 -111
q-1 -5 -5.5 -7.5t-10 -2.5t-10 2.5t-4.5 7.5v54t1 54q-5 -2 -16 -5.5t-22 -6t-20.5 -2.5t-11.5 6q-1 7 6.5 12.5t18.5 9t23.5 5l21.5 2.5l1 122q-39 -8 -71 -26zM217 204q1 18 -8.5 28.5t-25 16t-34 6.5t-33.5 0l-1 -125l29 12.5t32.5 17t27.5 20.5t13 24zM185 -27
q-4 4 -3.5 8t3.5 7t7.5 4t8.5 -2q10 -6 13 -18.5t-8 -44.5q-2 -6 -8 -4t-4 7q4 12 2.5 22t-11.5 21z" />
    <glyph glyph-name="Sacute" unicode="&#x15a;" horiz-adv-x="313" 
d="M53 253q1 -9 11.5 -20.5t28 -25t40 -28.5l46.5 -31l18 9q7 4 10 -1.5t-2 -9.5l-13 -7q43 -28 75.5 -55.5t36.5 -49.5q2 -17 -16.5 -29.5t-48.5 -21t-66 -11.5t-69.5 -1t-59 9.5t-32.5 20.5q-11 19 1.5 38.5t35.5 36.5t50.5 31.5t47.5 23.5l-47 30.5t-41 31.5t-29 31.5
t-11 30.5q0 18 12 28.5t30 15.5t41 4.5t45 -4.5t41 -10t29 -13q5 -3 2 -8.5t-8 -3.5q-23 10 -51.5 16.5t-52.5 6.5t-40 -7.5t-14 -26.5zM26 10q4 -10 23.5 -14.5t46.5 -5t57.5 2.5t55.5 8.5t42 13.5t16 18q-2 17 -33 40t-73 49l-41 -21t-48 -28t-37.5 -31.5t-8.5 -31.5z
M138 404q5 5 13.5 0t3.5 -11l-41 -53q-5 -4 -9 -0.5t-2 9.5z" />
    <glyph glyph-name="Scaron" unicode="&#x160;" horiz-adv-x="313" 
d="M53 253q1 -9 11.5 -20.5t28 -25t40 -28.5l46.5 -31l18 9q7 4 10 -1.5t-2 -9.5l-13 -7q43 -28 75.5 -55.5t36.5 -49.5q2 -17 -16.5 -29.5t-48.5 -21t-66 -11.5t-69.5 -1t-59 9.5t-32.5 20.5q-11 19 1.5 38.5t35.5 36.5t50.5 31.5t47.5 23.5l-47 30.5t-41 31.5t-29 31.5
t-11 30.5q0 18 12 28.5t30 15.5t41 4.5t45 -4.5t41 -10t29 -13q5 -3 2 -8.5t-8 -3.5q-23 10 -51.5 16.5t-52.5 6.5t-40 -7.5t-14 -26.5zM26 10q4 -10 23.5 -14.5t46.5 -5t57.5 2.5t55.5 8.5t42 13.5t16 18q-2 17 -33 40t-73 49l-41 -21t-48 -28t-37.5 -31.5t-8.5 -31.5z
M70 393q-1 3 2 6.5t7 5.5t8 1.5t5 -3.5l4.5 -16.5t5.5 -17.5t7 -14.5t10 -7.5q1 3 1.5 12.5t0.5 21t-0.5 22.5t-0.5 17q2 7 10 7t9 -7v-16t-1 -27.5t-3.5 -27t-7.5 -14.5q-11 -5 -20.5 0t-16.5 15t-12 22t-8 21z" />
    <glyph glyph-name="Scedilla" unicode="&#x15e;" horiz-adv-x="313" 
d="M53 253q1 -9 11.5 -20.5t28 -25t40 -28.5l46.5 -31l18 9q7 4 10 -1.5t-2 -9.5l-13 -7q43 -28 75.5 -55.5t36.5 -49.5q2 -13 -9 -23.5t-30 -18.5t-44 -13t-52 -7q-1 -11 -0.5 -19t2.5 -9q5 -4 13 -5.5t15.5 -3.5t13 -5.5t6.5 -12.5q1 -8 -4.5 -14t-14 -11.5t-18 -9
t-17.5 -4.5q-5 0 -6.5 3t-0.5 6.5t3.5 5.5t6.5 -1q10 2 21 9t8 14q-1 4 -6 6t-12 3.5l-13.5 3t-10.5 3.5q-7 3 -8 14.5t0 25.5q-47 -2 -86 5.5t-49 24.5q-11 19 1.5 38.5t35.5 36.5t50.5 31.5t47.5 23.5l-47 30.5t-41 31.5t-29 31.5t-11 30.5q0 18 12 28.5t30 15.5t41 4.5
t45 -4.5t41 -10t29 -13q5 -3 2 -8.5t-8 -3.5q-23 10 -51.5 16.5t-52.5 6.5t-40 -7.5t-14 -26.5zM26 10q4 -10 23.5 -14.5t46.5 -5t57.5 2.5t55.5 8.5t42 13.5t16 18q-2 17 -33 40t-73 49l-41 -21t-48 -28t-37.5 -31.5t-8.5 -31.5z" />
    <glyph glyph-name="Scircumflex" unicode="&#x15c;" horiz-adv-x="313" 
d="M53 253q1 -9 11.5 -20.5t28 -25t40 -28.5l46.5 -31l18 9q7 4 10 -1.5t-2 -9.5l-13 -7q43 -28 75.5 -55.5t36.5 -49.5q2 -17 -16.5 -29.5t-48.5 -21t-66 -11.5t-69.5 -1t-59 9.5t-32.5 20.5q-11 19 1.5 38.5t35.5 36.5t50.5 31.5t47.5 23.5l-47 30.5t-41 31.5t-29 31.5
t-11 30.5q0 18 12 28.5t30 15.5t41 4.5t45 -4.5t41 -10t29 -13q5 -3 2 -8.5t-8 -3.5q-23 10 -51.5 16.5t-52.5 6.5t-40 -7.5t-14 -26.5zM26 10q4 -10 23.5 -14.5t46.5 -5t57.5 2.5t55.5 8.5t42 13.5t16 18q-2 17 -33 40t-73 49l-41 -21t-48 -28t-37.5 -31.5t-8.5 -31.5z
M116 348q-2 -6 -11.5 -6t-11.5 6q1 7 5.5 19.5t10.5 24t13 19t12 4.5q5 0 11 -8t11.5 -18.5l10.5 -20.5t8 -15q3 -7 -5 -9.5t-13 2.5q-3 4 -6 13.5t-6.5 18.5t-7 16.5t-6.5 7.5q-3 -2 -5.5 -9.5t-4.5 -16t-3.5 -16.5t-1.5 -12z" />
    <glyph glyph-name="Scommaaccent" unicode="&#x218;" horiz-adv-x="313" 
d="M53 253q1 -9 11.5 -20.5t28 -25t40 -28.5l46.5 -31l18 9q7 4 10 -1.5t-2 -9.5l-13 -7q43 -28 75.5 -55.5t36.5 -49.5q2 -17 -16.5 -29.5t-48.5 -21t-66 -11.5t-69.5 -1t-59 9.5t-32.5 20.5q-11 19 1.5 38.5t35.5 36.5t50.5 31.5t47.5 23.5l-47 30.5t-41 31.5t-29 31.5
t-11 30.5q0 18 12 28.5t30 15.5t41 4.5t45 -4.5t41 -10t29 -13q5 -3 2 -8.5t-8 -3.5q-23 10 -51.5 16.5t-52.5 6.5t-40 -7.5t-14 -26.5zM26 10q4 -10 23.5 -14.5t46.5 -5t57.5 2.5t55.5 8.5t42 13.5t16 18q-2 17 -33 40t-73 49l-41 -21t-48 -28t-37.5 -31.5t-8.5 -31.5z
M138 -72q-4 4 -3.5 8t3.5 7t7.5 4t8.5 -2q10 -6 13 -18.5t-8 -44.5q-2 -6 -8 -4t-4 7q4 12 2.5 22t-11.5 21z" />
    <glyph glyph-name="Tbar" unicode="&#x166;" horiz-adv-x="351" 
d="M10 279q40 9 84 14t87.5 7.5t84 3t74.5 0.5q7 0 7 -5.5t-6 -7.5q-39 -2 -73 -4.5l-78 -5.5q-1 -11 -1.5 -21.5t-2.5 -21.5q29 2 54.5 3.5t45.5 2.5q7 1 8.5 -4.5t-5.5 -8.5q-26 -5 -52 -7.5t-52 -4.5q-2 -63 0 -120.5t5 -98.5q1 -7 -6.5 -8t-11.5 4q-8 47 -12 102t-5 118
l-48.5 -6t-48.5 -8q-7 0 -7.5 8t4.5 11q23 5 48.5 8l51.5 6v42l-73 -8t-68 -14q-9 -1 -10 10t6 14z" />
    <glyph glyph-name="Tcaron" unicode="&#x164;" horiz-adv-x="351" 
d="M10 279q40 9 84 14t87.5 7.5t84 3t74.5 0.5q7 0 7 -5.5t-6 -7.5q-39 -2 -73 -4.5l-78 -5.5q-4 -39 -5 -78t-0.5 -75.5t2 -69.5t3.5 -58q1 -7 -6.5 -8t-11.5 4q-9 57 -13.5 128t-3.5 153l-73 -8t-68 -14q-9 -1 -10 10t6 14zM124 405q-1 3 2 6.5t7 5.5t8 1.5t5 -3.5
l4.5 -16.5t5.5 -17.5t7 -14.5t10 -7.5q1 3 1.5 12.5t0.5 21t-0.5 22.5t-0.5 17q2 7 10 7t9 -7v-16t-1 -27.5t-3.5 -27t-7.5 -14.5q-11 -5 -20.5 0t-16.5 15t-12 22t-8 21z" />
    <glyph glyph-name="Tcommaaccent" unicode="&#x162;" horiz-adv-x="351" 
d="M10 279q40 9 84 14t87.5 7.5t84 3t74.5 0.5q7 0 7 -5.5t-6 -7.5q-39 -2 -73 -4.5l-78 -5.5q-4 -39 -5 -78t-0.5 -75.5t2 -69.5t3.5 -58q1 -7 -6.5 -8t-11.5 4q-9 57 -13.5 128t-3.5 153l-73 -8t-68 -14q-9 -1 -10 10t6 14zM172 -64q-4 4 -3.5 8t3.5 7t7.5 4t8.5 -2
q10 -6 13 -18.5t-8 -44.5q-2 -6 -8 -4t-4 7q4 12 2.5 22t-11.5 21z" />
    <glyph glyph-name="Uacute" unicode="&#xda;" horiz-adv-x="333" 
d="M5 181q-5 33 6 54.5t28 26.5q20 5 42.5 -9.5t28.5 -53.5q4 -28 5.5 -58t6.5 -59q3 -11 6 -23.5t7 -23t9.5 -17.5t13.5 -7q7 0 15.5 8.5t15.5 19.5t12.5 22l8.5 17q24 52 36 108.5t14 113.5q0 2 1 3q1 3 6 4t10 0t9 -3t4 -4q0 -18 -0.5 -52t0 -74.5t3.5 -80.5t12 -70
q5 -15 14 -28t24 -20q5 -3 2.5 -8t-7.5 -5q-28 6 -43.5 30.5t-20.5 50.5q-7 32 -9 65l-4 66q-6 -23 -16 -52.5t-23 -56.5t-29.5 -46.5t-37.5 -21.5q-13 -1 -23 4.5t-17 16t-12 24t-8 28.5q-17 2 -32 12t-27 25.5t-20 34.5t-11 39zM80 196q-3 27 -13.5 38.5t-21 9t-18 -18
t-4.5 -41.5q1 -16 7 -32.5t15 -30.5t21 -24t26 -13q-5 26 -7 55t-5 57zM174 342q5 5 13.5 0t3.5 -11l-41 -53q-5 -4 -9 -0.5t-2 9.5z" />
    <glyph glyph-name="Ubreve" unicode="&#x16c;" horiz-adv-x="333" 
d="M5 181q-5 33 6 54.5t28 26.5q20 5 42.5 -9.5t28.5 -53.5q4 -28 5.5 -58t6.5 -59q3 -11 6 -23.5t7 -23t9.5 -17.5t13.5 -7q7 0 15.5 8.5t15.5 19.5t12.5 22l8.5 17q24 52 36 108.5t14 113.5q0 2 1 3q1 3 6 4t10 0t9 -3t4 -4q0 -18 -0.5 -52t0 -74.5t3.5 -80.5t12 -70
q5 -15 14 -28t24 -20q5 -3 2.5 -8t-7.5 -5q-28 6 -43.5 30.5t-20.5 50.5q-7 32 -9 65l-4 66q-6 -23 -16 -52.5t-23 -56.5t-29.5 -46.5t-37.5 -21.5q-13 -1 -23 4.5t-17 16t-12 24t-8 28.5q-17 2 -32 12t-27 25.5t-20 34.5t-11 39zM80 196q-3 27 -13.5 38.5t-21 9t-18 -18
t-4.5 -41.5q1 -16 7 -32.5t15 -30.5t21 -24t26 -13q-5 26 -7 55t-5 57zM119 345q1 6 10 10t11 -3q8 -29 19 -28q7 1 11 9t7 22q2 6 10.5 5t9.5 -7q-2 -19 -12.5 -30.5t-23.5 -13t-25 7t-17 28.5z" />
    <glyph glyph-name="Ucircumflex" unicode="&#xdb;" horiz-adv-x="333" 
d="M5 181q-5 33 6 54.5t28 26.5q20 5 42.5 -9.5t28.5 -53.5q4 -28 5.5 -58t6.5 -59q3 -11 6 -23.5t7 -23t9.5 -17.5t13.5 -7q7 0 15.5 8.5t15.5 19.5t12.5 22l8.5 17q24 52 36 108.5t14 113.5q0 2 1 3q1 3 6 4t10 0t9 -3t4 -4q0 -18 -0.5 -52t0 -74.5t3.5 -80.5t12 -70
q5 -15 14 -28t24 -20q5 -3 2.5 -8t-7.5 -5q-28 6 -43.5 30.5t-20.5 50.5q-7 32 -9 65l-4 66q-6 -23 -16 -52.5t-23 -56.5t-29.5 -46.5t-37.5 -21.5q-13 -1 -23 4.5t-17 16t-12 24t-8 28.5q-17 2 -32 12t-27 25.5t-20 34.5t-11 39zM80 196q-3 27 -13.5 38.5t-21 9t-18 -18
t-4.5 -41.5q1 -16 7 -32.5t15 -30.5t21 -24t26 -13q-5 26 -7 55t-5 57zM146 315q-2 -6 -11.5 -6t-11.5 6q1 7 5.5 19.5t10.5 24t13 19t12 4.5q5 0 11 -8t11.5 -18.5l10.5 -20.5t8 -15q3 -7 -5 -9.5t-13 2.5q-3 4 -6 13.5t-6.5 18.5t-7 16.5t-6.5 7.5q-3 -2 -5.5 -9.5
t-4.5 -16t-3.5 -16.5t-1.5 -12z" />
    <glyph glyph-name="Udieresis" unicode="&#xdc;" horiz-adv-x="333" 
d="M156 330q0 -8 -8 -9t-12 7v3q1 10 9.5 11t10.5 -9v-3zM182 345q8 0 10 -7.5t-7 -10.5q-8 -2 -10 7t7 11zM5 181q-5 33 6 54.5t28 26.5q20 5 42.5 -9.5t28.5 -53.5q4 -28 5.5 -58t6.5 -59q3 -11 6 -23.5t7 -23t9.5 -17.5t13.5 -7q7 0 15.5 8.5t15.5 19.5t12.5 22l8.5 17
q24 52 36 108.5t14 113.5q0 2 1 3q1 3 6 4t10 0t9 -3t4 -4q0 -18 -0.5 -52t0 -74.5t3.5 -80.5t12 -70q5 -15 14 -28t24 -20q5 -3 2.5 -8t-7.5 -5q-28 6 -43.5 30.5t-20.5 50.5q-7 32 -9 65l-4 66q-6 -23 -16 -52.5t-23 -56.5t-29.5 -46.5t-37.5 -21.5q-13 -1 -23 4.5t-17 16
t-12 24t-8 28.5q-17 2 -32 12t-27 25.5t-20 34.5t-11 39zM80 196q-3 27 -13.5 38.5t-21 9t-18 -18t-4.5 -41.5q1 -16 7 -32.5t15 -30.5t21 -24t26 -13q-5 26 -7 55t-5 57z" />
    <glyph glyph-name="Ugrave" unicode="&#xd9;" horiz-adv-x="333" 
d="M5 181q-5 33 6 54.5t28 26.5q20 5 42.5 -9.5t28.5 -53.5q4 -28 5.5 -58t6.5 -59q3 -11 6 -23.5t7 -23t9.5 -17.5t13.5 -7q7 0 15.5 8.5t15.5 19.5t12.5 22l8.5 17q24 52 36 108.5t14 113.5q0 2 1 3q1 3 6 4t10 0t9 -3t4 -4q0 -18 -0.5 -52t0 -74.5t3.5 -80.5t12 -70
q5 -15 14 -28t24 -20q5 -3 2.5 -8t-7.5 -5q-28 6 -43.5 30.5t-20.5 50.5q-7 32 -9 65l-4 66q-6 -23 -16 -52.5t-23 -56.5t-29.5 -46.5t-37.5 -21.5q-13 -1 -23 4.5t-17 16t-12 24t-8 28.5q-17 2 -32 12t-27 25.5t-20 34.5t-11 39zM80 196q-3 27 -13.5 38.5t-21 9t-18 -18
t-4.5 -41.5q1 -16 7 -32.5t15 -30.5t21 -24t26 -13q-5 26 -7 55t-5 57zM136 353q-1 6 6.5 11t11.5 1l27 -51q2 -5 -3 -9t-10 1z" />
    <glyph glyph-name="Uhungarumlaut" unicode="&#x170;" horiz-adv-x="333" 
d="M5 181q-5 33 6 54.5t28 26.5q20 5 42.5 -9.5t28.5 -53.5q4 -28 5.5 -58t6.5 -59q3 -11 6 -23.5t7 -23t9.5 -17.5t13.5 -7q7 0 15.5 8.5t15.5 19.5t12.5 22l8.5 17q24 52 36 108.5t14 113.5q0 2 1 3q1 3 6 4t10 0t9 -3t4 -4q0 -18 -0.5 -52t0 -74.5t3.5 -80.5t12 -70
q5 -15 14 -28t24 -20q5 -3 2.5 -8t-7.5 -5q-28 6 -43.5 30.5t-20.5 50.5q-7 32 -9 65l-4 66q-6 -23 -16 -52.5t-23 -56.5t-29.5 -46.5t-37.5 -21.5q-13 -1 -23 4.5t-17 16t-12 24t-8 28.5q-17 2 -32 12t-27 25.5t-20 34.5t-11 39zM80 196q-3 27 -13.5 38.5t-21 9t-18 -18
t-4.5 -41.5q1 -16 7 -32.5t15 -30.5t21 -24t26 -13q-5 26 -7 55t-5 57zM195 393q5 7 13.5 4t6.5 -11l-32 -91q-4 -5 -9.5 -2.5t-3.5 9.5zM150 383q1 3 4.5 4.5t7.5 1t6.5 -2.5t1.5 -5l-21 -71q-4 -5 -9 -3.5t-4 8.5z" />
    <glyph glyph-name="Umacron" unicode="&#x16a;" horiz-adv-x="333" 
d="M5 181q-5 33 6 54.5t28 26.5q20 5 42.5 -9.5t28.5 -53.5q4 -28 5.5 -58t6.5 -59q3 -11 6 -23.5t7 -23t9.5 -17.5t13.5 -7q7 0 15.5 8.5t15.5 19.5t12.5 22l8.5 17q24 52 36 108.5t14 113.5q0 2 1 3q1 3 6 4t10 0t9 -3t4 -4q0 -18 -0.5 -52t0 -74.5t3.5 -80.5t12 -70
q5 -15 14 -28t24 -20q5 -3 2.5 -8t-7.5 -5q-28 6 -43.5 30.5t-20.5 50.5q-7 32 -9 65l-4 66q-6 -23 -16 -52.5t-23 -56.5t-29.5 -46.5t-37.5 -21.5q-13 -1 -23 4.5t-17 16t-12 24t-8 28.5q-17 2 -32 12t-27 25.5t-20 34.5t-11 39zM80 196q-3 27 -13.5 38.5t-21 9t-18 -18
t-4.5 -41.5q1 -16 7 -32.5t15 -30.5t21 -24t26 -13q-5 26 -7 55t-5 57zM137 327q-7 -1 -8 8t5 11q17 1 38.5 1h26.5q7 0 8 -6t-7 -7q-18 -2 -32 -4t-31 -3z" />
    <glyph glyph-name="Uogonek" unicode="&#x172;" horiz-adv-x="333" 
d="M5 181q-5 33 6 54.5t28 26.5q20 5 42.5 -9.5t28.5 -53.5q4 -28 5.5 -58t6.5 -59q3 -11 6 -23.5t7 -23t9.5 -17.5t13.5 -7q7 0 15.5 8.5t15.5 19.5t12.5 22l8.5 17q24 52 35.5 108.5t14.5 113.5q0 5 5 6.5t10.5 0.5t10 -3t4.5 -4q0 -18 -0.5 -52t0 -74.5t3.5 -80.5t12 -70
q5 -15 14 -28t24 -20q4 -2 3 -6t-3 -7q-11 -11 -18 -24t-2 -19q5 -7 16.5 -7.5t21.5 -0.5q8 0 8 -7t-7 -9q-7 -1 -16 -1t-17.5 1.5t-15.5 5.5t-10 10q-5 13 4 28.5t20 26.5q-23 9 -36 31.5t-17 45.5q-7 32 -9 65l-4 66q-6 -23 -16 -52.5t-23 -56.5t-29.5 -46.5t-37.5 -21.5
q-13 -1 -23 4.5t-17 16t-12 24t-8 28.5q-17 2 -32 12t-27 25.5t-20 34.5t-11 39zM80 196q-3 27 -13.5 38.5t-21 9t-18 -18t-4.5 -41.5q1 -16 7 -32.5t15 -30.5t21 -24t26 -13q-5 26 -7 55t-5 57z" />
    <glyph glyph-name="Uring" unicode="&#x16e;" horiz-adv-x="333" 
d="M5 181q-5 33 6 54.5t28 26.5q20 5 42.5 -9.5t28.5 -53.5q4 -28 5.5 -58t6.5 -59q3 -11 6 -23.5t7 -23t9.5 -17.5t13.5 -7q7 0 15.5 8.5t15.5 19.5t12.5 22l8.5 17q24 52 36 108.5t14 113.5q0 2 1 3q1 3 6 4t10 0t9 -3t4 -4q0 -18 -0.5 -52t0 -74.5t3.5 -80.5t12 -70
q5 -15 14 -28t24 -20q5 -3 2.5 -8t-7.5 -5q-28 6 -43.5 30.5t-20.5 50.5q-7 32 -9 65l-4 66q-6 -23 -16 -52.5t-23 -56.5t-29.5 -46.5t-37.5 -21.5q-13 -1 -23 4.5t-17 16t-12 24t-8 28.5q-17 2 -32 12t-27 25.5t-20 34.5t-11 39zM80 196q-3 27 -13.5 38.5t-21 9t-18 -18
t-4.5 -41.5q1 -16 7 -32.5t15 -30.5t21 -24t26 -13q-5 26 -7 55t-5 57zM154 309q-8 1 -11 6t-2 11.5t5 13t10 9.5q0 3 6 5q13 -1 19 -5.5t8 -9.5q1 -6 -2 -11.5t-8.5 -10t-12 -7t-12.5 -1.5zM174 334q-1 2 -6 4h-1q-2 0 -4 -2t-3 -4.5t-0.5 -4.5t4.5 -1q2 2 5 4t5 4z" />
    <glyph glyph-name="Utilde" unicode="&#x168;" horiz-adv-x="333" 
d="M5 181q-5 33 6 54.5t28 26.5q20 5 42.5 -9.5t28.5 -53.5q4 -28 5.5 -58t6.5 -59q3 -11 6 -23.5t7 -23t9.5 -17.5t13.5 -7q7 0 15.5 8.5t15.5 19.5t12.5 22l8.5 17q24 52 36 108.5t14 113.5q0 2 1 3q1 3 6 4t10 0t9 -3t4 -4q0 -18 -0.5 -52t0 -74.5t3.5 -80.5t12 -70
q5 -15 14 -28t24 -20q5 -3 2.5 -8t-7.5 -5q-28 6 -43.5 30.5t-20.5 50.5q-7 32 -9 65l-4 66q-6 -23 -16 -52.5t-23 -56.5t-29.5 -46.5t-37.5 -21.5q-13 -1 -23 4.5t-17 16t-12 24t-8 28.5q-17 2 -32 12t-27 25.5t-20 34.5t-11 39zM80 196q-3 27 -13.5 38.5t-21 9t-18 -18
t-4.5 -41.5q1 -16 7 -32.5t15 -30.5t21 -24t26 -13q-5 26 -7 55t-5 57zM140 315q-1 -6 -6.5 -5.5t-6.5 5.5q0 4 1.5 11t4 13.5t7 11.5t10.5 4q10 -1 20 -9t15 -10t9 1t6 5q4 5 7.5 0.5t-0.5 -10.5q-2 -5 -8 -9t-14 -4q-4 0 -9 2t-9.5 5l-8.5 5.5t-7 1.5q-5 -1 -7 -6t-4 -12z
" />
    <glyph glyph-name="Wacute" unicode="&#x1e82;" horiz-adv-x="437" 
d="M192 57l11.5 67.5t16.5 74.5q3 10 6.5 24.5t9.5 28.5t14.5 24t21.5 10q10 0 17 -7t12 -17.5t8.5 -22t5.5 -21.5l11 -46l12 -49.5t12.5 -46.5t14.5 -35q1 -3 4 -6.5t6 -5t5.5 0t4.5 9.5q4 22 1.5 57t0 73.5t15 76t47.5 65.5q6 5 11 0.5t0 -9.5q-29 -27 -38 -60.5t-10 -69
t1 -71t-5 -66.5q-5 -20 -14 -26.5t-20 -4t-22 13t-18 25.5q-12 24 -20.5 55.5t-15.5 62l-13.5 56.5t-13.5 41q-3 6 -7.5 6t-7.5 -6q-9 -21 -17 -54t-15 -67.5t-12.5 -67t-11.5 -51.5q-2 -6 -6.5 -10.5t-10.5 -6t-12.5 1.5t-11.5 13q-10 20 -18 49t-17 71q-46 7 -77.5 31
t-39.5 75q-3 18 2 34t15.5 26.5t26 14.5t34.5 -2q16 -5 26 -17.5t16 -29t9.5 -34.5l6.5 -33q2 -14 4.5 -28t5.5 -28h11q8 -1 7 -7.5t-8 -6.5l-7 1l4.5 -26t11.5 -48q2 -6 4.5 -12t5 -8t5.5 2t5 17zM21 235q5 -22 15.5 -37t24 -24.5t29.5 -15t32 -8.5q-2 12 -5 35.5
t-8.5 47.5t-14.5 43.5t-23 24.5q-14 4 -24.5 0.5t-17.5 -13t-9 -23.5t1 -30zM257 391q5 5 13.5 0t3.5 -11l-41 -53q-5 -4 -9 -0.5t-2 9.5z" />
    <glyph glyph-name="Wcircumflex" unicode="&#x174;" horiz-adv-x="437" 
d="M192 57l11.5 67.5t16.5 74.5q3 10 6.5 24.5t9.5 28.5t14.5 24t21.5 10q10 0 17 -7t12 -17.5t8.5 -22t5.5 -21.5l11 -46l12 -49.5t12.5 -46.5t14.5 -35q1 -3 4 -6.5t6 -5t5.5 0t4.5 9.5q4 22 1.5 57t0 73.5t15 76t47.5 65.5q6 5 11 0.5t0 -9.5q-29 -27 -38 -60.5t-10 -69
t1 -71t-5 -66.5q-5 -20 -14 -26.5t-20 -4t-22 13t-18 25.5q-12 24 -20.5 55.5t-15.5 62l-13.5 56.5t-13.5 41q-3 6 -7.5 6t-7.5 -6q-9 -21 -17 -54t-15 -67.5t-12.5 -67t-11.5 -51.5q-2 -6 -6.5 -10.5t-10.5 -6t-12.5 1.5t-11.5 13q-10 20 -18 49t-17 71q-46 7 -77.5 31
t-39.5 75q-3 18 2 34t15.5 26.5t26 14.5t34.5 -2q16 -5 26 -17.5t16 -29t9.5 -34.5l6.5 -33q2 -14 4.5 -28t5.5 -28h11q8 -1 7 -7.5t-8 -6.5l-7 1l4.5 -26t11.5 -48q2 -6 4.5 -12t5 -8t5.5 2t5 17zM21 235q5 -22 15.5 -37t24 -24.5t29.5 -15t32 -8.5q-2 12 -5 35.5
t-8.5 47.5t-14.5 43.5t-23 24.5q-14 4 -24.5 0.5t-17.5 -13t-9 -23.5t1 -30zM248 334q-2 -6 -11.5 -6t-11.5 6q1 7 5.5 19.5t10.5 24t13 19t12 4.5q5 0 11 -8t11.5 -18.5l10.5 -20.5t8 -15q3 -7 -5 -9.5t-13 2.5q-3 4 -6 13.5t-6.5 18.5t-7 16.5t-6.5 7.5q-3 -2 -5.5 -9.5
t-4.5 -16t-3.5 -16.5t-1.5 -12z" />
    <glyph glyph-name="Wdieresis" unicode="&#x1e84;" horiz-adv-x="437" 
d="M192 57l11.5 67.5t16.5 74.5q3 10 6.5 24.5t9.5 28.5t14.5 24t21.5 10q10 0 17 -7t12 -17.5t8.5 -22t5.5 -21.5l11 -46l12 -49.5t12.5 -46.5t14.5 -35q1 -3 4 -6.5t6 -5t5.5 0t4.5 9.5q4 22 1.5 57t0 73.5t15 76t47.5 65.5q6 5 11 0.5t0 -9.5q-29 -27 -38 -60.5t-10 -69
t1 -71t-5 -66.5q-5 -20 -14 -26.5t-20 -4t-22 13t-18 25.5q-12 24 -20.5 55.5t-15.5 62l-13.5 56.5t-13.5 41q-3 6 -7.5 6t-7.5 -6q-9 -21 -17 -54t-15 -67.5t-12.5 -67t-11.5 -51.5q-2 -6 -6.5 -10.5t-10.5 -6t-12.5 1.5t-11.5 13q-10 20 -18 49t-17 71q-46 7 -77.5 31
t-39.5 75q-3 18 2 34t15.5 26.5t26 14.5t34.5 -2q16 -5 26 -17.5t16 -29t9.5 -34.5l6.5 -33q2 -14 4.5 -28t5.5 -28h11q8 -1 7 -7.5t-8 -6.5l-7 1l4.5 -26t11.5 -48q2 -6 4.5 -12t5 -8t5.5 2t5 17zM21 235q5 -22 15.5 -37t24 -24.5t29.5 -15t32 -8.5q-2 12 -5 35.5
t-8.5 47.5t-14.5 43.5t-23 24.5q-14 4 -24.5 0.5t-17.5 -13t-9 -23.5t1 -30zM256 355q-2 -8 -9.5 -8t-10.5 8v3q2 10 10.5 10t9.5 -10v-3zM283 367q8 -1 9.5 -9t-8.5 -10q-9 -1 -9.5 8t8.5 11z" />
    <glyph glyph-name="Wgrave" unicode="&#x1e80;" horiz-adv-x="437" 
d="M192 57l11.5 67.5t16.5 74.5q3 10 6.5 24.5t9.5 28.5t14.5 24t21.5 10q10 0 17 -7t12 -17.5t8.5 -22t5.5 -21.5l11 -46l12 -49.5t12.5 -46.5t14.5 -35q1 -3 4 -6.5t6 -5t5.5 0t4.5 9.5q4 22 1.5 57t0 73.5t15 76t47.5 65.5q6 5 11 0.5t0 -9.5q-29 -27 -38 -60.5t-10 -69
t1 -71t-5 -66.5q-5 -20 -14 -26.5t-20 -4t-22 13t-18 25.5q-12 24 -20.5 55.5t-15.5 62l-13.5 56.5t-13.5 41q-3 6 -7.5 6t-7.5 -6q-9 -21 -17 -54t-15 -67.5t-12.5 -67t-11.5 -51.5q-2 -6 -6.5 -10.5t-10.5 -6t-12.5 1.5t-11.5 13q-10 20 -18 49t-17 71q-46 7 -77.5 31
t-39.5 75q-3 18 2 34t15.5 26.5t26 14.5t34.5 -2q16 -5 26 -17.5t16 -29t9.5 -34.5l6.5 -33q2 -14 4.5 -28t5.5 -28h11q8 -1 7 -7.5t-8 -6.5l-7 1l4.5 -26t11.5 -48q2 -6 4.5 -12t5 -8t5.5 2t5 17zM21 235q5 -22 15.5 -37t24 -24.5t29.5 -15t32 -8.5q-2 12 -5 35.5
t-8.5 47.5t-14.5 43.5t-23 24.5q-14 4 -24.5 0.5t-17.5 -13t-9 -23.5t1 -30zM245 378q-1 6 6.5 11t11.5 1l27 -51q2 -5 -3 -9t-10 1z" />
    <glyph glyph-name="Yacute" unicode="&#xdd;" horiz-adv-x="218" 
d="M17 260q1 11 13 9t13 -9q0 -8 2.5 -30.5t7.5 -46.5t14 -42.5t22 -18.5q10 3 17 12t11.5 20t7 23t4.5 20q-1 24 1 47t7 45q4 11 16 9t14 -7q5 -21 2.5 -45t-10.5 -47q2 -42 10.5 -84l16.5 -84q14 1 31.5 2.5t36.5 1.5q7 0 7.5 -6.5t-7.5 -6.5l-34.5 -2t-30.5 -2l7 -52
t4 -61t-7 -59.5t-26 -47.5q-17 -17 -44.5 -25t-58.5 -7.5t-62.5 9t-56.5 25t-40 40.5t-13 55q3 37 31.5 61t69 38t85 21t79.5 12l-11 57t-11 59q-11 -18 -28 -30t-39 1q-13 7 -22.5 25.5t-15.5 40.5t-9 44t-4 36zM-86 -108q-3 -28 13 -50.5t42 -37.5t58.5 -22t62.5 -3
q34 8 54.5 31.5t25.5 68.5q4 32 -0.5 67t-10.5 68q-28 -3 -68.5 -9t-78.5 -19.5t-66.5 -36t-31.5 -57.5zM105 368q5 5 13.5 0t3.5 -11l-41 -53q-5 -4 -9 -0.5t-2 9.5z" />
    <glyph glyph-name="Ycircumflex" unicode="&#x176;" horiz-adv-x="218" 
d="M17 260q1 11 13 9t13 -9q0 -8 2.5 -30.5t7.5 -46.5t14 -42.5t22 -18.5q10 3 17 12t11.5 20t7 23t4.5 20q-1 24 1 47t7 45q4 11 16 9t14 -7q5 -21 2.5 -45t-10.5 -47q2 -42 10.5 -84l16.5 -84q14 1 31.5 2.5t36.5 1.5q7 0 7.5 -6.5t-7.5 -6.5l-34.5 -2t-30.5 -2l7 -52
t4 -61t-7 -59.5t-26 -47.5q-17 -17 -44.5 -25t-58.5 -7.5t-62.5 9t-56.5 25t-40 40.5t-13 55q3 37 31.5 61t69 38t85 21t79.5 12l-11 57t-11 59q-11 -18 -28 -30t-39 1q-13 7 -22.5 25.5t-15.5 40.5t-9 44t-4 36zM-86 -108q-3 -28 13 -50.5t42 -37.5t58.5 -22t62.5 -3
q34 8 54.5 31.5t25.5 68.5q4 32 -0.5 67t-10.5 68q-28 -3 -68.5 -9t-78.5 -19.5t-66.5 -36t-31.5 -57.5zM73 322q-2 -6 -11.5 -6t-11.5 6q1 7 5.5 19.5t10.5 24t13 19t12 4.5q5 0 11 -8t11.5 -18.5l10.5 -20.5t8 -15q3 -7 -5 -9.5t-13 2.5q-3 4 -6 13.5t-6.5 18.5t-7 16.5
t-6.5 7.5q-3 -2 -5.5 -9.5t-4.5 -16t-3.5 -16.5t-1.5 -12z" />
    <glyph glyph-name="Ydieresis" unicode="&#x178;" horiz-adv-x="218" 
d="M74 323q0 -9 -8 -10t-12 7v3q1 10 9.5 11t10.5 -9v-2zM99 338q8 0 10.5 -7.5t-6.5 -10.5q-8 -2 -10 7t6 11zM17 260q1 11 13 9t13 -9q0 -8 2.5 -30.5t7.5 -46.5t14 -42.5t22 -18.5q10 3 17 12t11.5 20t7 23t4.5 20q-1 24 1 47t7 45q4 11 16 9t14 -7q5 -21 2.5 -45
t-10.5 -47q2 -42 10.5 -84l16.5 -84q14 1 31.5 2.5t36.5 1.5q7 0 7.5 -6.5t-7.5 -6.5l-34.5 -2t-30.5 -2l7 -52t4 -61t-7 -59.5t-26 -47.5q-17 -17 -44.5 -25t-58.5 -7.5t-62.5 9t-56.5 25t-40 40.5t-13 55q3 37 31.5 61t69 38t85 21t79.5 12l-11 57t-11 59q-11 -18 -28 -30
t-39 1q-13 7 -22.5 25.5t-15.5 40.5t-9 44t-4 36zM-86 -108q-3 -28 13 -50.5t42 -37.5t58.5 -22t62.5 -3q34 8 54.5 31.5t25.5 68.5q4 32 -0.5 67t-10.5 68q-28 -3 -68.5 -9t-78.5 -19.5t-66.5 -36t-31.5 -57.5z" />
    <glyph glyph-name="Ygrave" unicode="&#x1ef2;" horiz-adv-x="218" 
d="M17 260q1 11 13 9t13 -9q0 -8 2.5 -30.5t7.5 -46.5t14 -42.5t22 -18.5q10 3 17 12t11.5 20t7 23t4.5 20q-1 24 1 47t7 45q4 11 16 9t14 -7q5 -21 2.5 -45t-10.5 -47q2 -42 10.5 -84l16.5 -84q14 1 31.5 2.5t36.5 1.5q7 0 7.5 -6.5t-7.5 -6.5l-34.5 -2t-30.5 -2l7 -52
t4 -61t-7 -59.5t-26 -47.5q-17 -17 -44.5 -25t-58.5 -7.5t-62.5 9t-56.5 25t-40 40.5t-13 55q3 37 31.5 61t69 38t85 21t79.5 12l-11 57t-11 59q-11 -18 -28 -30t-39 1q-13 7 -22.5 25.5t-15.5 40.5t-9 44t-4 36zM-86 -108q-3 -28 13 -50.5t42 -37.5t58.5 -22t62.5 -3
q34 8 54.5 31.5t25.5 68.5q4 32 -0.5 67t-10.5 68q-28 -3 -68.5 -9t-78.5 -19.5t-66.5 -36t-31.5 -57.5zM57 348q-1 6 6.5 11t11.5 1l27 -51q2 -5 -3 -9t-10 1z" />
    <glyph glyph-name="Zacute" unicode="&#x179;" horiz-adv-x="225" 
d="M18 33q-6 15 2 32.5t22.5 36t33 37.5l34.5 36.5t26.5 34t8.5 30.5q-1 10 -14 15t-30 6.5t-35.5 1t-30.5 -1.5q-8 -1 -8 4.5t8 7.5q17 3 40 5t44 -0.5t37 -10.5t19 -23q2 -16 -6.5 -33.5t-23 -36.5t-31.5 -37t-31.5 -35t-23.5 -30.5t-7 -23.5t26.5 -10.5t55.5 3t60.5 8.5
l41.5 7q7 1 8.5 -6.5t-6.5 -8.5l-64 -12t-69 -11t-57.5 -1.5t-29.5 16.5zM115 382q5 5 13.5 0t3.5 -11l-41 -53q-5 -4 -9 -0.5t-2 9.5z" />
    <glyph glyph-name="Zcaron" unicode="&#x17d;" horiz-adv-x="225" 
d="M18 33q-6 15 2 32.5t22.5 36t33 37.5l34.5 36.5t26.5 34t8.5 30.5q-1 10 -14 15t-30 6.5t-35.5 1t-30.5 -1.5q-8 -1 -8 4.5t8 7.5q17 3 40 5t44 -0.5t37 -10.5t19 -23q2 -16 -6.5 -33.5t-23 -36.5t-31.5 -37t-31.5 -35t-23.5 -30.5t-7 -23.5t26.5 -10.5t55.5 3t60.5 8.5
l41.5 7q7 1 8.5 -6.5t-6.5 -8.5l-64 -12t-69 -11t-57.5 -1.5t-29.5 16.5zM60 373q-1 3 2 6.5t7 5.5t8 1.5t5 -3.5l4.5 -16.5t5.5 -17.5t7 -14.5t10 -7.5q1 3 1.5 12.5t0.5 21t-0.5 22.5t-0.5 17q2 7 10 7t9 -7v-16t-1 -27.5t-3.5 -27t-7.5 -14.5q-11 -5 -20.5 0t-16.5 15
t-12 22t-8 21z" />
    <glyph glyph-name="Zdotaccent" unicode="&#x17b;" horiz-adv-x="225" 
d="M18 33q-6 15 2 32.5t22.5 36t33 37.5l34.5 36.5t26.5 34t8.5 30.5q-1 10 -14 15t-30 6.5t-35.5 1t-30.5 -1.5q-8 -1 -8 4.5t8 7.5q17 3 40 5t44 -0.5t37 -10.5t19 -23q2 -16 -6.5 -33.5t-23 -36.5t-31.5 -37t-31.5 -35t-23.5 -30.5t-7 -23.5t26.5 -10.5t55.5 3t60.5 8.5
l41.5 7q7 1 8.5 -6.5t-6.5 -8.5l-64 -12t-69 -11t-57.5 -1.5t-29.5 16.5zM105 331q1 -4 -1 -7t-5.5 -4t-7 1t-4.5 7q-2 13 6.5 13.5t11.5 -10.5z" />
    <glyph glyph-name="Eth" unicode="&#xd0;" horiz-adv-x="328" 
d="M75 41q-1 5 -1.5 10t-1.5 10q-7 18 -16 37t-17 38l-40 -5q-7 0 -7.5 9t6.5 10l33 2l-9 22l-9 22.5t-8 25.5t-2.5 25.5t7.5 22.5q5 9 15.5 11.5t22 2.5t22.5 -2.5t19 -3.5q22 -5 57.5 -16.5t70 -28.5t59.5 -39t26 -49q1 -30 -20 -50.5t-51.5 -33.5t-63.5 -20t-56 -10
q1 -8 2 -18t0 -17q-2 -5 -11.5 -7.5t-15.5 3.5q-1 1 -3 4v1l-6 30q-5 -1 -9.5 -1h-9.5t-7 7t6 7q4 0 8.5 0.5t9.5 0.5zM96 142l4 -39.5l4 -39.5l5 -19q21 3 51 10t57 19t45.5 29.5t17.5 42.5q-2 22 -23 41t-50.5 34.5t-62 26.5t-55.5 17q1 -53 6 -106l47 4q7 1 8.5 -5
t-5.5 -8zM32 183l6 -14t7 -15l20 2l-6 113q-12 2 -22.5 0.5t-15.5 -7.5t-4.5 -17t3 -22.5t6.5 -22.5t6 -17zM65 139l-11 -2l13 -26z" />
    <glyph glyph-name="eth" unicode="&#xf0;" horiz-adv-x="161" 
d="M22 197q-7 -2 -9 3.5t4 9.5l30 12q-24 56 -41 84q-3 8 7 14t17 -3q8 -14 19.5 -36.5l24.5 -48.5l54 19q3 1 6 -1t4 -5t0 -6.5t-4 -4.5q-13 -5 -26 -9t-27 -9q17 -35 29 -72t13 -67q0 -20 -7.5 -37t-19.5 -22q-18 -7 -36 5.5t-30 35.5q-6 12 -10 26t-5.5 26.5t0 22.5
t6.5 16q11 13 24 16.5t25 1.5l-16 39zM78 139q-6 8 -20 9.5t-20 -5.5q-6 -8 -3 -27t11 -38t18.5 -31.5t19.5 -5.5q5 3 7 15t1 26.5t-4 29.5t-9 26z" />
    <glyph glyph-name="bullet" unicode="&#x2022;" horiz-adv-x="122" 
d="M38 125q0 14 9.5 24t23.5 10t24 -10t10 -24t-10 -24t-24 -10t-23.5 10t-9.5 24z" />
    <glyph glyph-name="exclamdown" unicode="&#xa1;" horiz-adv-x="104" 
d="M67.0039 14.0156q0 -3 -4.5 -5t-9.99902 -2q-5.5 0 -10 2t-5.49902 5l1.99902 98.9941l2 98.9941q0 3.99902 4 5.99902t7.99902 2q4 0 7.5 -2t3.5 -5.99902q-1 -49.9971 1.5 -98.9941t1.5 -98.9941zM54.0039 243.002q-9.99902 0 -11.499 5.49902q-1.5 5.5 10.499 7.5
q11 2 12 -5q1 -6.99902 -11 -7.99902z" />
    <glyph glyph-name="questiondown" unicode="&#xbf;" horiz-adv-x="175" 
d="M152.002 56.0137q3.99902 6 8.99902 3.5t3 -9.49902q-5 -9 -23.999 -18.999q-18.999 -10 -40.4971 -14.999q-21.499 -5 -40.498 -2t-22.998 19.999q-4 15.999 0.5 38.4971q4.49902 22.499 12.499 46.4971q7.99902 23.999 16.499 46.9971q8.49902 22.999 11.499 40.998
q2 6.99902 10.5 5.99902q8.49902 -1 7.49902 -7.99902q-3 -16.999 -9.99902 -39.498q-7 -22.498 -13 -44.4971q-5.99902 -21.998 -8.49902 -41.4971t1.5 -31.498q5 -11 16.499 -13.999q11.499 -3 24.998 -0.5q13.5 2.5 25.999 8.49902q12.499 6 19.499 13.999z
M91.0049 241.003q-7.99902 0 -10.999 6.49902q-3 6.5 9.99902 8.5q7 1 10 -1.5t3 -5.5t-3 -5.49902q-3 -2.5 -9 -2.5z" />
    <glyph glyph-name="minus" unicode="&#x2212;" horiz-adv-x="139" 
d="M24 136q-3 0 -5 2.5t-2 6t1.5 7t4.5 3.5q23 2 46.5 0t46.5 -1q7 1 7 -6t-6 -7q-21 -2 -45.5 -3z" />
    <glyph glyph-name="endash" unicode="&#x2013;" horiz-adv-x="193" 
d="M24 136q-3 0 -5 2.5t-2 6t1.5 7t4.5 3.5q12 1 32 0.5l41.5 -1t41.5 -0.5h32q7 1 7 -6t-6 -7q-11 -1 -30.5 -2t-41.5 -1.5l-42.5 -1t-32.5 -0.5z" />
    <glyph glyph-name="emdash" unicode="&#x2014;" horiz-adv-x="247" 
d="M24 136q-3 0 -5 2.5t-2 6t1.5 7t4.5 3.5q12 1 40.5 0.5t60 -1t60 -0.5h40.5q7 1 7.5 -6t-6.5 -7q-11 -1 -39 -2t-60.5 -1.5t-61 -1t-40.5 -0.5z" />
    <glyph glyph-name="plus" unicode="+" horiz-adv-x="139" 
d="M24 136q-3 0 -5 2.5t-2 6t1.5 7t4.5 3.5h38l-2 44q2 7 10 7t9 -7l1 -45h37q7 1 7 -6t-6 -7l-37 -3l2 -56q-2 -6 -9.5 -6t-9.5 6q-1 12 -1 26t-1 29z" />
    <glyph glyph-name="divide" unicode="&#xf7;" horiz-adv-x="139" 
d="M82 102q-2 -9 -9.5 -9t-9.5 9v1q2 9 9.5 9t9.5 -9v-1zM66 197q8 0 10 -8t-7 -10q-5 -1 -8 1.5t-3.5 6t1.5 7t7 3.5zM24 136q-3 0 -5 2.5t-2 6t1.5 7t4.5 3.5q23 2 46.5 0t46.5 -1q7 1 7 -6t-6 -7q-21 -2 -45.5 -3z" />
    <glyph glyph-name="multiply" unicode="&#xd7;" horiz-adv-x="118" 
d="M45 139l-33 33q-3 3 -1.5 7t5 7t8 3.5t6.5 -3.5l27 -30l23 32q6 5 13 -1t3 -13l-26 -33l32 -36q4 -6 -1.5 -11t-10.5 0l-32 31l-27 -33q-5 -5 -10.5 0t-2.5 10z" />
    <glyph glyph-name="lessequal" unicode="&#x2264;" 
d="M118 229q6 4 9 -1.5t-2 -10.5q-9 -6 -23 -18.5t-27 -26t-22.5 -26t-8.5 -18.5q0 -5 11 -11t28.5 -12t37.5 -11.5t38 -9.5q5 -2 4 -7.5t-7 -5.5q-20 4 -45.5 10t-48 13.5t-37.5 16.5t-14 18q1 6 10.5 18t24 26t33.5 28.5t39 27.5zM35 25q-7 0 -8 8.5t4 10.5q29 5 56.5 3.5
t56.5 -1.5q8 -1 7 -7t-8 -7q-26 -2 -51.5 -3.5t-56.5 -3.5z" />
    <glyph glyph-name="greaterequal" unicode="&#x2265;" horiz-adv-x="152" 
d="M30 210q-6 3 -5 9t9 5l29 -13t35.5 -18.5t30 -21.5t12.5 -21q0 -11 -12 -23t-29 -24t-37 -23.5l-35 -20.5q-3 -2 -6 -1t-4.5 3.5t-1.5 6t5 5.5q11 6 26 16t29 20.5t23.5 21t9.5 17.5t-8 16t-19.5 18t-25.5 16t-26 12zM24 25q-7 0 -7.5 5.5t4.5 8.5q28 4 56 5.5t57 1.5
q7 -1 6.5 -10t-8.5 -9q-27 0 -53 -1t-55 -1z" />
    <glyph glyph-name="notequal" unicode="&#x2260;" horiz-adv-x="156" 
d="M27 152q-3 0 -5 2.5t-2 6t1.5 7t4.5 3.5l45 -1l7 35q2 10 11.5 8t8.5 -10l-8 -33h29q7 1 7.5 -6t-5.5 -7q-8 -1 -17 -1.5t-18 -0.5l-5 -27q13 0 26 -0.5t27 -0.5q7 -1 6.5 -7t-8.5 -6q-14 0 -27.5 -0.5t-27.5 -1.5q-2 -10 -3.5 -19t-3.5 -18q-2 -7 -8 -6t-5 8l2 16.5
t3 17.5l-19.5 -2t-18.5 -3q-7 0 -7.5 8.5t4.5 10.5q11 2 21.5 2.5t21.5 0.5l5 26q-11 -2 -21 -2h-21z" />
    <glyph glyph-name="logicalnot" unicode="&#xac;" horiz-adv-x="177" 
d="M23 141q-3 0 -5 3.5t-2 8t1.5 8.5t4.5 4q14 1 34 2t40 0t36 -4t22 -10q6 -8 6.5 -21t0.5 -33q-2 -6 -9.5 -6t-9.5 6q0 8 -0.5 24t-4.5 22q-3 5 -18.5 5.5t-35 -1.5t-37 -5t-23.5 -3z" />
    <glyph glyph-name="ellipsis" unicode="&#x2026;" horiz-adv-x="151" 
d="M33 7q-7 -6 -13 0t1 14q6 6 12.5 1t1.5 -13zM81 7q-7 -6 -13 0t0 14q7 6 13.5 1t1.5 -13zM129 7q-8 -6 -13.5 0t0.5 14q7 6 13.5 1t0.5 -13q0 -1 -1 -2z" />
    <glyph glyph-name="uni1E02" unicode="&#x1e02;" horiz-adv-x="278" 
d="M24 -19q-1 5 -1 11.5t-1 21.5q-5 1 -10 1t-10 1q-10 3 -7.5 9.5t9.5 4.5l17 -2l-2 22q-2 41 -5.5 95t-9.5 139q0 5 4.5 7t9.5 2t10 -2.5t6 -5.5q20 9 47 9t51 -6.5t41 -20.5t17 -34q0 -12 -8 -23.5t-19.5 -21.5t-24.5 -18l-22 -14q19 0 42.5 -2.5t44 -9t35 -17.5
t16.5 -28q2 -21 -19 -36.5t-53 -26t-67.5 -16t-62.5 -6.5q1 -11 1.5 -18.5t0.5 -14.5q0 -3 -5 -5t-10 -2.5t-10 1t-5 6.5zM92 141l-21.5 -10.5t-24.5 -9.5q4 -51 6 -93q22 1 51.5 6t56 13t45.5 20t20 28q1 14 -14.5 23.5t-37.5 15t-45 7t-36 0.5zM164 234q0 16 -14 26
t-34 14.5t-42.5 3t-38.5 -9.5q1 -17 4 -50t5 -72q10 4 20.5 6t19.5 3q33 19 56.5 39t23.5 40zM88 337q1 -4 -1 -7t-5.5 -4t-7 1t-4.5 7q-2 13 6.5 13.5t11.5 -10.5z" />
    <glyph glyph-name="uni1E03" unicode="&#x1e03;" horiz-adv-x="206" 
d="M-11 212q-8 -2 -10 4t9 10l15 6q-2 28 -3.5 53t-2.5 53q0 27 1.5 63.5t10.5 71t28.5 61.5t55.5 37q26 7 53.5 1.5t50.5 -21t40.5 -38t23.5 -48.5q12 -46 -8.5 -83t-56.5 -66t-81 -50t-82 -36q2 -26 5.5 -51t7.5 -50q9 16 22.5 25t29 11t31.5 -2.5t29 -16.5
q12 -11 15 -23.5t-1.5 -24.5t-15 -22.5t-24.5 -19.5t-30.5 -14t-34.5 -7l6 -19.5l6 -18.5q0 -2 -4.5 -4.5t-10 -3.5t-10.5 -0.5t-8 3.5l-3 9q-9 23 -15 58q-7 31 -13 71.5t-10 87.5h-1zM166 550q-7 3 -14.5 5l-14.5 4q-39 1 -61 -21.5t-32.5 -56.5t-13 -73t-2.5 -70
q0 -23 1 -46.5t3 -48.5q28 11 60 27.5t61.5 36.5t52.5 44.5t32 52.5q7 23 3.5 45t-14 41t-26.5 34.5t-35 25.5zM74 142q-11 -7 -15.5 -18t-7.5 -24l6 -26l6 -25q17 2 35.5 7t32.5 16q19 16 18.5 32.5t-12.5 28t-30 15.5t-33 -6zM114 201q1 -4 -1 -7t-5.5 -4t-7 1t-4.5 7
q-2 13 6.5 13.5t11.5 -10.5z" />
    <glyph glyph-name="uni1E0A" unicode="&#x1e0a;" horiz-adv-x="328" 
d="M75 41q-1 5 -1.5 10t-1.5 10q-11 28 -25 57.5t-25 55.5l-9 22.5t-8 25.5t-2.5 25.5t7.5 22.5q5 9 15.5 11.5t22 2.5t22.5 -2.5t19 -3.5q22 -5 57.5 -16.5t70 -28.5t59.5 -39t26 -49q1 -30 -20 -50.5t-51.5 -33.5t-63.5 -20t-56 -10q1 -8 2 -18t0 -17q-1 -4 -5.5 -5.5
t-9.5 -1.5t-9.5 2t-5.5 5q-2 8 -3 15.5t-3 15.5q-5 -1 -9.5 -1h-9.5t-7 7t6 7q4 0 8.5 0.5t9.5 0.5zM280 145q-2 22 -23 41t-50.5 34.5t-62 26.5t-55.5 17q1 -51 5 -100.5t10 -100.5l5 -19q21 3 51 10t57 19t45.5 29.5t17.5 42.5zM59 269q-12 2 -22.5 0.5t-15.5 -7.5
t-4.5 -17t3 -22.5t6.5 -22.5t6 -17q7 -17 16.5 -35t18.5 -37zM129 318q1 -4 -1 -7t-5.5 -4t-7 1t-4.5 7q-2 13 6.5 13.5t11.5 -10.5z" />
    <glyph glyph-name="uni1E0B" unicode="&#x1e0b;" horiz-adv-x="222" 
d="M155 188l7 -49t9.5 -58.5t12.5 -61.5t17 -59q17 -43 38 -49.5t43 4.5q7 3 9 -2.5t-3 -9.5q-14 -7 -30 -9t-31.5 3.5t-29.5 19t-24 37.5q-14 34 -22.5 74.5t-15.5 88.5q-13 -22 -31.5 -35t-33.5 -16q-17 -3 -30.5 2t-21.5 15.5t-9 25.5t8 32q14 27 43.5 37t63.5 11
q-5 62 -9.5 124t-6.5 126q0 3 4 6.5t9.5 4.5t10.5 -0.5t6 -7.5q0 -32 3.5 -63l7 -62.5t6 -63.5t0.5 -65zM126 174q-13 1 -27 0t-27 -6q-27 -11 -36 -37q-3 -10 -1.5 -20t7.5 -17t16 -10t23 2q17 6 29.5 21.5t19.5 35.5zM81 224q1 -4 -1 -7t-5.5 -4t-7 1t-4.5 7
q-2 13 6.5 13.5t11.5 -10.5z" />
    <glyph glyph-name="uni1E1E" unicode="&#x1e1e;" horiz-adv-x="264" 
d="M-2 66q-8 -2 -9.5 4.5t6.5 8.5l12.5 4t14.5 4q-2 24 -4.5 60.5t0 74t11.5 70.5t29 51q21 19 47 25t51.5 1.5t49 -19.5t39.5 -39q18 -28 17 -53t-15 -48t-38.5 -43t-52 -36t-55.5 -28.5t-50 -20.5q2 -12 3 -23.5t3 -22.5q25 0 50 -1.5t45.5 -8t33.5 -19t16 -33.5
q2 -16 -6.5 -32t-24.5 -28q-20 -17 -46 -21.5t-46 9.5q-11 8 -19 22.5t-14 31t-9.5 33.5l-6.5 31q-7 -1 -14 -1.5t-14 -1.5q-8 0 -9.5 6.5t8.5 7.5l12.5 2t14.5 1l-5 39q-6 -2 -12.5 -3.5t-12.5 -3.5zM239 256q1 25 -10 45.5t-29.5 33.5t-41 18t-43 0t-36.5 -21.5t-22 -46.5
q-6 -27 -8.5 -59t-2.5 -67q1 -16 1.5 -31.5t2.5 -31.5q26 10 57.5 25t60 35t48.5 45t23 55zM180 -29q-2 18 -14.5 28.5t-31 15.5t-39 6t-36.5 1q2 -10 4 -19t5 -18l7 -23.5t10.5 -25t16.5 -19.5t24 -7q21 3 38.5 20.5t15.5 40.5zM144 418q1 -4 -1 -7t-5.5 -4t-7 1t-4.5 7
q-2 13 6.5 13.5t11.5 -10.5z" />
    <glyph glyph-name="uni1E1F" unicode="&#x1e1f;" horiz-adv-x="148" 
d="M1 118q-8 -2 -9 4.5t9 9.5l13 5q-1 13 -2.5 39.5t-1 57.5t4 62.5t13 56t26.5 37t43 6.5q19 -4 31.5 -19.5t18.5 -36.5t6 -43.5t-5 -41.5q-11 -41 -40.5 -70.5t-64.5 -47.5q2 -41 5 -68.5t8 -58.5q45 14 82.5 42t53.5 85q2 6 8 4.5t4 -7.5q-17 -60 -53 -90t-83 -45
q20 0 43 -5t44.5 -14t39.5 -22.5t27 -31.5q10 -18 10 -49t-9 -60.5t-27.5 -51t-46.5 -21.5q-30 1 -51.5 30t-35 68.5t-21.5 79.5t-11 63l-21.5 -4t-22.5 -4q-6 -2 -9 0t-3.5 5.5t2 7t6.5 4.5q3 1 10 1q8 2 17 3.5t17 3.5l-7 60.5t-4 61.5l-7 -3.5t-7 -2.5zM128 -230
q12 -11 27 -10.5t28 14.5q12 12 19 31.5t9 40.5t0 41t-9 32q-9 17 -25 29.5t-36 21t-41.5 13t-40.5 5.5q3 -20 8.5 -51t13.5 -63.5t20 -60.5t27 -43zM135 284q0 13 -2 30.5t-7.5 33.5t-16 27t-26.5 11q-18 -2 -27 -28t-12.5 -63t-3 -76.5t1.5 -68.5q36 21 63 54.5t30 79.5z
M81 488q1 -4 -1 -7t-5.5 -4t-7 1t-4.5 7q-2 13 6.5 13.5t11.5 -10.5z" />
    <glyph glyph-name="uni1E56" unicode="&#x1e56;" horiz-adv-x="261" 
d="M36 -29q-11 70 -18 124.5t-11.5 96.5t-6 73t-0.5 54q1 6 5.5 8t10 1t9.5 -4.5t4 -6.5q-1 -11 -0.5 -21.5t1.5 -21.5q8 10 18.5 17.5t21.5 9.5q26 6 59.5 -2.5t60.5 -28t41 -48.5t1 -63q-8 -19 -28.5 -33t-46.5 -23.5t-54.5 -14.5t-50.5 -7l14 -111q0 -3 -4.5 -6
t-9.5 -3.5t-10 2t-6 8.5zM74 285q-25 -7 -38 -30q0 -14 1.5 -35.5t3.5 -44t4.5 -44.5t4.5 -37q28 3 58 11t54 20.5t39 30t13 41.5q-2 21 -17 40t-36 31.5t-44.5 17.5t-42.5 -1zM108 351q1 -4 -1 -7t-5.5 -4t-7 1t-4.5 7q-2 13 6.5 13.5t11.5 -10.5z" />
    <glyph glyph-name="uni1E57" unicode="&#x1e57;" horiz-adv-x="201" 
d="M46 141q13 27 31 41t43 14t39 -21q10 -17 10 -32.5t-8 -30t-22 -27.5t-30 -24q-27 -19 -50 -29l20 -154l6 -52t0 -53q-1 -5 -10 -7.5t-16 3.5q-5 5 -8 21.5t-5 35.5t-3 35t-1 21q-2 35 -5 69.5t-8 69.5q-10 -2 -9 4t8 10q-8 55 -15.5 112t-10.5 111q0 5 4.5 8t10 3
t10 -2.5t5.5 -7.5zM141 161q-10 18 -29 17.5t-34 -16.5q-10 -10 -16.5 -24.5t-11.5 -31.5l7 -53v-6q16 8 34.5 21t32.5 28t20 31.5t-3 33.5zM106 237q1 -4 -1 -7t-5.5 -4t-7 1t-4.5 7q-2 13 6.5 13.5t11.5 -10.5z" />
    <glyph glyph-name="uni1E60" unicode="&#x1e60;" horiz-adv-x="313" 
d="M53 253q1 -9 11.5 -20.5t28 -25t40 -28.5l46.5 -31l18 9q7 4 10 -1.5t-2 -9.5l-13 -7q43 -28 75.5 -55.5t36.5 -49.5q2 -17 -16.5 -29.5t-48.5 -21t-66 -11.5t-69.5 -1t-59 9.5t-32.5 20.5q-11 19 1.5 38.5t35.5 36.5t50.5 31.5t47.5 23.5l-47 30.5t-41 31.5t-29 31.5
t-11 30.5q0 18 12 28.5t30 15.5t41 4.5t45 -4.5t41 -10t29 -13q5 -3 2 -8.5t-8 -3.5q-23 10 -51.5 16.5t-52.5 6.5t-40 -7.5t-14 -26.5zM26 10q4 -10 23.5 -14.5t46.5 -5t57.5 2.5t55.5 8.5t42 13.5t16 18q-2 17 -33 40t-73 49l-41 -21t-48 -28t-37.5 -31.5t-8.5 -31.5z
M130 350q1 -4 -1 -7t-5.5 -4t-7 1t-4.5 7q-2 13 6.5 13.5t11.5 -10.5z" />
    <glyph glyph-name="uni1E61" unicode="&#x1e61;" horiz-adv-x="141" 
d="M82 -35q-14 3 -28.5 8t-25.5 12t-18 15t-7 17q0 13 19 26t42 25q-2 2 -2 3l-39.5 50.5t-16.5 42.5q0 15 8 25t21 16.5t29 10t33 4.5q7 1 8 -5.5t-7 -7.5q-27 -2 -44.5 -11.5t-17.5 -28.5q0 -9 5 -19.5t12.5 -21.5t17 -22.5l18.5 -22.5q13 6 24 12q7 2 9.5 -1.5t-3.5 -8.5
q-4 -4 -9.5 -7l-12.5 -7l15 -20t16 -25.5t9 -26t-5 -21.5q-7 -10 -20.5 -11.5t-29.5 0.5zM104 -16q4 6 2.5 15t-7 19t-12.5 20l-13 18q-18 -10 -32 -20t-16 -21q-1 -5 9 -13t23.5 -14t26.5 -8t19 4zM69 262q1 -4 -1 -7t-5.5 -4t-7 1t-4.5 7q-2 13 6.5 13.5t11.5 -10.5z" />
    <glyph glyph-name="uni1E6A" unicode="&#x1e6a;" horiz-adv-x="351" 
d="M10 279q40 9 84 14t87.5 7.5t84 3t74.5 0.5q7 0 7 -5.5t-6 -7.5q-39 -2 -73 -4.5l-78 -5.5q-4 -39 -5 -78t-0.5 -75.5t2 -69.5t3.5 -58q1 -7 -6.5 -8t-11.5 4q-9 57 -13.5 128t-3.5 153l-73 -8t-68 -14q-9 -1 -10 10t6 14zM180 369q1 -4 -1 -7t-5.5 -4t-7 1t-4.5 7
q-2 13 6.5 13.5t11.5 -10.5z" />
    <glyph glyph-name="uni1E6B" unicode="&#x1e6b;" horiz-adv-x="123" 
d="M35 243q2 -30 4.5 -60t6.5 -61q1 -7 4 -23.5t7.5 -34.5t11 -32.5t15.5 -16.5q9 -1 20 13t19 35q7 21 10.5 42t4.5 30q2 8 8 7.5t5 -8.5t-3 -20.5t-5 -26.5t-8 -28t-12 -26q-8 -16 -21.5 -27t-26.5 -9q-15 2 -25.5 16.5t-17 33.5t-10 39l-5.5 32q-5 29 -7.5 59.5
t-4.5 60.5l-71 -9q-7 -1 -7.5 5.5t5.5 7.5l72 12q-1 19 -1 37.5v38.5q1 5 5.5 7t9.5 1.5t9.5 -3t4.5 -5.5q0 -18 1 -35.5l2 -35.5l86 15q7 1 8 -8t-5 -11zM17 393q1 -4 -1 -7t-5.5 -4t-7 1t-4.5 7q-2 13 6.5 13.5t11.5 -10.5z" />
    <glyph glyph-name="quotedbl" unicode="&#x22;" horiz-adv-x="100" 
d="M18 283q1 7 12.5 7t12.5 -7l-4 -77q-1 -6 -8.5 -6t-9.5 6zM61 278q1 8 12 8t12 -8l-2 -69q-2 -6 -9.5 -6t-9.5 6z" />
    <glyph glyph-name="quotesingle" unicode="'" horiz-adv-x="68" 
d="M19 278q1 4 5.5 5.5t9.5 1.5t9.5 -1.5t4.5 -5.5l-5 -74q-1 -6 -9 -6t-10 6z" />
    <glyph glyph-name="quoteright" unicode="&#x2019;" horiz-adv-x="71" 
d="M15 252q-4 4 -3.5 8t3.5 7t7.5 4t8.5 -2q10 -6 12.5 -23.5t-11.5 -46.5q-2 -6 -7 -4t-3 7q5 14 4 26.5t-11 23.5z" />
    <glyph glyph-name="quotedblright" unicode="&#x201d;" horiz-adv-x="109" 
d="M15 252q-4 4 -3.5 8t3.5 7t7.5 4t8.5 -2q10 -6 12.5 -23.5t-11.5 -46.5q-2 -6 -7 -4t-3 7q5 14 4 26.5t-11 23.5zM53 259q-4 4 -3.5 8t3.5 7t7.5 4t8.5 -2q10 -6 12.5 -23.5t-11.5 -46.5q-2 -6 -7 -4t-3 7q5 14 4 26.5t-11 23.5z" />
    <glyph glyph-name="quoteleft" unicode="&#x2018;" horiz-adv-x="71" 
d="M41.001 214.001q4 -4 3.5 -8t-3.5 -6.99902q-3 -3 -7.5 -4q-4.49902 -1 -8.49902 2q-9.99902 5.99902 -12.499 23.498t11.499 46.4971q2 6 7 4q4.99902 -2 2.99902 -7q-4.99902 -13.999 -3.99902 -26.498t10.999 -23.498z" />
    <glyph glyph-name="quotedblleft" unicode="&#x201c;" horiz-adv-x="110" 
d="M41.001 214.001q4 -4 3.5 -8t-3.5 -6.99902q-3 -3 -7.5 -4q-4.49902 -1 -8.49902 2q-9.99902 5.99902 -12.499 23.498t11.499 46.4971q2 6 7 4q4.99902 -2 2.99902 -7q-4.99902 -13.999 -3.99902 -26.498t10.999 -23.498zM79.001 220.001q4 -4 3.5 -8t-3.5 -6.99902
q-3 -3 -7.5 -4q-4.49902 -1 -8.49902 2q-9.99902 5.99902 -12.499 23.498t11.499 46.4971q2 6 7 4q4.99902 -2 2.99902 -7q-4.99902 -13.999 -3.99902 -26.498t10.999 -23.498z" />
    <glyph glyph-name="ff" unicode="&#xfb00;" horiz-adv-x="335" 
d="M0 121q-8 -2 -8.5 4.5t9.5 9.5l14 3q0 13 1 39.5t3.5 57t9 62t18 55t29 35t43.5 3.5q19 -6 28 -24t11 -40.5t-1 -45t-9 -37.5q-16 -38 -43 -65t-62 -43l1 1q-1 -33 -1 -71t2 -70l31 14t33 17l40 23q0 10 1 26t2 34.5t2.5 37.5t3.5 37q4 26 10.5 51.5t16.5 45.5t25 33.5
t35 16.5q18 2 30 -10t17.5 -33t3.5 -48.5t-12 -56.5q-14 -37 -41.5 -69t-61.5 -58q0 -22 1 -44t4 -45q24 10 50 26.5t49 38t40.5 48t25.5 57.5q2 6 8 4.5t4 -7.5q-8 -30 -23 -55t-34.5 -46t-41 -36.5t-41.5 -25.5q37 2 66 -10q31 -13 44 -29.5t13 -34.5q0 -19 -13 -36
t-33 -27t-43.5 -9.5t-45.5 15.5q-3 -20 -10.5 -38.5t-18.5 -33.5t-26 -23.5t-33 -7.5q-30 3 -49.5 30t-30.5 63t-16.5 73.5t-7.5 60.5l-15 -1q-9 -1 -10 3.5t8 9.5l15 7q-2 32 -3 69.5t0 72.5q-6 -2 -14 -4zM142 -246q12 4 21.5 14t16 24.5t10 31t4.5 32.5q-14 17 -22.5 39
t-14.5 46l-2 2q-9 -3 -16 -6.5t-17 -6.5q-8 -2 -9.5 4t5.5 9l21 8q-20 8 -43.5 10.5t-46.5 2.5q1 -15 4.5 -45.5t11.5 -62.5q3 -11 8.5 -29t15 -35t23 -28.5t30.5 -9.5zM131 250q5 14 7.5 34.5t1.5 40.5t-7 35t-19 19q-21 1 -34 -28t-21 -68q-8 -38 -11.5 -76t-3.5 -57
q31 17 53.5 42t33.5 58zM264 184q16 42 15 79t-17 49q-5 3 -13.5 1t-16.5 -8q-18 -17 -28 -50t-15 -70q-5 -28 -6 -59t-2 -54q27 22 49 50t34 62zM208 -85q3 -8 4.5 -18t2.5 -21q5 -6 9.5 -12.5t10.5 -11.5q9 -8 23 -10.5t23 -0.5q20 7 33.5 22t11.5 34q-1 21 -16.5 34
t-37.5 19.5t-45.5 7t-40.5 -4.5l3 -12q11 -9 19 -26zM115 15q-22 -13 -37.5 -20.5l-30.5 -14.5v-3q24 1 53.5 -2t55.5 -14l-3.5 34.5t-2.5 39.5z" />
    </font>
</defs>
</svg>
